<ttFont>
<head>
    <!-- Most of this table will be recalculated by the compiler -->
    <tableVersion value="1.0"/>
    <fontRevision value="1.0"/>
    <checkSumAdjustment value="0x8556ee65"/>
    <magicNumber value="0x5f0f3cf5"/>
    <flags value="00000000 00011011"/>
    <unitsPerEm value="1000"/>
    <created value="Sat Dec  6 13:43:37 2025"/>
    <modified value="Sat Dec  6 13:48:58 2025"/>
    <xMin value="-20"/>
    <yMin value="-233"/>
    <xMax value="617"/>
    <yMax value="696"/>
    <macStyle value="00000000 00000010"/>
    <lowestRecPPEM value="6"/>
    <fontDirectionHint value="2"/>
    <indexToLocFormat value="0"/>
    <glyphDataFormat value="0"/>
  </head>
    <TTGlyph name="A" xMin="32" yMin="0" xMax="502" yMax="623">
      <contour>
        <pt x="447" y="61" on="1"/>
        <pt x="470" y="61" on="0"/>
        <pt x="502" y="54" on="0"/>
        <pt x="502" y="33" on="1"/>
        <pt x="502" y="21" on="0"/>
        <pt x="493" y="7" on="0"/>
        <pt x="481" y="1" on="0"/>
        <pt x="467" y="0" on="0"/>
        <pt x="461" y="0" on="1"/>
        <pt x="355" y="0" on="1"/>
        <pt x="350" y="0" on="0"/>
        <pt x="336" y="1" on="0"/>
        <pt x="323" y="6" on="0"/>
        <pt x="314" y="18" on="0"/>
        <pt x="314" y="29" on="1"/>
        <pt x="314" y="41" on="0"/>
        <pt x="323" y="54" on="0"/>
        <pt x="336" y="60" on="0"/>
        <pt x="350" y="61" on="0"/>
        <pt x="356" y="61" on="1"/>
        <pt x="377" y="61" on="1"/>
        <pt x="370" y="165" on="1"/>
        <pt x="209" y="165" on="1"/>
        <pt x="168" y="61" on="1"/>
        <pt x="189" y="61" on="0"/>
        <pt x="220" y="54" on="0"/>
        <pt x="220" y="32" on="1"/>
        <pt x="220" y="20" on="0"/>
        <pt x="211" y="7" on="0"/>
        <pt x="198" y="1" on="0"/>
        <pt x="184" y="0" on="0"/>
        <pt x="179" y="0" on="1"/>
        <pt x="73" y="0" on="1"/>
        <pt x="68" y="0" on="0"/>
        <pt x="54" y="1" on="0"/>
        <pt x="41" y="6" on="0"/>
        <pt x="32" y="18" on="0"/>
        <pt x="32" y="28" on="1"/>
        <pt x="32" y="40" on="0"/>
        <pt x="41" y="54" on="0"/>
        <pt x="53" y="60" on="0"/>
        <pt x="67" y="61" on="0"/>
        <pt x="73" y="61" on="1"/>
        <pt x="97" y="61" on="1"/>
        <pt x="307" y="590" on="1"/>
        <pt x="317" y="615" on="0"/>
        <pt x="348" y="623" on="0"/>
        <pt x="361" y="623" on="1"/>
        <pt x="370" y="623" on="1"/>
        <pt x="399" y="623" on="0"/>
        <pt x="411" y="605" on="0"/>
        <pt x="413" y="585" on="1"/>
      </contour>
      <contour>
        <pt x="233" y="226" on="1"/>
        <pt x="366" y="226" on="1"/>
        <pt x="353" y="462" on="1"/>
        <pt x="352" y="471" on="0"/>
        <pt x="352" y="495" on="0"/>
        <pt x="352" y="505" on="1"/>
        <pt x="352" y="537" on="1"/>
        <pt x="351" y="537" on="1"/>
        <pt x="345" y="517" on="0"/>
        <pt x="324" y="459" on="0"/>
        <pt x="313" y="432" on="1"/>
      </contour>
    </TTGlyph>
    <TTGlyph name="AE" xMin="27" yMin="0" xMax="588" yMax="611">
      <contour>
        <pt x="331" y="61" on="1"/>
        <pt x="453" y="61" on="1"/>
        <pt x="455" y="75" on="0"/>
        <pt x="458" y="92" on="0"/>
        <pt x="460" y="105" on="0"/>
        <pt x="462" y="117" on="0"/>
        <pt x="463" y="126" on="1"/>
        <pt x="467" y="146" on="0"/>
        <pt x="477" y="171" on="0"/>
        <pt x="495" y="171" on="1"/>
        <pt x="507" y="171" on="0"/>
        <pt x="523" y="154" on="0"/>
        <pt x="523" y="143" on="1"/>
        <pt x="523" y="141" on="0"/>
        <pt x="519" y="116" on="0"/>
        <pt x="514" y="86" on="0"/>
        <pt x="510" y="59" on="0"/>
        <pt x="509" y="54" on="1"/>
        <pt x="506" y="36" on="0"/>
        <pt x="501" y="14" on="0"/>
        <pt x="492" y="3" on="0"/>
        <pt x="477" y="0" on="0"/>
        <pt x="463" y="0" on="1"/>
        <pt x="269" y="0" on="1"/>
        <pt x="264" y="0" on="0"/>
        <pt x="250" y="1" on="0"/>
        <pt x="238" y="6" on="0"/>
        <pt x="229" y="18" on="0"/>
        <pt x="229" y="29" on="1"/>
        <pt x="229" y="53" on="0"/>
        <pt x="259" y="61" on="0"/>
        <pt x="274" y="61" on="1"/>
        <pt x="294" y="183" on="1"/>
        <pt x="183" y="183" on="1"/>
        <pt x="139" y="61" on="1"/>
        <pt x="144" y="61" on="0"/>
        <pt x="158" y="60" on="0"/>
        <pt x="171" y="55" on="0"/>
        <pt x="180" y="44" on="0"/>
        <pt x="180" y="33" on="1"/>
        <pt x="180" y="21" on="0"/>
        <pt x="171" y="7" on="0"/>
        <pt x="159" y="1" on="0"/>
        <pt x="144" y="0" on="0"/>
        <pt x="138" y="0" on="1"/>
        <pt x="68" y="0" on="1"/>
        <pt x="63" y="0" on="0"/>
        <pt x="49" y="1" on="0"/>
        <pt x="36" y="6" on="0"/>
        <pt x="27" y="18" on="0"/>
        <pt x="27" y="28" on="1"/>
        <pt x="27" y="53" on="0"/>
        <pt x="58" y="61" on="0"/>
        <pt x="82" y="61" on="1"/>
        <pt x="261" y="550" on="1"/>
        <pt x="258" y="550" on="0"/>
        <pt x="247" y="551" on="0"/>
        <pt x="235" y="556" on="0"/>
        <pt x="226" y="568" on="0"/>
        <pt x="226" y="579" on="1"/>
        <pt x="226" y="591" on="0"/>
        <pt x="235" y="604" on="0"/>
        <pt x="248" y="610" on="0"/>
        <pt x="262" y="611" on="0"/>
        <pt x="267" y="611" on="1"/>
        <pt x="548" y="611" on="1"/>
        <pt x="553" y="611" on="0"/>
        <pt x="567" y="610" on="0"/>
        <pt x="579" y="605" on="0"/>
        <pt x="588" y="593" on="0"/>
        <pt x="588" y="582" on="1"/>
        <pt x="588" y="580" on="0"/>
        <pt x="587" y="573" on="0"/>
        <pt x="585" y="561" on="1"/>
        <pt x="573" y="492" on="1"/>
        <pt x="571" y="478" on="0"/>
        <pt x="561" y="456" on="0"/>
        <pt x="544" y="456" on="1"/>
        <pt x="534" y="456" on="0"/>
        <pt x="516" y="470" on="0"/>
        <pt x="516" y="485" on="1"/>
        <pt x="516" y="487" on="0"/>
        <pt x="518" y="501" on="0"/>
        <pt x="521" y="521" on="0"/>
        <pt x="525" y="542" on="0"/>
        <pt x="526" y="550" on="1"/>
        <pt x="412" y="550" on="1"/>
        <pt x="378" y="347" on="1"/>
        <pt x="488" y="347" on="1"/>
        <pt x="493" y="347" on="0"/>
        <pt x="507" y="346" on="0"/>
        <pt x="519" y="341" on="0"/>
        <pt x="528" y="329" on="0"/>
        <pt x="528" y="318" on="1"/>
        <pt x="528" y="306" on="0"/>
        <pt x="519" y="293" on="0"/>
        <pt x="507" y="287" on="0"/>
        <pt x="493" y="286" on="0"/>
        <pt x="487" y="286" on="1"/>
        <pt x="368" y="286" on="1"/>
      </contour>
      <contour>
        <pt x="206" y="244" on="1"/>
        <pt x="304" y="244" on="1"/>
        <pt x="355" y="550" on="1"/>
        <pt x="319" y="550" on="1"/>
      </contour>
    </TTGlyph>
    <TTGlyph name="B" xMin="28" yMin="0" xMax="539" yMax="611">
      <contour>
        <pt x="391" y="611" on="1"/>
        <pt x="428" y="611" on="0"/>
        <pt x="484" y="588" on="0"/>
        <pt x="521" y="551" on="0"/>
        <pt x="539" y="503" on="0"/>
        <pt x="539" y="478" on="1"/>
        <pt x="539" y="459" on="0"/>
        <pt x="526" y="415" on="0"/>
        <pt x="495" y="371" on="0"/>
        <pt x="444" y="333" on="0"/>
        <pt x="407" y="320" on="1"/>
        <pt x="456" y="309" on="0"/>
        <pt x="512" y="238" on="0"/>
        <pt x="512" y="192" on="1"/>
        <pt x="512" y="160" on="0"/>
        <pt x="483" y="92" on="0"/>
        <pt x="431" y="36" on="0"/>
        <pt x="356" y="0" on="0"/>
        <pt x="309" y="0" on="1"/>
        <pt x="68" y="0" on="1"/>
        <pt x="63" y="0" on="0"/>
        <pt x="49" y="1" on="0"/>
        <pt x="37" y="6" on="0"/>
        <pt x="28" y="18" on="0"/>
        <pt x="28" y="29" on="1"/>
        <pt x="28" y="41" on="0"/>
        <pt x="37" y="54" on="0"/>
        <pt x="49" y="60" on="0"/>
        <pt x="63" y="61" on="0"/>
        <pt x="69" y="61" on="1"/>
        <pt x="101" y="61" on="1"/>
        <pt x="182" y="550" on="1"/>
        <pt x="160" y="550" on="1"/>
        <pt x="155" y="550" on="0"/>
        <pt x="141" y="551" on="0"/>
        <pt x="128" y="556" on="0"/>
        <pt x="119" y="568" on="0"/>
        <pt x="119" y="578" on="1"/>
        <pt x="119" y="590" on="0"/>
        <pt x="128" y="604" on="0"/>
        <pt x="141" y="610" on="0"/>
        <pt x="155" y="611" on="0"/>
        <pt x="161" y="611" on="1"/>
      </contour>
      <contour>
        <pt x="219" y="348" on="1"/>
        <pt x="321" y="348" on="1"/>
        <pt x="359" y="348" on="0"/>
        <pt x="415" y="372" on="0"/>
        <pt x="451" y="408" on="0"/>
        <pt x="469" y="451" on="0"/>
        <pt x="469" y="470" on="1"/>
        <pt x="469" y="478" on="0"/>
        <pt x="464" y="504" on="0"/>
        <pt x="445" y="531" on="0"/>
        <pt x="408" y="550" on="0"/>
        <pt x="377" y="550" on="1"/>
        <pt x="252" y="550" on="1"/>
      </contour>
      <contour>
        <pt x="297" y="61" on="1"/>
        <pt x="331" y="61" on="0"/>
        <pt x="385" y="83" on="0"/>
        <pt x="423" y="119" on="0"/>
        <pt x="443" y="165" on="0"/>
        <pt x="443" y="189" on="1"/>
        <pt x="443" y="195" on="0"/>
        <pt x="439" y="227" on="0"/>
        <pt x="419" y="261" on="0"/>
        <pt x="380" y="287" on="0"/>
        <pt x="345" y="287" on="1"/>
        <pt x="208" y="287" on="1"/>
        <pt x="171" y="61" on="1"/>
      </contour>
    </TTGlyph>
    <TTGlyph name="C" xMin="85" yMin="-11" xMax="583" yMax="622">
      <contour>
        <pt x="557" y="433" on="1"/>
        <pt x="554" y="413" on="0"/>
        <pt x="537" y="401" on="0"/>
        <pt x="521" y="401" on="1"/>
        <pt x="509" y="401" on="0"/>
        <pt x="495" y="408" on="0"/>
        <pt x="488" y="419" on="0"/>
        <pt x="487" y="431" on="0"/>
        <pt x="487" y="435" on="1"/>
        <pt x="486" y="474" on="0"/>
        <pt x="465" y="523" on="0"/>
        <pt x="433" y="551" on="0"/>
        <pt x="398" y="561" on="0"/>
        <pt x="383" y="561" on="1"/>
        <pt x="342" y="561" on="0"/>
        <pt x="260" y="508" on="0"/>
        <pt x="195" y="420" on="0"/>
        <pt x="154" y="304" on="0"/>
        <pt x="154" y="241" on="1"/>
        <pt x="154" y="203" on="0"/>
        <pt x="173" y="134" on="0"/>
        <pt x="208" y="81" on="0"/>
        <pt x="258" y="50" on="0"/>
        <pt x="290" y="50" on="1"/>
        <pt x="302" y="50" on="0"/>
        <pt x="345" y="59" on="0"/>
        <pt x="392" y="86" on="0"/>
        <pt x="434" y="136" on="0"/>
        <pt x="444" y="178" on="1"/>
        <pt x="449" y="195" on="0"/>
        <pt x="471" y="201" on="0"/>
        <pt x="478" y="201" on="1"/>
        <pt x="500" y="201" on="0"/>
        <pt x="513" y="182" on="0"/>
        <pt x="513" y="173" on="1"/>
        <pt x="513" y="150" on="0"/>
        <pt x="482" y="87" on="0"/>
        <pt x="423" y="29" on="0"/>
        <pt x="338" y="-11" on="0"/>
        <pt x="285" y="-11" on="1"/>
        <pt x="239" y="-11" on="0"/>
        <pt x="165" y="29" on="0"/>
        <pt x="113" y="98" on="0"/>
        <pt x="85" y="189" on="0"/>
        <pt x="85" y="241" on="1"/>
        <pt x="85" y="314" on="0"/>
        <pt x="134" y="451" on="0"/>
        <pt x="216" y="558" on="0"/>
        <pt x="322" y="622" on="0"/>
        <pt x="380" y="622" on="1"/>
        <pt x="452" y="622" on="0"/>
        <pt x="504" y="573" on="1"/>
        <pt x="507" y="578" on="0"/>
        <pt x="520" y="598" on="0"/>
        <pt x="524" y="603" on="1"/>
        <pt x="529" y="611" on="0"/>
        <pt x="540" y="622" on="0"/>
        <pt x="553" y="622" on="1"/>
        <pt x="568" y="622" on="0"/>
        <pt x="583" y="604" on="0"/>
        <pt x="583" y="593" on="1"/>
        <pt x="583" y="588" on="0"/>
        <pt x="581" y="580" on="1"/>
      </contour>
    </TTGlyph>
    <TTGlyph name="D" xMin="24" yMin="0" xMax="542" yMax="611">
      <contour>
        <pt x="368" y="611" on="1"/>
        <pt x="415" y="611" on="0"/>
        <pt x="481" y="567" on="0"/>
        <pt x="523" y="499" on="0"/>
        <pt x="542" y="415" on="0"/>
        <pt x="542" y="375" on="1"/>
        <pt x="542" y="304" on="0"/>
        <pt x="498" y="169" on="0"/>
        <pt x="423" y="64" on="0"/>
        <pt x="322" y="0" on="0"/>
        <pt x="266" y="0" on="1"/>
        <pt x="64" y="0" on="1"/>
        <pt x="59" y="0" on="0"/>
        <pt x="45" y="1" on="0"/>
        <pt x="33" y="6" on="0"/>
        <pt x="24" y="18" on="0"/>
        <pt x="24" y="29" on="1"/>
        <pt x="24" y="41" on="0"/>
        <pt x="33" y="54" on="0"/>
        <pt x="45" y="60" on="0"/>
        <pt x="59" y="61" on="0"/>
        <pt x="65" y="61" on="1"/>
        <pt x="92" y="61" on="1"/>
        <pt x="173" y="550" on="1"/>
        <pt x="156" y="550" on="1"/>
        <pt x="151" y="550" on="0"/>
        <pt x="137" y="551" on="0"/>
        <pt x="124" y="556" on="0"/>
        <pt x="115" y="568" on="0"/>
        <pt x="115" y="578" on="1"/>
        <pt x="115" y="590" on="0"/>
        <pt x="124" y="604" on="0"/>
        <pt x="137" y="610" on="0"/>
        <pt x="151" y="611" on="0"/>
        <pt x="157" y="611" on="1"/>
      </contour>
      <contour>
        <pt x="162" y="61" on="1"/>
        <pt x="257" y="61" on="1"/>
        <pt x="305" y="61" on="0"/>
        <pt x="384" y="116" on="0"/>
        <pt x="441" y="203" on="0"/>
        <pt x="472" y="311" on="0"/>
        <pt x="472" y="364" on="1"/>
        <pt x="472" y="375" on="0"/>
        <pt x="466" y="435" on="0"/>
        <pt x="439" y="500" on="0"/>
        <pt x="386" y="550" on="0"/>
        <pt x="338" y="550" on="1"/>
        <pt x="243" y="550" on="1"/>
      </contour>
    </TTGlyph>
    <TTGlyph name="E" xMin="31" yMin="0" xMax="577" yMax="611">
      <contour>
        <pt x="177" y="61" on="1"/>
        <pt x="443" y="61" on="1"/>
        <pt x="454" y="131" on="1"/>
        <pt x="458" y="150" on="0"/>
        <pt x="468" y="171" on="0"/>
        <pt x="491" y="171" on="1"/>
        <pt x="513" y="171" on="0"/>
        <pt x="526" y="152" on="0"/>
        <pt x="526" y="143" on="1"/>
        <pt x="526" y="141" on="0"/>
        <pt x="522" y="116" on="0"/>
        <pt x="517" y="86" on="0"/>
        <pt x="513" y="59" on="0"/>
        <pt x="512" y="54" on="1"/>
        <pt x="509" y="36" on="0"/>
        <pt x="504" y="14" on="0"/>
        <pt x="495" y="3" on="0"/>
        <pt x="480" y="0" on="0"/>
        <pt x="466" y="0" on="1"/>
        <pt x="71" y="0" on="1"/>
        <pt x="66" y="0" on="0"/>
        <pt x="52" y="1" on="0"/>
        <pt x="40" y="6" on="0"/>
        <pt x="31" y="18" on="0"/>
        <pt x="31" y="29" on="1"/>
        <pt x="31" y="41" on="0"/>
        <pt x="40" y="54" on="0"/>
        <pt x="52" y="60" on="0"/>
        <pt x="66" y="61" on="0"/>
        <pt x="72" y="61" on="1"/>
        <pt x="107" y="61" on="1"/>
        <pt x="188" y="550" on="1"/>
        <pt x="163" y="550" on="1"/>
        <pt x="158" y="550" on="0"/>
        <pt x="144" y="551" on="0"/>
        <pt x="132" y="556" on="0"/>
        <pt x="123" y="568" on="0"/>
        <pt x="123" y="579" on="1"/>
        <pt x="123" y="591" on="0"/>
        <pt x="131" y="604" on="0"/>
        <pt x="144" y="610" on="0"/>
        <pt x="158" y="611" on="0"/>
        <pt x="164" y="611" on="1"/>
        <pt x="537" y="611" on="1"/>
        <pt x="542" y="611" on="0"/>
        <pt x="556" y="610" on="0"/>
        <pt x="568" y="605" on="0"/>
        <pt x="577" y="593" on="0"/>
        <pt x="577" y="582" on="1"/>
        <pt x="577" y="580" on="0"/>
        <pt x="576" y="573" on="0"/>
        <pt x="574" y="561" on="1"/>
        <pt x="562" y="492" on="1"/>
        <pt x="559" y="475" on="0"/>
        <pt x="549" y="456" on="0"/>
        <pt x="526" y="456" on="1"/>
        <pt x="515" y="456" on="0"/>
        <pt x="492" y="467" on="0"/>
        <pt x="492" y="485" on="1"/>
        <pt x="492" y="487" on="0"/>
        <pt x="494" y="501" on="0"/>
        <pt x="497" y="521" on="0"/>
        <pt x="501" y="542" on="0"/>
        <pt x="502" y="550" on="1"/>
        <pt x="258" y="550" on="1"/>
        <pt x="224" y="347" on="1"/>
        <pt x="354" y="347" on="1"/>
        <pt x="359" y="379" on="0"/>
        <pt x="371" y="404" on="0"/>
        <pt x="394" y="404" on="1"/>
        <pt x="418" y="404" on="0"/>
        <pt x="429" y="383" on="0"/>
        <pt x="429" y="376" on="1"/>
        <pt x="429" y="374" on="0"/>
        <pt x="429" y="371" on="0"/>
        <pt x="427" y="363" on="1"/>
        <pt x="410" y="261" on="1"/>
        <pt x="408" y="247" on="0"/>
        <pt x="395" y="229" on="0"/>
        <pt x="374" y="229" on="1"/>
        <pt x="364" y="229" on="0"/>
        <pt x="340" y="239" on="0"/>
        <pt x="340" y="258" on="1"/>
        <pt x="340" y="262" on="0"/>
        <pt x="343" y="282" on="0"/>
        <pt x="344" y="286" on="1"/>
        <pt x="214" y="286" on="1"/>
      </contour>
    </TTGlyph>
    <TTGlyph name="F" xMin="33" yMin="0" xMax="587" yMax="611">
      <contour>
        <pt x="182" y="61" on="1"/>
        <pt x="228" y="61" on="1"/>
        <pt x="233" y="61" on="0"/>
        <pt x="247" y="60" on="0"/>
        <pt x="260" y="55" on="0"/>
        <pt x="269" y="44" on="0"/>
        <pt x="269" y="33" on="1"/>
        <pt x="269" y="21" on="0"/>
        <pt x="260" y="7" on="0"/>
        <pt x="248" y="1" on="0"/>
        <pt x="234" y="0" on="0"/>
        <pt x="228" y="0" on="1"/>
        <pt x="73" y="0" on="1"/>
        <pt x="68" y="0" on="0"/>
        <pt x="54" y="1" on="0"/>
        <pt x="42" y="6" on="0"/>
        <pt x="33" y="18" on="0"/>
        <pt x="33" y="29" on="1"/>
        <pt x="33" y="41" on="0"/>
        <pt x="42" y="54" on="0"/>
        <pt x="54" y="60" on="0"/>
        <pt x="68" y="61" on="0"/>
        <pt x="74" y="61" on="1"/>
        <pt x="112" y="61" on="1"/>
        <pt x="193" y="550" on="1"/>
        <pt x="165" y="550" on="1"/>
        <pt x="160" y="550" on="0"/>
        <pt x="146" y="551" on="0"/>
        <pt x="133" y="556" on="0"/>
        <pt x="124" y="568" on="0"/>
        <pt x="124" y="578" on="1"/>
        <pt x="124" y="590" on="0"/>
        <pt x="133" y="604" on="0"/>
        <pt x="146" y="610" on="0"/>
        <pt x="160" y="611" on="0"/>
        <pt x="166" y="611" on="1"/>
        <pt x="547" y="611" on="1"/>
        <pt x="552" y="611" on="0"/>
        <pt x="566" y="610" on="0"/>
        <pt x="578" y="605" on="0"/>
        <pt x="587" y="593" on="0"/>
        <pt x="587" y="582" on="1"/>
        <pt x="587" y="580" on="0"/>
        <pt x="586" y="573" on="0"/>
        <pt x="584" y="561" on="1"/>
        <pt x="572" y="492" on="1"/>
        <pt x="569" y="475" on="0"/>
        <pt x="559" y="456" on="0"/>
        <pt x="536" y="456" on="1"/>
        <pt x="525" y="456" on="0"/>
        <pt x="502" y="467" on="0"/>
        <pt x="502" y="485" on="1"/>
        <pt x="502" y="487" on="0"/>
        <pt x="504" y="501" on="0"/>
        <pt x="507" y="521" on="0"/>
        <pt x="511" y="542" on="0"/>
        <pt x="512" y="550" on="1"/>
        <pt x="263" y="550" on="1"/>
        <pt x="228" y="336" on="1"/>
        <pt x="363" y="336" on="1"/>
        <pt x="367" y="366" on="0"/>
        <pt x="378" y="393" on="0"/>
        <pt x="402" y="393" on="1"/>
        <pt x="424" y="393" on="0"/>
        <pt x="437" y="374" on="0"/>
        <pt x="437" y="365" on="1"/>
        <pt x="437" y="363" on="0"/>
        <pt x="437" y="359" on="0"/>
        <pt x="435" y="351" on="1"/>
        <pt x="418" y="250" on="1"/>
        <pt x="417" y="244" on="0"/>
        <pt x="414" y="233" on="0"/>
        <pt x="407" y="224" on="0"/>
        <pt x="394" y="218" on="0"/>
        <pt x="383" y="218" on="1"/>
        <pt x="380" y="218" on="0"/>
        <pt x="369" y="219" on="0"/>
        <pt x="357" y="224" on="0"/>
        <pt x="348" y="236" on="0"/>
        <pt x="348" y="247" on="1"/>
        <pt x="348" y="252" on="0"/>
        <pt x="349" y="260" on="0"/>
        <pt x="352" y="275" on="1"/>
        <pt x="217" y="275" on="1"/>
      </contour>
    </TTGlyph>
    <TTGlyph name="G" xMin="83" yMin="-11" xMax="548" yMax="622">
      <contour>
        <pt x="494" y="270" on="1"/>
        <pt x="500" y="270" on="0"/>
        <pt x="515" y="269" on="0"/>
        <pt x="527" y="264" on="0"/>
        <pt x="536" y="252" on="0"/>
        <pt x="536" y="241" on="1"/>
        <pt x="536" y="217" on="0"/>
        <pt x="505" y="209" on="0"/>
        <pt x="484" y="209" on="1"/>
        <pt x="481" y="189" on="0"/>
        <pt x="471" y="126" on="0"/>
        <pt x="461" y="66" on="0"/>
        <pt x="453" y="22" on="0"/>
        <pt x="453" y="20" on="1"/>
        <pt x="448" y="5" on="0"/>
        <pt x="426" y="0" on="0"/>
        <pt x="419" y="0" on="1"/>
        <pt x="406" y="0" on="0"/>
        <pt x="392" y="9" on="0"/>
        <pt x="386" y="19" on="0"/>
        <pt x="385" y="29" on="0"/>
        <pt x="386" y="30" on="1"/>
        <pt x="387" y="31" on="0"/>
        <pt x="386" y="34" on="0"/>
        <pt x="386" y="35" on="1"/>
        <pt x="386" y="38" on="1"/>
        <pt x="360" y="15" on="0"/>
        <pt x="299" y="-11" on="0"/>
        <pt x="264" y="-11" on="1"/>
        <pt x="225" y="-11" on="0"/>
        <pt x="159" y="25" on="0"/>
        <pt x="110" y="89" on="0"/>
        <pt x="83" y="180" on="0"/>
        <pt x="83" y="235" on="1"/>
        <pt x="83" y="311" on="0"/>
        <pt x="130" y="451" on="0"/>
        <pt x="207" y="558" on="0"/>
        <pt x="307" y="622" on="0"/>
        <pt x="360" y="622" on="1"/>
        <pt x="424" y="622" on="0"/>
        <pt x="472" y="576" on="1"/>
        <pt x="473" y="578" on="0"/>
        <pt x="479" y="587" on="0"/>
        <pt x="485" y="597" on="0"/>
        <pt x="490" y="605" on="0"/>
        <pt x="490" y="605" on="1"/>
        <pt x="494" y="611" on="0"/>
        <pt x="505" y="622" on="0"/>
        <pt x="518" y="622" on="1"/>
        <pt x="533" y="622" on="0"/>
        <pt x="548" y="604" on="0"/>
        <pt x="548" y="593" on="1"/>
        <pt x="548" y="592" on="0"/>
        <pt x="544" y="565" on="0"/>
        <pt x="538" y="528" on="0"/>
        <pt x="530" y="485" on="0"/>
        <pt x="524" y="448" on="0"/>
        <pt x="519" y="423" on="0"/>
        <pt x="519" y="422" on="1"/>
        <pt x="515" y="406" on="0"/>
        <pt x="491" y="401" on="0"/>
        <pt x="486" y="401" on="1"/>
        <pt x="473" y="401" on="0"/>
        <pt x="459" y="408" on="0"/>
        <pt x="453" y="420" on="0"/>
        <pt x="452" y="435" on="0"/>
        <pt x="452" y="443" on="1"/>
        <pt x="451" y="498" on="0"/>
        <pt x="403" y="561" on="0"/>
        <pt x="363" y="561" on="1"/>
        <pt x="327" y="561" on="0"/>
        <pt x="252" y="508" on="0"/>
        <pt x="191" y="419" on="0"/>
        <pt x="152" y="300" on="0"/>
        <pt x="152" y="234" on="1"/>
        <pt x="152" y="194" on="0"/>
        <pt x="169" y="126" on="0"/>
        <pt x="200" y="77" on="0"/>
        <pt x="243" y="50" on="0"/>
        <pt x="268" y="50" on="1"/>
        <pt x="297" y="50" on="0"/>
        <pt x="344" y="81" on="0"/>
        <pt x="381" y="128" on="0"/>
        <pt x="406" y="184" on="0"/>
        <pt x="412" y="209" on="1"/>
        <pt x="359" y="209" on="1"/>
        <pt x="348" y="211" on="0"/>
        <pt x="335" y="228" on="0"/>
        <pt x="335" y="237" on="1"/>
        <pt x="335" y="249" on="0"/>
        <pt x="343" y="263" on="0"/>
        <pt x="356" y="269" on="0"/>
        <pt x="371" y="270" on="0"/>
        <pt x="378" y="270" on="1"/>
      </contour>
    </TTGlyph>
    <TTGlyph name="Gamma" xMin="36" yMin="0" xMax="585" yMax="611">
      <contour>
        <pt x="189" y="61" on="1"/>
        <pt x="240" y="61" on="1"/>
        <pt x="245" y="61" on="0"/>
        <pt x="259" y="60" on="0"/>
        <pt x="271" y="55" on="0"/>
        <pt x="280" y="43" on="0"/>
        <pt x="280" y="32" on="1"/>
        <pt x="280" y="20" on="0"/>
        <pt x="271" y="7" on="0"/>
        <pt x="259" y="1" on="0"/>
        <pt x="245" y="0" on="0"/>
        <pt x="239" y="0" on="1"/>
        <pt x="77" y="0" on="1"/>
        <pt x="72" y="0" on="0"/>
        <pt x="58" y="1" on="0"/>
        <pt x="45" y="6" on="0"/>
        <pt x="36" y="18" on="0"/>
        <pt x="36" y="29" on="1"/>
        <pt x="36" y="41" on="0"/>
        <pt x="45" y="54" on="0"/>
        <pt x="58" y="60" on="0"/>
        <pt x="73" y="61" on="0"/>
        <pt x="78" y="61" on="1"/>
        <pt x="119" y="61" on="1"/>
        <pt x="200" y="550" on="1"/>
        <pt x="169" y="550" on="1"/>
        <pt x="164" y="550" on="0"/>
        <pt x="150" y="551" on="0"/>
        <pt x="137" y="556" on="0"/>
        <pt x="128" y="568" on="0"/>
        <pt x="128" y="579" on="1"/>
        <pt x="128" y="591" on="0"/>
        <pt x="137" y="604" on="0"/>
        <pt x="150" y="610" on="0"/>
        <pt x="164" y="611" on="0"/>
        <pt x="169" y="611" on="1"/>
        <pt x="545" y="611" on="1"/>
        <pt x="550" y="611" on="0"/>
        <pt x="564" y="610" on="0"/>
        <pt x="576" y="605" on="0"/>
        <pt x="585" y="593" on="0"/>
        <pt x="585" y="582" on="1"/>
        <pt x="585" y="580" on="0"/>
        <pt x="584" y="573" on="0"/>
        <pt x="582" y="561" on="1"/>
        <pt x="570" y="492" on="1"/>
        <pt x="567" y="475" on="0"/>
        <pt x="557" y="456" on="0"/>
        <pt x="534" y="456" on="1"/>
        <pt x="523" y="456" on="0"/>
        <pt x="500" y="467" on="0"/>
        <pt x="500" y="485" on="1"/>
        <pt x="500" y="487" on="0"/>
        <pt x="502" y="501" on="0"/>
        <pt x="505" y="521" on="0"/>
        <pt x="509" y="542" on="0"/>
        <pt x="510" y="550" on="1"/>
        <pt x="270" y="550" on="1"/>
      </contour>
    </TTGlyph>
    <TTGlyph name="H" xMin="26" yMin="0" xMax="600" yMax="611">
      <contour>
        <pt x="448" y="61" on="1"/>
        <pt x="467" y="61" on="1"/>
        <pt x="472" y="61" on="0"/>
        <pt x="486" y="60" on="0"/>
        <pt x="499" y="55" on="0"/>
        <pt x="508" y="44" on="0"/>
        <pt x="508" y="33" on="1"/>
        <pt x="508" y="21" on="0"/>
        <pt x="499" y="7" on="0"/>
        <pt x="487" y="1" on="0"/>
        <pt x="473" y="0" on="0"/>
        <pt x="467" y="0" on="1"/>
        <pt x="348" y="0" on="1"/>
        <pt x="343" y="0" on="0"/>
        <pt x="329" y="1" on="0"/>
        <pt x="316" y="6" on="0"/>
        <pt x="307" y="18" on="0"/>
        <pt x="307" y="28" on="1"/>
        <pt x="307" y="40" on="0"/>
        <pt x="316" y="54" on="0"/>
        <pt x="328" y="60" on="0"/>
        <pt x="343" y="61" on="0"/>
        <pt x="349" y="61" on="1"/>
        <pt x="378" y="61" on="1"/>
        <pt x="415" y="287" on="1"/>
        <pt x="204" y="287" on="1"/>
        <pt x="167" y="61" on="1"/>
        <pt x="186" y="61" on="1"/>
        <pt x="191" y="61" on="0"/>
        <pt x="205" y="60" on="0"/>
        <pt x="218" y="55" on="0"/>
        <pt x="227" y="44" on="0"/>
        <pt x="227" y="33" on="1"/>
        <pt x="227" y="21" on="0"/>
        <pt x="218" y="7" on="0"/>
        <pt x="206" y="1" on="0"/>
        <pt x="192" y="0" on="0"/>
        <pt x="186" y="0" on="1"/>
        <pt x="67" y="0" on="1"/>
        <pt x="62" y="0" on="0"/>
        <pt x="48" y="1" on="0"/>
        <pt x="35" y="6" on="0"/>
        <pt x="26" y="18" on="0"/>
        <pt x="26" y="28" on="1"/>
        <pt x="26" y="40" on="0"/>
        <pt x="35" y="54" on="0"/>
        <pt x="47" y="60" on="0"/>
        <pt x="62" y="61" on="0"/>
        <pt x="68" y="61" on="1"/>
        <pt x="97" y="61" on="1"/>
        <pt x="178" y="550" on="1"/>
        <pt x="158" y="550" on="1"/>
        <pt x="153" y="550" on="0"/>
        <pt x="139" y="551" on="0"/>
        <pt x="127" y="556" on="0"/>
        <pt x="118" y="568" on="0"/>
        <pt x="118" y="579" on="1"/>
        <pt x="118" y="591" on="0"/>
        <pt x="127" y="604" on="0"/>
        <pt x="140" y="610" on="0"/>
        <pt x="154" y="611" on="0"/>
        <pt x="159" y="611" on="1"/>
        <pt x="278" y="611" on="1"/>
        <pt x="283" y="611" on="0"/>
        <pt x="297" y="610" on="0"/>
        <pt x="310" y="605" on="0"/>
        <pt x="319" y="594" on="0"/>
        <pt x="319" y="583" on="1"/>
        <pt x="319" y="571" on="0"/>
        <pt x="310" y="557" on="0"/>
        <pt x="297" y="551" on="0"/>
        <pt x="283" y="550" on="0"/>
        <pt x="277" y="550" on="1"/>
        <pt x="248" y="550" on="1"/>
        <pt x="215" y="348" on="1"/>
        <pt x="426" y="348" on="1"/>
        <pt x="459" y="550" on="1"/>
        <pt x="439" y="550" on="1"/>
        <pt x="434" y="550" on="0"/>
        <pt x="420" y="551" on="0"/>
        <pt x="408" y="556" on="0"/>
        <pt x="399" y="568" on="0"/>
        <pt x="399" y="579" on="1"/>
        <pt x="399" y="591" on="0"/>
        <pt x="408" y="604" on="0"/>
        <pt x="421" y="610" on="0"/>
        <pt x="435" y="611" on="0"/>
        <pt x="440" y="611" on="1"/>
        <pt x="559" y="611" on="1"/>
        <pt x="564" y="611" on="0"/>
        <pt x="578" y="610" on="0"/>
        <pt x="591" y="605" on="0"/>
        <pt x="600" y="594" on="0"/>
        <pt x="600" y="583" on="1"/>
        <pt x="600" y="571" on="0"/>
        <pt x="591" y="557" on="0"/>
        <pt x="578" y="551" on="0"/>
        <pt x="564" y="550" on="0"/>
        <pt x="558" y="550" on="1"/>
        <pt x="529" y="550" on="1"/>
      </contour>
    </TTGlyph>
    <TTGlyph name="I" xMin="84" yMin="0" xMax="543" yMax="611">
      <contour>
        <pt x="308" y="61" on="1"/>
        <pt x="411" y="61" on="1"/>
        <pt x="416" y="61" on="0"/>
        <pt x="430" y="60" on="0"/>
        <pt x="442" y="55" on="0"/>
        <pt x="451" y="43" on="0"/>
        <pt x="451" y="32" on="1"/>
        <pt x="451" y="20" on="0"/>
        <pt x="442" y="7" on="0"/>
        <pt x="430" y="1" on="0"/>
        <pt x="416" y="0" on="0"/>
        <pt x="410" y="0" on="1"/>
        <pt x="124" y="0" on="1"/>
        <pt x="119" y="0" on="0"/>
        <pt x="105" y="1" on="0"/>
        <pt x="93" y="6" on="0"/>
        <pt x="84" y="18" on="0"/>
        <pt x="84" y="29" on="1"/>
        <pt x="84" y="41" on="0"/>
        <pt x="93" y="54" on="0"/>
        <pt x="105" y="60" on="0"/>
        <pt x="119" y="61" on="0"/>
        <pt x="125" y="61" on="1"/>
        <pt x="238" y="61" on="1"/>
        <pt x="319" y="550" on="1"/>
        <pt x="216" y="550" on="1"/>
        <pt x="211" y="550" on="0"/>
        <pt x="197" y="551" on="0"/>
        <pt x="185" y="556" on="0"/>
        <pt x="176" y="568" on="0"/>
        <pt x="176" y="579" on="1"/>
        <pt x="176" y="591" on="0"/>
        <pt x="184" y="604" on="0"/>
        <pt x="197" y="610" on="0"/>
        <pt x="211" y="611" on="0"/>
        <pt x="217" y="611" on="1"/>
        <pt x="502" y="611" on="1"/>
        <pt x="507" y="611" on="0"/>
        <pt x="521" y="610" on="0"/>
        <pt x="534" y="605" on="0"/>
        <pt x="543" y="593" on="0"/>
        <pt x="543" y="582" on="1"/>
        <pt x="543" y="570" on="0"/>
        <pt x="534" y="557" on="0"/>
        <pt x="521" y="551" on="0"/>
        <pt x="507" y="550" on="0"/>
        <pt x="502" y="550" on="1"/>
        <pt x="389" y="550" on="1"/>
      </contour>
    </TTGlyph>
    <TTGlyph name="J" xMin="87" yMin="-11" xMax="575" yMax="611">
      <contour>
        <pt x="429" y="127" on="1"/>
        <pt x="424" y="99" on="0"/>
        <pt x="391" y="48" on="0"/>
        <pt x="341" y="11" on="0"/>
        <pt x="277" y="-11" on="0"/>
        <pt x="240" y="-11" on="1"/>
        <pt x="208" y="-11" on="0"/>
        <pt x="152" y="2" on="0"/>
        <pt x="111" y="28" on="0"/>
        <pt x="87" y="65" on="0"/>
        <pt x="87" y="90" on="1"/>
        <pt x="87" y="123" on="0"/>
        <pt x="120" y="146" on="0"/>
        <pt x="135" y="146" on="1"/>
        <pt x="152" y="146" on="0"/>
        <pt x="177" y="124" on="0"/>
        <pt x="177" y="105" on="1"/>
        <pt x="177" y="88" on="0"/>
        <pt x="168" y="75" on="0"/>
        <pt x="165" y="72" on="1"/>
        <pt x="174" y="64" on="0"/>
        <pt x="198" y="55" on="0"/>
        <pt x="220" y="51" on="0"/>
        <pt x="238" y="50" on="0"/>
        <pt x="241" y="50" on="1"/>
        <pt x="259" y="50" on="0"/>
        <pt x="297" y="60" on="0"/>
        <pt x="332" y="82" on="0"/>
        <pt x="357" y="116" on="0"/>
        <pt x="361" y="140" on="1"/>
        <pt x="429" y="550" on="1"/>
        <pt x="352" y="550" on="1"/>
        <pt x="347" y="550" on="0"/>
        <pt x="333" y="551" on="0"/>
        <pt x="321" y="556" on="0"/>
        <pt x="312" y="568" on="0"/>
        <pt x="312" y="579" on="1"/>
        <pt x="312" y="591" on="0"/>
        <pt x="320" y="604" on="0"/>
        <pt x="333" y="610" on="0"/>
        <pt x="347" y="611" on="0"/>
        <pt x="353" y="611" on="1"/>
        <pt x="535" y="611" on="1"/>
        <pt x="540" y="611" on="0"/>
        <pt x="554" y="610" on="0"/>
        <pt x="566" y="605" on="0"/>
        <pt x="575" y="593" on="0"/>
        <pt x="575" y="582" on="1"/>
        <pt x="575" y="570" on="0"/>
        <pt x="566" y="557" on="0"/>
        <pt x="553" y="551" on="0"/>
        <pt x="539" y="550" on="0"/>
        <pt x="534" y="550" on="1"/>
        <pt x="499" y="550" on="1"/>
      </contour>
    </TTGlyph>
    <TTGlyph name="K" xMin="31" yMin="0" xMax="582" yMax="611">
      <contour>
        <pt x="453" y="61" on="1"/>
        <pt x="470" y="61" on="0"/>
        <pt x="500" y="54" on="0"/>
        <pt x="500" y="32" on="1"/>
        <pt x="500" y="20" on="0"/>
        <pt x="491" y="7" on="0"/>
        <pt x="479" y="1" on="0"/>
        <pt x="465" y="0" on="0"/>
        <pt x="459" y="0" on="1"/>
        <pt x="383" y="0" on="1"/>
        <pt x="378" y="0" on="0"/>
        <pt x="364" y="1" on="0"/>
        <pt x="352" y="6" on="0"/>
        <pt x="343" y="18" on="0"/>
        <pt x="343" y="29" on="1"/>
        <pt x="343" y="53" on="0"/>
        <pt x="373" y="61" on="0"/>
        <pt x="388" y="61" on="1"/>
        <pt x="290" y="311" on="1"/>
        <pt x="178" y="194" on="1"/>
        <pt x="156" y="61" on="1"/>
        <pt x="173" y="61" on="1"/>
        <pt x="178" y="61" on="0"/>
        <pt x="192" y="60" on="0"/>
        <pt x="204" y="55" on="0"/>
        <pt x="213" y="43" on="0"/>
        <pt x="213" y="32" on="1"/>
        <pt x="213" y="20" on="0"/>
        <pt x="205" y="7" on="0"/>
        <pt x="192" y="1" on="0"/>
        <pt x="178" y="0" on="0"/>
        <pt x="172" y="0" on="1"/>
        <pt x="71" y="0" on="1"/>
        <pt x="66" y="0" on="0"/>
        <pt x="52" y="1" on="0"/>
        <pt x="40" y="6" on="0"/>
        <pt x="31" y="18" on="0"/>
        <pt x="31" y="29" on="1"/>
        <pt x="31" y="41" on="0"/>
        <pt x="40" y="54" on="0"/>
        <pt x="52" y="60" on="0"/>
        <pt x="66" y="61" on="0"/>
        <pt x="72" y="61" on="1"/>
        <pt x="99" y="61" on="1"/>
        <pt x="180" y="550" on="1"/>
        <pt x="163" y="550" on="1"/>
        <pt x="158" y="550" on="0"/>
        <pt x="144" y="551" on="0"/>
        <pt x="131" y="556" on="0"/>
        <pt x="122" y="568" on="0"/>
        <pt x="122" y="578" on="1"/>
        <pt x="122" y="590" on="0"/>
        <pt x="131" y="604" on="0"/>
        <pt x="144" y="610" on="0"/>
        <pt x="158" y="611" on="0"/>
        <pt x="164" y="611" on="1"/>
        <pt x="265" y="611" on="1"/>
        <pt x="270" y="611" on="0"/>
        <pt x="284" y="610" on="0"/>
        <pt x="296" y="605" on="0"/>
        <pt x="305" y="593" on="0"/>
        <pt x="305" y="582" on="1"/>
        <pt x="305" y="570" on="0"/>
        <pt x="296" y="557" on="0"/>
        <pt x="284" y="551" on="0"/>
        <pt x="270" y="550" on="0"/>
        <pt x="264" y="550" on="1"/>
        <pt x="237" y="550" on="1"/>
        <pt x="193" y="284" on="1"/>
        <pt x="448" y="550" on="1"/>
        <pt x="445" y="550" on="0"/>
        <pt x="433" y="551" on="0"/>
        <pt x="421" y="556" on="0"/>
        <pt x="412" y="568" on="0"/>
        <pt x="412" y="579" on="1"/>
        <pt x="412" y="591" on="0"/>
        <pt x="421" y="604" on="0"/>
        <pt x="433" y="610" on="0"/>
        <pt x="447" y="611" on="0"/>
        <pt x="453" y="611" on="1"/>
        <pt x="541" y="611" on="1"/>
        <pt x="546" y="611" on="0"/>
        <pt x="560" y="610" on="0"/>
        <pt x="573" y="605" on="0"/>
        <pt x="582" y="593" on="0"/>
        <pt x="582" y="582" on="1"/>
        <pt x="582" y="570" on="0"/>
        <pt x="573" y="557" on="0"/>
        <pt x="560" y="551" on="0"/>
        <pt x="546" y="550" on="0"/>
        <pt x="541" y="550" on="1"/>
        <pt x="520" y="550" on="1"/>
        <pt x="335" y="358" on="1"/>
      </contour>
    </TTGlyph>
    <TTGlyph name="L" xMin="36" yMin="0" xMax="512" yMax="611">
      <contour>
        <pt x="189" y="61" on="1"/>
        <pt x="429" y="61" on="1"/>
        <pt x="440" y="131" on="1"/>
        <pt x="444" y="151" on="0"/>
        <pt x="454" y="171" on="0"/>
        <pt x="477" y="171" on="1"/>
        <pt x="479" y="171" on="0"/>
        <pt x="491" y="170" on="0"/>
        <pt x="503" y="165" on="0"/>
        <pt x="512" y="154" on="0"/>
        <pt x="512" y="143" on="1"/>
        <pt x="512" y="141" on="0"/>
        <pt x="508" y="116" on="0"/>
        <pt x="503" y="86" on="0"/>
        <pt x="499" y="59" on="0"/>
        <pt x="498" y="54" on="1"/>
        <pt x="495" y="36" on="0"/>
        <pt x="490" y="14" on="0"/>
        <pt x="481" y="3" on="0"/>
        <pt x="466" y="0" on="0"/>
        <pt x="452" y="0" on="1"/>
        <pt x="77" y="0" on="1"/>
        <pt x="72" y="0" on="0"/>
        <pt x="58" y="1" on="0"/>
        <pt x="45" y="6" on="0"/>
        <pt x="36" y="18" on="0"/>
        <pt x="36" y="29" on="1"/>
        <pt x="36" y="41" on="0"/>
        <pt x="45" y="54" on="0"/>
        <pt x="58" y="60" on="0"/>
        <pt x="73" y="61" on="0"/>
        <pt x="78" y="61" on="1"/>
        <pt x="119" y="61" on="1"/>
        <pt x="200" y="550" on="1"/>
        <pt x="169" y="550" on="1"/>
        <pt x="164" y="550" on="0"/>
        <pt x="150" y="551" on="0"/>
        <pt x="137" y="556" on="0"/>
        <pt x="128" y="568" on="0"/>
        <pt x="128" y="579" on="1"/>
        <pt x="128" y="591" on="0"/>
        <pt x="137" y="604" on="0"/>
        <pt x="150" y="610" on="0"/>
        <pt x="164" y="611" on="0"/>
        <pt x="169" y="611" on="1"/>
        <pt x="331" y="611" on="1"/>
        <pt x="336" y="611" on="0"/>
        <pt x="350" y="610" on="0"/>
        <pt x="363" y="605" on="0"/>
        <pt x="372" y="593" on="0"/>
        <pt x="372" y="582" on="1"/>
        <pt x="372" y="570" on="0"/>
        <pt x="363" y="557" on="0"/>
        <pt x="350" y="551" on="0"/>
        <pt x="336" y="550" on="0"/>
        <pt x="330" y="550" on="1"/>
        <pt x="270" y="550" on="1"/>
      </contour>
    </TTGlyph>
    <TTGlyph name="Lambda" xMin="34" yMin="0" xMax="500" yMax="623">
      <contour>
        <pt x="167" y="61" on="1"/>
        <pt x="178" y="61" on="0"/>
        <pt x="203" y="60" on="0"/>
        <pt x="208" y="58" on="1"/>
        <pt x="210" y="57" on="0"/>
        <pt x="224" y="46" on="0"/>
        <pt x="224" y="32" on="1"/>
        <pt x="224" y="20" on="0"/>
        <pt x="216" y="7" on="0"/>
        <pt x="203" y="1" on="0"/>
        <pt x="188" y="0" on="0"/>
        <pt x="181" y="0" on="1"/>
        <pt x="76" y="0" on="1"/>
        <pt x="70" y="0" on="0"/>
        <pt x="55" y="1" on="0"/>
        <pt x="43" y="6" on="0"/>
        <pt x="34" y="18" on="0"/>
        <pt x="34" y="29" on="1"/>
        <pt x="34" y="43" on="0"/>
        <pt x="46" y="56" on="0"/>
        <pt x="51" y="58" on="1"/>
        <pt x="56" y="60" on="0"/>
        <pt x="85" y="61" on="0"/>
        <pt x="96" y="61" on="1"/>
        <pt x="306" y="588" on="1"/>
        <pt x="317" y="614" on="0"/>
        <pt x="345" y="623" on="0"/>
        <pt x="366" y="623" on="1"/>
        <pt x="383" y="623" on="0"/>
        <pt x="401" y="619" on="0"/>
        <pt x="410" y="609" on="0"/>
        <pt x="413" y="593" on="0"/>
        <pt x="414" y="580" on="1"/>
        <pt x="450" y="61" on="1"/>
        <pt x="470" y="61" on="0"/>
        <pt x="500" y="54" on="0"/>
        <pt x="500" y="32" on="1"/>
        <pt x="500" y="20" on="0"/>
        <pt x="492" y="7" on="0"/>
        <pt x="479" y="1" on="0"/>
        <pt x="464" y="0" on="0"/>
        <pt x="457" y="0" on="1"/>
        <pt x="352" y="0" on="1"/>
        <pt x="346" y="0" on="0"/>
        <pt x="331" y="1" on="0"/>
        <pt x="319" y="6" on="0"/>
        <pt x="310" y="18" on="0"/>
        <pt x="310" y="29" on="1"/>
        <pt x="310" y="40" on="0"/>
        <pt x="320" y="57" on="0"/>
        <pt x="331" y="60" on="1"/>
        <pt x="334" y="61" on="0"/>
        <pt x="366" y="61" on="0"/>
        <pt x="378" y="61" on="1"/>
        <pt x="353" y="540" on="1"/>
        <pt x="352" y="540" on="1"/>
      </contour>
    </TTGlyph>
    <TTGlyph name="M" xMin="22" yMin="0" xMax="604" yMax="611">
      <contour>
        <pt x="339" y="235" on="1"/>
        <pt x="333" y="223" on="0"/>
        <pt x="319" y="211" on="0"/>
        <pt x="307" y="205" on="0"/>
        <pt x="297" y="204" on="0"/>
        <pt x="296" y="204" on="1"/>
        <pt x="275" y="204" on="0"/>
        <pt x="264" y="233" on="0"/>
        <pt x="259" y="258" on="1"/>
        <pt x="258" y="268" on="0"/>
        <pt x="254" y="291" on="0"/>
        <pt x="248" y="323" on="0"/>
        <pt x="242" y="366" on="0"/>
        <pt x="237" y="394" on="1"/>
        <pt x="234" y="412" on="0"/>
        <pt x="228" y="452" on="0"/>
        <pt x="222" y="491" on="0"/>
        <pt x="217" y="524" on="0"/>
        <pt x="216" y="536" on="1"/>
        <pt x="215" y="536" on="1"/>
        <pt x="137" y="61" on="1"/>
        <pt x="153" y="61" on="0"/>
        <pt x="185" y="54" on="0"/>
        <pt x="185" y="33" on="1"/>
        <pt x="185" y="21" on="0"/>
        <pt x="176" y="7" on="0"/>
        <pt x="163" y="1" on="0"/>
        <pt x="149" y="0" on="0"/>
        <pt x="143" y="0" on="1"/>
        <pt x="62" y="0" on="1"/>
        <pt x="57" y="0" on="0"/>
        <pt x="43" y="1" on="0"/>
        <pt x="31" y="6" on="0"/>
        <pt x="22" y="18" on="0"/>
        <pt x="22" y="29" on="1"/>
        <pt x="22" y="41" on="0"/>
        <pt x="30" y="54" on="0"/>
        <pt x="43" y="60" on="0"/>
        <pt x="57" y="61" on="0"/>
        <pt x="63" y="61" on="1"/>
        <pt x="80" y="61" on="1"/>
        <pt x="161" y="550" on="1"/>
        <pt x="153" y="550" on="0"/>
        <pt x="136" y="551" on="0"/>
        <pt x="122" y="556" on="0"/>
        <pt x="113" y="568" on="0"/>
        <pt x="113" y="579" on="1"/>
        <pt x="113" y="591" on="0"/>
        <pt x="122" y="604" on="0"/>
        <pt x="135" y="610" on="0"/>
        <pt x="149" y="611" on="0"/>
        <pt x="155" y="611" on="1"/>
        <pt x="215" y="611" on="1"/>
        <pt x="227" y="611" on="0"/>
        <pt x="250" y="606" on="0"/>
        <pt x="257" y="592" on="1"/>
        <pt x="258" y="590" on="0"/>
        <pt x="266" y="550" on="0"/>
        <pt x="276" y="488" on="0"/>
        <pt x="288" y="415" on="0"/>
        <pt x="299" y="345" on="0"/>
        <pt x="306" y="289" on="0"/>
        <pt x="307" y="275" on="1"/>
        <pt x="308" y="275" on="1"/>
        <pt x="313" y="288" on="0"/>
        <pt x="329" y="322" on="0"/>
        <pt x="347" y="359" on="0"/>
        <pt x="365" y="397" on="0"/>
        <pt x="374" y="415" on="1"/>
        <pt x="458" y="583" on="1"/>
        <pt x="469" y="604" on="0"/>
        <pt x="500" y="611" on="0"/>
        <pt x="513" y="611" on="1"/>
        <pt x="564" y="611" on="1"/>
        <pt x="569" y="611" on="0"/>
        <pt x="583" y="610" on="0"/>
        <pt x="595" y="605" on="0"/>
        <pt x="604" y="593" on="0"/>
        <pt x="604" y="582" on="1"/>
        <pt x="604" y="570" on="0"/>
        <pt x="595" y="557" on="0"/>
        <pt x="583" y="551" on="0"/>
        <pt x="569" y="550" on="0"/>
        <pt x="563" y="550" on="1"/>
        <pt x="546" y="550" on="1"/>
        <pt x="465" y="61" on="1"/>
        <pt x="481" y="61" on="0"/>
        <pt x="513" y="54" on="0"/>
        <pt x="513" y="33" on="1"/>
        <pt x="513" y="21" on="0"/>
        <pt x="504" y="7" on="0"/>
        <pt x="491" y="1" on="0"/>
        <pt x="477" y="0" on="0"/>
        <pt x="471" y="0" on="1"/>
        <pt x="390" y="0" on="1"/>
        <pt x="385" y="0" on="0"/>
        <pt x="371" y="1" on="0"/>
        <pt x="359" y="6" on="0"/>
        <pt x="350" y="18" on="0"/>
        <pt x="350" y="29" on="1"/>
        <pt x="350" y="41" on="0"/>
        <pt x="358" y="54" on="0"/>
        <pt x="371" y="60" on="0"/>
        <pt x="385" y="61" on="0"/>
        <pt x="391" y="61" on="1"/>
        <pt x="408" y="61" on="1"/>
        <pt x="486" y="535" on="1"/>
        <pt x="485" y="535" on="1"/>
        <pt x="478" y="518" on="0"/>
        <pt x="465" y="491" on="1"/>
      </contour>
    </TTGlyph>
    <TTGlyph name="N" xMin="32" yMin="0" xMax="594" yMax="611">
      <contour>
        <pt x="437" y="32" on="1"/>
        <pt x="433" y="8" on="0"/>
        <pt x="412" y="0" on="0"/>
        <pt x="395" y="0" on="1"/>
        <pt x="388" y="0" on="1"/>
        <pt x="359" y="0" on="0"/>
        <pt x="344" y="18" on="0"/>
        <pt x="340" y="37" on="1"/>
        <pt x="240" y="535" on="1"/>
        <pt x="239" y="535" on="1"/>
        <pt x="160" y="61" on="1"/>
        <pt x="179" y="61" on="1"/>
        <pt x="184" y="61" on="0"/>
        <pt x="198" y="60" on="0"/>
        <pt x="211" y="55" on="0"/>
        <pt x="220" y="44" on="0"/>
        <pt x="220" y="33" on="1"/>
        <pt x="220" y="21" on="0"/>
        <pt x="211" y="7" on="0"/>
        <pt x="199" y="1" on="0"/>
        <pt x="185" y="0" on="0"/>
        <pt x="179" y="0" on="1"/>
        <pt x="73" y="0" on="1"/>
        <pt x="68" y="0" on="0"/>
        <pt x="54" y="1" on="0"/>
        <pt x="41" y="6" on="0"/>
        <pt x="32" y="18" on="0"/>
        <pt x="32" y="28" on="1"/>
        <pt x="32" y="40" on="0"/>
        <pt x="41" y="54" on="0"/>
        <pt x="53" y="60" on="0"/>
        <pt x="68" y="61" on="0"/>
        <pt x="74" y="61" on="1"/>
        <pt x="103" y="61" on="1"/>
        <pt x="184" y="550" on="1"/>
        <pt x="164" y="550" on="1"/>
        <pt x="159" y="550" on="0"/>
        <pt x="145" y="551" on="0"/>
        <pt x="133" y="556" on="0"/>
        <pt x="124" y="568" on="0"/>
        <pt x="124" y="579" on="1"/>
        <pt x="124" y="591" on="0"/>
        <pt x="133" y="604" on="0"/>
        <pt x="146" y="610" on="0"/>
        <pt x="160" y="611" on="0"/>
        <pt x="165" y="611" on="1"/>
        <pt x="237" y="611" on="1"/>
        <pt x="257" y="611" on="0"/>
        <pt x="281" y="600" on="0"/>
        <pt x="286" y="575" on="1"/>
        <pt x="386" y="76" on="1"/>
        <pt x="387" y="76" on="1"/>
        <pt x="466" y="550" on="1"/>
        <pt x="446" y="550" on="1"/>
        <pt x="441" y="550" on="0"/>
        <pt x="427" y="551" on="0"/>
        <pt x="415" y="556" on="0"/>
        <pt x="406" y="568" on="0"/>
        <pt x="406" y="579" on="1"/>
        <pt x="406" y="591" on="0"/>
        <pt x="415" y="604" on="0"/>
        <pt x="428" y="610" on="0"/>
        <pt x="442" y="611" on="0"/>
        <pt x="447" y="611" on="1"/>
        <pt x="553" y="611" on="1"/>
        <pt x="558" y="611" on="0"/>
        <pt x="572" y="610" on="0"/>
        <pt x="585" y="605" on="0"/>
        <pt x="594" y="594" on="0"/>
        <pt x="594" y="583" on="1"/>
        <pt x="594" y="571" on="0"/>
        <pt x="585" y="557" on="0"/>
        <pt x="572" y="551" on="0"/>
        <pt x="558" y="550" on="0"/>
        <pt x="552" y="550" on="1"/>
        <pt x="523" y="550" on="1"/>
      </contour>
    </TTGlyph>
    <TTGlyph name="O" xMin="84" yMin="-11" xMax="542" yMax="622">
      <contour>
        <pt x="542" y="500" on="1"/>
        <pt x="542" y="482" on="0"/>
        <pt x="536" y="423" on="0"/>
        <pt x="527" y="350" on="0"/>
        <pt x="514" y="270" on="0"/>
        <pt x="499" y="195" on="0"/>
        <pt x="483" y="128" on="0"/>
        <pt x="475" y="105" on="1"/>
        <pt x="462" y="67" on="0"/>
        <pt x="428" y="21" on="0"/>
        <pt x="378" y="-3" on="0"/>
        <pt x="309" y="-11" on="0"/>
        <pt x="260" y="-11" on="1"/>
        <pt x="208" y="-11" on="0"/>
        <pt x="140" y="-2" on="0"/>
        <pt x="100" y="24" on="0"/>
        <pt x="84" y="72" on="0"/>
        <pt x="84" y="111" on="1"/>
        <pt x="84" y="136" on="0"/>
        <pt x="96" y="241" on="0"/>
        <pt x="116" y="362" on="0"/>
        <pt x="142" y="481" on="0"/>
        <pt x="156" y="520" on="1"/>
        <pt x="169" y="555" on="0"/>
        <pt x="206" y="595" on="0"/>
        <pt x="257" y="616" on="0"/>
        <pt x="323" y="622" on="0"/>
        <pt x="365" y="622" on="1"/>
        <pt x="416" y="622" on="0"/>
        <pt x="484" y="614" on="0"/>
        <pt x="525" y="588" on="0"/>
        <pt x="542" y="540" on="0"/>
      </contour>
      <contour>
        <pt x="271" y="50" on="1"/>
        <pt x="313" y="50" on="0"/>
        <pt x="365" y="63" on="0"/>
        <pt x="398" y="95" on="0"/>
        <pt x="418" y="149" on="0"/>
        <pt x="428" y="189" on="1"/>
        <pt x="432" y="205" on="0"/>
        <pt x="446" y="280" on="0"/>
        <pt x="460" y="367" on="0"/>
        <pt x="471" y="451" on="0"/>
        <pt x="471" y="475" on="1"/>
        <pt x="471" y="503" on="0"/>
        <pt x="459" y="537" on="0"/>
        <pt x="432" y="555" on="0"/>
        <pt x="387" y="561" on="0"/>
        <pt x="355" y="561" on="1"/>
        <pt x="319" y="561" on="0"/>
        <pt x="270" y="553" on="0"/>
        <pt x="236" y="529" on="0"/>
        <pt x="214" y="486" on="0"/>
        <pt x="205" y="451" on="1"/>
        <pt x="199" y="430" on="0"/>
        <pt x="183" y="349" on="0"/>
        <pt x="168" y="258" on="0"/>
        <pt x="157" y="169" on="0"/>
        <pt x="157" y="141" on="1"/>
        <pt x="157" y="118" on="0"/>
        <pt x="163" y="84" on="0"/>
        <pt x="186" y="61" on="0"/>
        <pt x="232" y="50" on="0"/>
      </contour>
    </TTGlyph>
    <TTGlyph name="OE" xMin="56" yMin="-11" xMax="592" yMax="622">
      <contour>
        <pt x="329" y="61" on="1"/>
        <pt x="456" y="61" on="1"/>
        <pt x="458" y="75" on="0"/>
        <pt x="461" y="92" on="0"/>
        <pt x="463" y="105" on="0"/>
        <pt x="465" y="117" on="0"/>
        <pt x="466" y="126" on="1"/>
        <pt x="470" y="146" on="0"/>
        <pt x="480" y="171" on="0"/>
        <pt x="498" y="171" on="1"/>
        <pt x="510" y="171" on="0"/>
        <pt x="526" y="154" on="0"/>
        <pt x="526" y="143" on="1"/>
        <pt x="526" y="141" on="0"/>
        <pt x="522" y="116" on="0"/>
        <pt x="517" y="86" on="0"/>
        <pt x="513" y="59" on="0"/>
        <pt x="512" y="54" on="1"/>
        <pt x="509" y="36" on="0"/>
        <pt x="504" y="14" on="0"/>
        <pt x="495" y="3" on="0"/>
        <pt x="480" y="0" on="0"/>
        <pt x="466" y="0" on="1"/>
        <pt x="297" y="0" on="1"/>
        <pt x="289" y="0" on="0"/>
        <pt x="267" y="-1" on="0"/>
        <pt x="249" y="-5" on="1"/>
        <pt x="226" y="-10" on="0"/>
        <pt x="205" y="-11" on="0"/>
        <pt x="191" y="-11" on="1"/>
        <pt x="143" y="-11" on="0"/>
        <pt x="89" y="5" on="0"/>
        <pt x="62" y="34" on="0"/>
        <pt x="56" y="76" on="0"/>
        <pt x="56" y="102" on="1"/>
        <pt x="56" y="126" on="0"/>
        <pt x="63" y="192" on="0"/>
        <pt x="73" y="266" on="0"/>
        <pt x="86" y="342" on="0"/>
        <pt x="99" y="410" on="0"/>
        <pt x="110" y="463" on="0"/>
        <pt x="114" y="477" on="1"/>
        <pt x="125" y="516" on="0"/>
        <pt x="147" y="571" on="0"/>
        <pt x="186" y="606" on="0"/>
        <pt x="247" y="622" on="0"/>
        <pt x="296" y="622" on="1"/>
        <pt x="310" y="622" on="0"/>
        <pt x="330" y="621" on="0"/>
        <pt x="352" y="616" on="1"/>
        <pt x="371" y="612" on="0"/>
        <pt x="389" y="611" on="0"/>
        <pt x="399" y="611" on="1"/>
        <pt x="552" y="611" on="1"/>
        <pt x="557" y="611" on="0"/>
        <pt x="571" y="610" on="0"/>
        <pt x="583" y="605" on="0"/>
        <pt x="592" y="593" on="0"/>
        <pt x="592" y="582" on="1"/>
        <pt x="592" y="580" on="0"/>
        <pt x="591" y="573" on="0"/>
        <pt x="589" y="561" on="1"/>
        <pt x="577" y="492" on="1"/>
        <pt x="575" y="478" on="0"/>
        <pt x="565" y="456" on="0"/>
        <pt x="548" y="456" on="1"/>
        <pt x="538" y="456" on="0"/>
        <pt x="520" y="470" on="0"/>
        <pt x="520" y="485" on="1"/>
        <pt x="520" y="487" on="0"/>
        <pt x="522" y="501" on="0"/>
        <pt x="525" y="521" on="0"/>
        <pt x="529" y="542" on="0"/>
        <pt x="530" y="550" on="1"/>
        <pt x="410" y="550" on="1"/>
        <pt x="376" y="347" on="1"/>
        <pt x="493" y="347" on="1"/>
        <pt x="498" y="347" on="0"/>
        <pt x="512" y="346" on="0"/>
        <pt x="524" y="341" on="0"/>
        <pt x="533" y="329" on="0"/>
        <pt x="533" y="318" on="1"/>
        <pt x="533" y="306" on="0"/>
        <pt x="524" y="293" on="0"/>
        <pt x="512" y="287" on="0"/>
        <pt x="498" y="286" on="0"/>
        <pt x="492" y="286" on="1"/>
        <pt x="366" y="286" on="1"/>
      </contour>
      <contour>
        <pt x="340" y="471" on="1"/>
        <pt x="342" y="480" on="0"/>
        <pt x="342" y="501" on="0"/>
        <pt x="342" y="509" on="1"/>
        <pt x="342" y="518" on="0"/>
        <pt x="340" y="537" on="0"/>
        <pt x="331" y="552" on="0"/>
        <pt x="310" y="561" on="0"/>
        <pt x="291" y="561" on="1"/>
        <pt x="255" y="561" on="0"/>
        <pt x="211" y="546" on="0"/>
        <pt x="183" y="513" on="0"/>
        <pt x="166" y="460" on="0"/>
        <pt x="157" y="422" on="1"/>
        <pt x="154" y="410" on="0"/>
        <pt x="141" y="337" on="0"/>
        <pt x="126" y="247" on="0"/>
        <pt x="115" y="158" on="0"/>
        <pt x="115" y="131" on="1"/>
        <pt x="115" y="117" on="0"/>
        <pt x="119" y="88" on="0"/>
        <pt x="137" y="65" on="0"/>
        <pt x="174" y="50" on="0"/>
        <pt x="207" y="50" on="1"/>
        <pt x="221" y="50" on="0"/>
        <pt x="245" y="56" on="0"/>
        <pt x="265" y="77" on="0"/>
        <pt x="281" y="118" on="0"/>
        <pt x="287" y="152" on="1"/>
      </contour>
    </TTGlyph>
    <TTGlyph name="Oslash" xMin="84" yMin="-85" xMax="542" yMax="696">
      <contour>
        <pt x="193" y="-9" on="1"/>
        <pt x="187" y="-20" on="0"/>
        <pt x="182" y="-29" on="0"/>
        <pt x="179" y="-35" on="0"/>
        <pt x="176" y="-44" on="0"/>
        <pt x="171" y="-54" on="1"/>
        <pt x="163" y="-70" on="0"/>
        <pt x="151" y="-85" on="0"/>
        <pt x="138" y="-85" on="1"/>
        <pt x="130" y="-85" on="0"/>
        <pt x="105" y="-72" on="0"/>
        <pt x="105" y="-55" on="1"/>
        <pt x="105" y="-52" on="0"/>
        <pt x="111" y="-39" on="0"/>
        <pt x="119" y="-21" on="0"/>
        <pt x="128" y="-3" on="0"/>
        <pt x="132" y="5" on="1"/>
        <pt x="103" y="18" on="0"/>
        <pt x="84" y="69" on="0"/>
        <pt x="84" y="111" on="1"/>
        <pt x="84" y="136" on="0"/>
        <pt x="96" y="241" on="0"/>
        <pt x="116" y="362" on="0"/>
        <pt x="142" y="481" on="0"/>
        <pt x="156" y="520" on="1"/>
        <pt x="169" y="555" on="0"/>
        <pt x="206" y="595" on="0"/>
        <pt x="257" y="616" on="0"/>
        <pt x="323" y="622" on="0"/>
        <pt x="365" y="622" on="1"/>
        <pt x="384" y="622" on="0"/>
        <pt x="415" y="622" on="0"/>
        <pt x="434" y="620" on="1"/>
        <pt x="450" y="657" on="0"/>
        <pt x="471" y="696" on="0"/>
        <pt x="488" y="696" on="1"/>
        <pt x="501" y="696" on="0"/>
        <pt x="520" y="679" on="0"/>
        <pt x="520" y="666" on="1"/>
        <pt x="520" y="659" on="0"/>
        <pt x="502" y="621" on="0"/>
        <pt x="494" y="606" on="1"/>
        <pt x="519" y="595" on="0"/>
        <pt x="542" y="548" on="0"/>
        <pt x="542" y="500" on="1"/>
        <pt x="542" y="482" on="0"/>
        <pt x="536" y="423" on="0"/>
        <pt x="527" y="350" on="0"/>
        <pt x="514" y="270" on="0"/>
        <pt x="499" y="195" on="0"/>
        <pt x="483" y="128" on="0"/>
        <pt x="475" y="105" on="1"/>
        <pt x="462" y="67" on="0"/>
        <pt x="428" y="21" on="0"/>
        <pt x="378" y="-3" on="0"/>
        <pt x="309" y="-11" on="0"/>
        <pt x="260" y="-11" on="1"/>
        <pt x="235" y="-11" on="0"/>
        <pt x="211" y="-11" on="0"/>
      </contour>
      <contour>
        <pt x="404" y="560" on="1"/>
        <pt x="395" y="561" on="0"/>
        <pt x="366" y="561" on="0"/>
        <pt x="356" y="561" on="1"/>
        <pt x="318" y="561" on="0"/>
        <pt x="266" y="554" on="0"/>
        <pt x="229" y="532" on="0"/>
        <pt x="204" y="489" on="0"/>
        <pt x="193" y="454" on="1"/>
        <pt x="189" y="439" on="0"/>
        <pt x="178" y="392" on="0"/>
        <pt x="167" y="335" on="0"/>
        <pt x="157" y="272" on="0"/>
        <pt x="149" y="213" on="0"/>
        <pt x="144" y="162" on="0"/>
        <pt x="144" y="144" on="1"/>
        <pt x="144" y="127" on="0"/>
        <pt x="149" y="86" on="0"/>
        <pt x="164" y="72" on="1"/>
      </contour>
      <contour>
        <pt x="222" y="51" on="1"/>
        <pt x="231" y="50" on="0"/>
        <pt x="260" y="50" on="0"/>
        <pt x="270" y="50" on="1"/>
        <pt x="309" y="50" on="0"/>
        <pt x="362" y="58" on="0"/>
        <pt x="398" y="80" on="0"/>
        <pt x="421" y="119" on="0"/>
        <pt x="431" y="151" on="1"/>
        <pt x="438" y="174" on="0"/>
        <pt x="455" y="259" on="0"/>
        <pt x="471" y="354" on="0"/>
        <pt x="482" y="442" on="0"/>
        <pt x="482" y="467" on="1"/>
        <pt x="482" y="488" on="0"/>
        <pt x="476" y="527" on="0"/>
        <pt x="461" y="539" on="1"/>
      </contour>
    </TTGlyph>
    <TTGlyph name="P" xMin="31" yMin="0" xMax="554" yMax="611">
      <contour>
        <pt x="177" y="61" on="1"/>
        <pt x="202" y="61" on="1"/>
        <pt x="207" y="61" on="0"/>
        <pt x="221" y="60" on="0"/>
        <pt x="233" y="55" on="0"/>
        <pt x="242" y="43" on="0"/>
        <pt x="242" y="32" on="1"/>
        <pt x="242" y="20" on="0"/>
        <pt x="234" y="7" on="0"/>
        <pt x="221" y="1" on="0"/>
        <pt x="207" y="0" on="0"/>
        <pt x="201" y="0" on="1"/>
        <pt x="71" y="0" on="1"/>
        <pt x="66" y="0" on="0"/>
        <pt x="52" y="1" on="0"/>
        <pt x="40" y="6" on="0"/>
        <pt x="31" y="18" on="0"/>
        <pt x="31" y="29" on="1"/>
        <pt x="31" y="41" on="0"/>
        <pt x="40" y="54" on="0"/>
        <pt x="52" y="60" on="0"/>
        <pt x="66" y="61" on="0"/>
        <pt x="72" y="61" on="1"/>
        <pt x="107" y="61" on="1"/>
        <pt x="188" y="550" on="1"/>
        <pt x="163" y="550" on="1"/>
        <pt x="158" y="550" on="0"/>
        <pt x="144" y="551" on="0"/>
        <pt x="132" y="556" on="0"/>
        <pt x="123" y="568" on="0"/>
        <pt x="123" y="579" on="1"/>
        <pt x="123" y="591" on="0"/>
        <pt x="131" y="604" on="0"/>
        <pt x="144" y="610" on="0"/>
        <pt x="158" y="611" on="0"/>
        <pt x="164" y="611" on="1"/>
        <pt x="392" y="611" on="1"/>
        <pt x="433" y="611" on="0"/>
        <pt x="494" y="584" on="0"/>
        <pt x="534" y="541" on="0"/>
        <pt x="554" y="486" on="0"/>
        <pt x="554" y="457" on="1"/>
        <pt x="554" y="420" on="0"/>
        <pt x="521" y="344" on="0"/>
        <pt x="462" y="283" on="0"/>
        <pt x="380" y="245" on="0"/>
        <pt x="331" y="245" on="1"/>
        <pt x="207" y="245" on="1"/>
      </contour>
      <contour>
        <pt x="218" y="306" on="1"/>
        <pt x="323" y="306" on="1"/>
        <pt x="361" y="306" on="0"/>
        <pt x="421" y="332" on="0"/>
        <pt x="462" y="373" on="0"/>
        <pt x="484" y="422" on="0"/>
        <pt x="484" y="446" on="1"/>
        <pt x="484" y="461" on="0"/>
        <pt x="473" y="497" on="0"/>
        <pt x="445" y="529" on="0"/>
        <pt x="398" y="550" on="0"/>
        <pt x="363" y="550" on="1"/>
        <pt x="258" y="550" on="1"/>
      </contour>
    </TTGlyph>
    <TTGlyph name="Phi" xMin="89" yMin="0" xMax="536" yMax="611">
      <contour>
        <pt x="308" y="61" on="1"/>
        <pt x="344" y="61" on="1"/>
        <pt x="349" y="61" on="0"/>
        <pt x="363" y="60" on="0"/>
        <pt x="375" y="55" on="0"/>
        <pt x="384" y="43" on="0"/>
        <pt x="384" y="32" on="1"/>
        <pt x="384" y="20" on="0"/>
        <pt x="375" y="7" on="0"/>
        <pt x="363" y="1" on="0"/>
        <pt x="349" y="0" on="0"/>
        <pt x="343" y="0" on="1"/>
        <pt x="191" y="0" on="1"/>
        <pt x="186" y="0" on="0"/>
        <pt x="172" y="1" on="0"/>
        <pt x="160" y="6" on="0"/>
        <pt x="151" y="18" on="0"/>
        <pt x="151" y="28" on="1"/>
        <pt x="151" y="40" on="0"/>
        <pt x="160" y="54" on="0"/>
        <pt x="172" y="60" on="0"/>
        <pt x="186" y="61" on="0"/>
        <pt x="192" y="61" on="1"/>
        <pt x="238" y="61" on="1"/>
        <pt x="253" y="155" on="1"/>
        <pt x="218" y="158" on="0"/>
        <pt x="158" y="181" on="0"/>
        <pt x="114" y="217" on="0"/>
        <pt x="89" y="263" on="0"/>
        <pt x="89" y="289" on="1"/>
        <pt x="89" y="317" on="0"/>
        <pt x="120" y="372" on="0"/>
        <pt x="177" y="419" on="0"/>
        <pt x="256" y="451" on="0"/>
        <pt x="304" y="456" on="1"/>
        <pt x="319" y="550" on="1"/>
        <pt x="283" y="550" on="1"/>
        <pt x="278" y="550" on="0"/>
        <pt x="264" y="551" on="0"/>
        <pt x="252" y="556" on="0"/>
        <pt x="243" y="568" on="0"/>
        <pt x="243" y="579" on="1"/>
        <pt x="243" y="591" on="0"/>
        <pt x="251" y="604" on="0"/>
        <pt x="264" y="610" on="0"/>
        <pt x="278" y="611" on="0"/>
        <pt x="284" y="611" on="1"/>
        <pt x="435" y="611" on="1"/>
        <pt x="440" y="611" on="0"/>
        <pt x="454" y="610" on="0"/>
        <pt x="467" y="605" on="0"/>
        <pt x="476" y="594" on="0"/>
        <pt x="476" y="583" on="1"/>
        <pt x="476" y="571" on="0"/>
        <pt x="467" y="557" on="0"/>
        <pt x="455" y="551" on="0"/>
        <pt x="441" y="550" on="0"/>
        <pt x="435" y="550" on="1"/>
        <pt x="389" y="550" on="1"/>
        <pt x="374" y="456" on="1"/>
        <pt x="408" y="452" on="0"/>
        <pt x="467" y="430" on="0"/>
        <pt x="511" y="395" on="0"/>
        <pt x="536" y="349" on="0"/>
        <pt x="536" y="322" on="1"/>
        <pt x="536" y="292" on="0"/>
        <pt x="502" y="235" on="0"/>
        <pt x="444" y="190" on="0"/>
        <pt x="367" y="160" on="0"/>
        <pt x="323" y="155" on="1"/>
      </contour>
      <contour>
        <pt x="293" y="395" on="1"/>
        <pt x="265" y="391" on="0"/>
        <pt x="216" y="373" on="0"/>
        <pt x="180" y="346" on="0"/>
        <pt x="159" y="314" on="0"/>
        <pt x="159" y="297" on="1"/>
        <pt x="159" y="281" on="0"/>
        <pt x="176" y="254" on="0"/>
        <pt x="205" y="233" on="0"/>
        <pt x="242" y="219" on="0"/>
        <pt x="263" y="216" on="1"/>
      </contour>
      <contour>
        <pt x="334" y="216" on="1"/>
        <pt x="361" y="220" on="0"/>
        <pt x="410" y="238" on="0"/>
        <pt x="446" y="265" on="0"/>
        <pt x="467" y="297" on="0"/>
        <pt x="467" y="314" on="1"/>
        <pt x="467" y="332" on="0"/>
        <pt x="447" y="360" on="0"/>
        <pt x="417" y="380" on="0"/>
        <pt x="380" y="393" on="0"/>
        <pt x="363" y="395" on="1"/>
      </contour>
    </TTGlyph>
    <TTGlyph name="Pi" xMin="26" yMin="0" xMax="600" yMax="611">
      <contour>
        <pt x="448" y="61" on="1"/>
        <pt x="467" y="61" on="1"/>
        <pt x="472" y="61" on="0"/>
        <pt x="486" y="60" on="0"/>
        <pt x="499" y="55" on="0"/>
        <pt x="508" y="44" on="0"/>
        <pt x="508" y="33" on="1"/>
        <pt x="508" y="21" on="0"/>
        <pt x="499" y="7" on="0"/>
        <pt x="487" y="1" on="0"/>
        <pt x="473" y="0" on="0"/>
        <pt x="467" y="0" on="1"/>
        <pt x="348" y="0" on="1"/>
        <pt x="343" y="0" on="0"/>
        <pt x="329" y="1" on="0"/>
        <pt x="316" y="6" on="0"/>
        <pt x="307" y="18" on="0"/>
        <pt x="307" y="28" on="1"/>
        <pt x="307" y="40" on="0"/>
        <pt x="316" y="54" on="0"/>
        <pt x="328" y="60" on="0"/>
        <pt x="343" y="61" on="0"/>
        <pt x="349" y="61" on="1"/>
        <pt x="378" y="61" on="1"/>
        <pt x="459" y="550" on="1"/>
        <pt x="248" y="550" on="1"/>
        <pt x="167" y="61" on="1"/>
        <pt x="186" y="61" on="1"/>
        <pt x="191" y="61" on="0"/>
        <pt x="205" y="60" on="0"/>
        <pt x="218" y="55" on="0"/>
        <pt x="227" y="44" on="0"/>
        <pt x="227" y="33" on="1"/>
        <pt x="227" y="21" on="0"/>
        <pt x="218" y="7" on="0"/>
        <pt x="206" y="1" on="0"/>
        <pt x="192" y="0" on="0"/>
        <pt x="186" y="0" on="1"/>
        <pt x="67" y="0" on="1"/>
        <pt x="62" y="0" on="0"/>
        <pt x="48" y="1" on="0"/>
        <pt x="35" y="6" on="0"/>
        <pt x="26" y="18" on="0"/>
        <pt x="26" y="28" on="1"/>
        <pt x="26" y="40" on="0"/>
        <pt x="35" y="54" on="0"/>
        <pt x="47" y="60" on="0"/>
        <pt x="62" y="61" on="0"/>
        <pt x="68" y="61" on="1"/>
        <pt x="97" y="61" on="1"/>
        <pt x="178" y="550" on="1"/>
        <pt x="158" y="550" on="1"/>
        <pt x="153" y="550" on="0"/>
        <pt x="139" y="551" on="0"/>
        <pt x="127" y="556" on="0"/>
        <pt x="118" y="568" on="0"/>
        <pt x="118" y="579" on="1"/>
        <pt x="118" y="591" on="0"/>
        <pt x="127" y="604" on="0"/>
        <pt x="140" y="610" on="0"/>
        <pt x="154" y="611" on="0"/>
        <pt x="159" y="611" on="1"/>
        <pt x="559" y="611" on="1"/>
        <pt x="564" y="611" on="0"/>
        <pt x="578" y="610" on="0"/>
        <pt x="591" y="605" on="0"/>
        <pt x="600" y="594" on="0"/>
        <pt x="600" y="583" on="1"/>
        <pt x="600" y="571" on="0"/>
        <pt x="591" y="557" on="0"/>
        <pt x="578" y="551" on="0"/>
        <pt x="564" y="550" on="0"/>
        <pt x="558" y="550" on="1"/>
        <pt x="529" y="550" on="1"/>
      </contour>
    </TTGlyph>
    <TTGlyph name="Psi" xMin="113" yMin="0" xMax="562" yMax="611">
      <contour>
        <pt x="334" y="221" on="1"/>
        <pt x="359" y="229" on="0"/>
        <pt x="395" y="259" on="0"/>
        <pt x="419" y="298" on="0"/>
        <pt x="434" y="344" on="0"/>
        <pt x="438" y="366" on="1"/>
        <pt x="441" y="386" on="0"/>
        <pt x="451" y="427" on="0"/>
        <pt x="470" y="461" on="0"/>
        <pt x="501" y="483" on="0"/>
        <pt x="526" y="483" on="1"/>
        <pt x="529" y="483" on="0"/>
        <pt x="541" y="482" on="0"/>
        <pt x="553" y="477" on="0"/>
        <pt x="562" y="466" on="0"/>
        <pt x="562" y="455" on="1"/>
        <pt x="562" y="434" on="0"/>
        <pt x="540" y="423" on="0"/>
        <pt x="532" y="421" on="1"/>
        <pt x="521" y="419" on="0"/>
        <pt x="510" y="377" on="0"/>
        <pt x="507" y="360" on="1"/>
        <pt x="494" y="296" on="0"/>
        <pt x="448" y="218" on="0"/>
        <pt x="396" y="176" on="0"/>
        <pt x="345" y="159" on="0"/>
        <pt x="327" y="155" on="1"/>
        <pt x="325" y="155" on="0"/>
        <pt x="323" y="150" on="0"/>
        <pt x="321" y="139" on="1"/>
        <pt x="308" y="61" on="1"/>
        <pt x="338" y="61" on="1"/>
        <pt x="343" y="61" on="0"/>
        <pt x="357" y="60" on="0"/>
        <pt x="369" y="55" on="0"/>
        <pt x="378" y="43" on="0"/>
        <pt x="378" y="32" on="1"/>
        <pt x="378" y="20" on="0"/>
        <pt x="370" y="7" on="0"/>
        <pt x="357" y="1" on="0"/>
        <pt x="343" y="0" on="0"/>
        <pt x="337" y="0" on="1"/>
        <pt x="197" y="0" on="1"/>
        <pt x="192" y="0" on="0"/>
        <pt x="178" y="1" on="0"/>
        <pt x="166" y="6" on="0"/>
        <pt x="157" y="18" on="0"/>
        <pt x="157" y="29" on="1"/>
        <pt x="157" y="41" on="0"/>
        <pt x="166" y="54" on="0"/>
        <pt x="178" y="60" on="0"/>
        <pt x="192" y="61" on="0"/>
        <pt x="198" y="61" on="1"/>
        <pt x="238" y="61" on="1"/>
        <pt x="254" y="157" on="1"/>
        <pt x="197" y="168" on="0"/>
        <pt x="135" y="248" on="0"/>
        <pt x="135" y="317" on="1"/>
        <pt x="135" y="331" on="0"/>
        <pt x="136" y="352" on="0"/>
        <pt x="139" y="372" on="1"/>
        <pt x="141" y="380" on="0"/>
        <pt x="143" y="396" on="0"/>
        <pt x="143" y="404" on="1"/>
        <pt x="143" y="408" on="0"/>
        <pt x="142" y="420" on="0"/>
        <pt x="141" y="422" on="1"/>
        <pt x="123" y="424" on="0"/>
        <pt x="113" y="445" on="0"/>
        <pt x="113" y="451" on="1"/>
        <pt x="113" y="463" on="0"/>
        <pt x="122" y="476" on="0"/>
        <pt x="134" y="482" on="0"/>
        <pt x="147" y="483" on="0"/>
        <pt x="150" y="483" on="1"/>
        <pt x="170" y="483" on="0"/>
        <pt x="195" y="470" on="0"/>
        <pt x="208" y="449" on="0"/>
        <pt x="213" y="423" on="0"/>
        <pt x="213" y="410" on="1"/>
        <pt x="213" y="402" on="0"/>
        <pt x="211" y="376" on="0"/>
        <pt x="209" y="368" on="1"/>
        <pt x="207" y="355" on="0"/>
        <pt x="204" y="340" on="0"/>
        <pt x="203" y="330" on="0"/>
        <pt x="203" y="321" on="0"/>
        <pt x="203" y="314" on="1"/>
        <pt x="203" y="281" on="0"/>
        <pt x="229" y="227" on="0"/>
        <pt x="263" y="218" on="1"/>
        <pt x="319" y="550" on="1"/>
        <pt x="289" y="550" on="1"/>
        <pt x="284" y="550" on="0"/>
        <pt x="270" y="551" on="0"/>
        <pt x="257" y="556" on="0"/>
        <pt x="248" y="568" on="0"/>
        <pt x="248" y="578" on="1"/>
        <pt x="248" y="590" on="0"/>
        <pt x="257" y="604" on="0"/>
        <pt x="270" y="610" on="0"/>
        <pt x="284" y="611" on="0"/>
        <pt x="290" y="611" on="1"/>
        <pt x="430" y="611" on="1"/>
        <pt x="435" y="611" on="0"/>
        <pt x="449" y="610" on="0"/>
        <pt x="461" y="605" on="0"/>
        <pt x="470" y="594" on="0"/>
        <pt x="470" y="583" on="1"/>
        <pt x="470" y="571" on="0"/>
        <pt x="461" y="557" on="0"/>
        <pt x="449" y="551" on="0"/>
        <pt x="435" y="550" on="0"/>
        <pt x="429" y="550" on="1"/>
        <pt x="389" y="550" on="1"/>
      </contour>
    </TTGlyph>
    <TTGlyph name="Q" xMin="84" yMin="-139" xMax="542" yMax="622">
      <contour>
        <pt x="391" y="-139" on="1"/>
        <pt x="379" y="-139" on="0"/>
        <pt x="363" y="-136" on="0"/>
        <pt x="358" y="-128" on="1"/>
        <pt x="356" y="-124" on="0"/>
        <pt x="345" y="-92" on="0"/>
        <pt x="331" y="-54" on="0"/>
        <pt x="319" y="-19" on="0"/>
        <pt x="316" y="-10" on="1"/>
        <pt x="312" y="-10" on="0"/>
        <pt x="297" y="-11" on="0"/>
        <pt x="281" y="-11" on="0"/>
        <pt x="265" y="-11" on="0"/>
        <pt x="260" y="-11" on="1"/>
        <pt x="208" y="-11" on="0"/>
        <pt x="140" y="-2" on="0"/>
        <pt x="100" y="24" on="0"/>
        <pt x="84" y="72" on="0"/>
        <pt x="84" y="111" on="1"/>
        <pt x="84" y="136" on="0"/>
        <pt x="96" y="241" on="0"/>
        <pt x="116" y="362" on="0"/>
        <pt x="142" y="481" on="0"/>
        <pt x="156" y="520" on="1"/>
        <pt x="169" y="555" on="0"/>
        <pt x="206" y="595" on="0"/>
        <pt x="257" y="616" on="0"/>
        <pt x="323" y="622" on="0"/>
        <pt x="365" y="622" on="1"/>
        <pt x="416" y="622" on="0"/>
        <pt x="484" y="614" on="0"/>
        <pt x="525" y="588" on="0"/>
        <pt x="542" y="540" on="0"/>
        <pt x="542" y="500" on="1"/>
        <pt x="542" y="472" on="0"/>
        <pt x="534" y="398" on="0"/>
        <pt x="523" y="322" on="0"/>
        <pt x="510" y="248" on="0"/>
        <pt x="504" y="218" on="1"/>
        <pt x="492" y="157" on="0"/>
        <pt x="468" y="81" on="0"/>
        <pt x="441" y="34" on="0"/>
        <pt x="410" y="12" on="0"/>
        <pt x="392" y="5" on="1"/>
        <pt x="403" y="-28" on="0"/>
        <pt x="421" y="-75" on="0"/>
        <pt x="425" y="-86" on="1"/>
        <pt x="433" y="-104" on="0"/>
        <pt x="435" y="-113" on="0"/>
        <pt x="435" y="-117" on="1"/>
        <pt x="435" y="-125" on="0"/>
        <pt x="428" y="-134" on="0"/>
        <pt x="417" y="-138" on="0"/>
        <pt x="405" y="-139" on="0"/>
        <pt x="400" y="-139" on="1"/>
      </contour>
      <contour>
        <pt x="294" y="50" on="1"/>
        <pt x="281" y="90" on="1"/>
        <pt x="279" y="94" on="0"/>
        <pt x="272" y="112" on="0"/>
        <pt x="266" y="131" on="0"/>
        <pt x="261" y="147" on="0"/>
        <pt x="261" y="149" on="1"/>
        <pt x="261" y="157" on="0"/>
        <pt x="269" y="166" on="0"/>
        <pt x="280" y="170" on="0"/>
        <pt x="292" y="171" on="0"/>
        <pt x="297" y="171" on="1"/>
        <pt x="307" y="171" on="1"/>
        <pt x="323" y="171" on="0"/>
        <pt x="330" y="166" on="0"/>
        <pt x="335" y="155" on="1"/>
        <pt x="368" y="68" on="1"/>
        <pt x="375" y="72" on="0"/>
        <pt x="392" y="87" on="0"/>
        <pt x="411" y="126" on="0"/>
        <pt x="432" y="200" on="0"/>
        <pt x="443" y="263" on="1"/>
        <pt x="448" y="289" on="0"/>
        <pt x="457" y="347" on="0"/>
        <pt x="465" y="404" on="0"/>
        <pt x="470" y="454" on="0"/>
        <pt x="470" y="473" on="1"/>
        <pt x="470" y="499" on="0"/>
        <pt x="461" y="532" on="0"/>
        <pt x="435" y="553" on="0"/>
        <pt x="390" y="561" on="0"/>
        <pt x="355" y="561" on="1"/>
        <pt x="317" y="561" on="0"/>
        <pt x="268" y="551" on="0"/>
        <pt x="235" y="526" on="0"/>
        <pt x="214" y="484" on="0"/>
        <pt x="205" y="452" on="1"/>
        <pt x="199" y="430" on="0"/>
        <pt x="182" y="346" on="0"/>
        <pt x="167" y="252" on="0"/>
        <pt x="156" y="165" on="0"/>
        <pt x="156" y="139" on="1"/>
        <pt x="156" y="118" on="0"/>
        <pt x="162" y="84" on="0"/>
        <pt x="184" y="62" on="0"/>
        <pt x="226" y="50" on="0"/>
        <pt x="262" y="50" on="1"/>
      </contour>
    </TTGlyph>
    <TTGlyph name="R" xMin="26" yMin="-11" xMax="538" yMax="611">
      <contour>
        <pt x="397" y="302" on="1"/>
        <pt x="425" y="277" on="0"/>
        <pt x="440" y="228" on="0"/>
        <pt x="440" y="211" on="1"/>
        <pt x="440" y="201" on="0"/>
        <pt x="434" y="165" on="0"/>
        <pt x="431" y="147" on="1"/>
        <pt x="428" y="128" on="0"/>
        <pt x="422" y="90" on="0"/>
        <pt x="422" y="81" on="1"/>
        <pt x="422" y="61" on="0"/>
        <pt x="431" y="50" on="0"/>
        <pt x="438" y="50" on="1"/>
        <pt x="446" y="50" on="0"/>
        <pt x="457" y="64" on="0"/>
        <pt x="465" y="81" on="0"/>
        <pt x="469" y="96" on="0"/>
        <pt x="469" y="96" on="1"/>
        <pt x="473" y="118" on="0"/>
        <pt x="493" y="125" on="0"/>
        <pt x="504" y="125" on="1"/>
        <pt x="507" y="125" on="0"/>
        <pt x="518" y="124" on="0"/>
        <pt x="529" y="119" on="0"/>
        <pt x="538" y="108" on="0"/>
        <pt x="538" y="97" on="1"/>
        <pt x="538" y="88" on="0"/>
        <pt x="527" y="52" on="0"/>
        <pt x="503" y="16" on="0"/>
        <pt x="465" y="-11" on="0"/>
        <pt x="438" y="-11" on="1"/>
        <pt x="424" y="-11" on="0"/>
        <pt x="394" y="-2" on="0"/>
        <pt x="370" y="21" on="0"/>
        <pt x="354" y="59" on="0"/>
        <pt x="354" y="87" on="1"/>
        <pt x="354" y="92" on="0"/>
        <pt x="354" y="102" on="0"/>
        <pt x="356" y="119" on="0"/>
        <pt x="361" y="148" on="0"/>
        <pt x="365" y="171" on="1"/>
        <pt x="366" y="177" on="0"/>
        <pt x="371" y="205" on="0"/>
        <pt x="371" y="210" on="1"/>
        <pt x="371" y="217" on="0"/>
        <pt x="366" y="239" on="0"/>
        <pt x="348" y="260" on="0"/>
        <pt x="314" y="275" on="0"/>
        <pt x="285" y="275" on="1"/>
        <pt x="202" y="275" on="1"/>
        <pt x="167" y="61" on="1"/>
        <pt x="186" y="61" on="1"/>
        <pt x="191" y="61" on="0"/>
        <pt x="205" y="60" on="0"/>
        <pt x="218" y="55" on="0"/>
        <pt x="227" y="44" on="0"/>
        <pt x="227" y="33" on="1"/>
        <pt x="227" y="21" on="0"/>
        <pt x="218" y="7" on="0"/>
        <pt x="206" y="1" on="0"/>
        <pt x="192" y="0" on="0"/>
        <pt x="186" y="0" on="1"/>
        <pt x="67" y="0" on="1"/>
        <pt x="62" y="0" on="0"/>
        <pt x="48" y="1" on="0"/>
        <pt x="35" y="6" on="0"/>
        <pt x="26" y="18" on="0"/>
        <pt x="26" y="28" on="1"/>
        <pt x="26" y="40" on="0"/>
        <pt x="35" y="54" on="0"/>
        <pt x="47" y="60" on="0"/>
        <pt x="62" y="61" on="0"/>
        <pt x="68" y="61" on="1"/>
        <pt x="97" y="61" on="1"/>
        <pt x="178" y="550" on="1"/>
        <pt x="158" y="550" on="1"/>
        <pt x="153" y="550" on="0"/>
        <pt x="139" y="551" on="0"/>
        <pt x="127" y="556" on="0"/>
        <pt x="118" y="568" on="0"/>
        <pt x="118" y="579" on="1"/>
        <pt x="118" y="591" on="0"/>
        <pt x="127" y="604" on="0"/>
        <pt x="140" y="610" on="0"/>
        <pt x="154" y="611" on="0"/>
        <pt x="159" y="611" on="1"/>
        <pt x="340" y="611" on="1"/>
        <pt x="382" y="611" on="0"/>
        <pt x="446" y="586" on="0"/>
        <pt x="488" y="545" on="0"/>
        <pt x="509" y="494" on="0"/>
        <pt x="509" y="467" on="1"/>
        <pt x="509" y="425" on="0"/>
        <pt x="456" y="334" on="0"/>
      </contour>
      <contour>
        <pt x="284" y="336" on="1"/>
        <pt x="321" y="336" on="0"/>
        <pt x="378" y="359" on="0"/>
        <pt x="418" y="394" on="0"/>
        <pt x="439" y="437" on="0"/>
        <pt x="439" y="457" on="1"/>
        <pt x="439" y="473" on="0"/>
        <pt x="426" y="506" on="0"/>
        <pt x="397" y="533" on="0"/>
        <pt x="352" y="550" on="0"/>
        <pt x="320" y="550" on="1"/>
        <pt x="248" y="550" on="1"/>
        <pt x="213" y="336" on="1"/>
      </contour>
    </TTGlyph>
    <TTGlyph name="S" xMin="55" yMin="-11" xMax="544" yMax="622">
      <contour>
        <pt x="519" y="440" on="1"/>
        <pt x="516" y="423" on="0"/>
        <pt x="502" y="408" on="0"/>
        <pt x="483" y="408" on="1"/>
        <pt x="470" y="408" on="0"/>
        <pt x="456" y="415" on="0"/>
        <pt x="450" y="426" on="0"/>
        <pt x="449" y="439" on="0"/>
        <pt x="449" y="445" on="1"/>
        <pt x="449" y="456" on="0"/>
        <pt x="445" y="495" on="0"/>
        <pt x="424" y="533" on="0"/>
        <pt x="377" y="561" on="0"/>
        <pt x="335" y="561" on="1"/>
        <pt x="306" y="561" on="0"/>
        <pt x="255" y="541" on="0"/>
        <pt x="216" y="508" on="0"/>
        <pt x="193" y="466" on="0"/>
        <pt x="193" y="444" on="1"/>
        <pt x="193" y="416" on="0"/>
        <pt x="225" y="379" on="0"/>
        <pt x="248" y="370" on="1"/>
        <pt x="250" y="369" on="0"/>
        <pt x="263" y="366" on="0"/>
        <pt x="279" y="362" on="0"/>
        <pt x="297" y="358" on="0"/>
        <pt x="304" y="356" on="1"/>
        <pt x="343" y="347" on="0"/>
        <pt x="392" y="334" on="0"/>
        <pt x="424" y="323" on="0"/>
        <pt x="444" y="310" on="0"/>
        <pt x="454" y="300" on="1"/>
        <pt x="459" y="295" on="0"/>
        <pt x="475" y="277" on="0"/>
        <pt x="491" y="249" on="0"/>
        <pt x="502" y="212" on="0"/>
        <pt x="502" y="188" on="1"/>
        <pt x="502" y="154" on="0"/>
        <pt x="471" y="83" on="0"/>
        <pt x="415" y="26" on="0"/>
        <pt x="335" y="-11" on="0"/>
        <pt x="287" y="-11" on="1"/>
        <pt x="268" y="-11" on="0"/>
        <pt x="225" y="-6" on="0"/>
        <pt x="183" y="4" on="0"/>
        <pt x="144" y="23" on="0"/>
        <pt x="128" y="36" on="1"/>
        <pt x="114" y="7" on="0"/>
        <pt x="100" y="-11" on="0"/>
        <pt x="85" y="-11" on="1"/>
        <pt x="71" y="-11" on="0"/>
        <pt x="55" y="5" on="0"/>
        <pt x="55" y="18" on="1"/>
        <pt x="55" y="19" on="0"/>
        <pt x="59" y="43" on="0"/>
        <pt x="65" y="80" on="0"/>
        <pt x="71" y="122" on="0"/>
        <pt x="78" y="159" on="0"/>
        <pt x="83" y="186" on="0"/>
        <pt x="84" y="188" on="1"/>
        <pt x="90" y="199" on="0"/>
        <pt x="109" y="203" on="0"/>
        <pt x="116" y="203" on="1"/>
        <pt x="127" y="203" on="0"/>
        <pt x="150" y="192" on="0"/>
        <pt x="150" y="174" on="1"/>
        <pt x="150" y="169" on="0"/>
        <pt x="148" y="158" on="0"/>
        <pt x="148" y="147" on="1"/>
        <pt x="148" y="111" on="0"/>
        <pt x="186" y="71" on="0"/>
        <pt x="235" y="53" on="0"/>
        <pt x="281" y="50" on="0"/>
        <pt x="288" y="50" on="1"/>
        <pt x="321" y="50" on="0"/>
        <pt x="376" y="74" on="0"/>
        <pt x="415" y="113" on="0"/>
        <pt x="436" y="160" on="0"/>
        <pt x="436" y="183" on="1"/>
        <pt x="436" y="212" on="0"/>
        <pt x="402" y="260" on="0"/>
        <pt x="367" y="269" on="1"/>
        <pt x="303" y="285" on="1"/>
        <pt x="274" y="292" on="0"/>
        <pt x="233" y="303" on="0"/>
        <pt x="203" y="313" on="0"/>
        <pt x="182" y="327" on="0"/>
        <pt x="171" y="337" on="1"/>
        <pt x="156" y="353" on="0"/>
        <pt x="127" y="399" on="0"/>
        <pt x="127" y="438" on="1"/>
        <pt x="127" y="474" on="0"/>
        <pt x="160" y="541" on="0"/>
        <pt x="217" y="592" on="0"/>
        <pt x="294" y="622" on="0"/>
        <pt x="337" y="622" on="1"/>
        <pt x="366" y="622" on="0"/>
        <pt x="441" y="603" on="0"/>
        <pt x="472" y="574" on="1"/>
        <pt x="483" y="595" on="0"/>
        <pt x="486" y="604" on="0"/>
        <pt x="486" y="605" on="1"/>
        <pt x="488" y="609" on="0"/>
        <pt x="500" y="622" on="0"/>
        <pt x="514" y="622" on="1"/>
        <pt x="529" y="622" on="0"/>
        <pt x="544" y="604" on="0"/>
        <pt x="544" y="593" on="1"/>
        <pt x="544" y="588" on="0"/>
        <pt x="542" y="580" on="1"/>
      </contour>
    </TTGlyph>
    <TTGlyph name="Sigma" xMin="45" yMin="0" xMax="581" yMax="611">
      <contour>
        <pt x="149" y="63" on="1"/>
        <pt x="425" y="63" on="1"/>
        <pt x="427" y="74" on="0"/>
        <pt x="429" y="87" on="0"/>
        <pt x="431" y="99" on="0"/>
        <pt x="433" y="113" on="0"/>
        <pt x="435" y="123" on="1"/>
        <pt x="438" y="139" on="0"/>
        <pt x="450" y="157" on="0"/>
        <pt x="471" y="157" on="1"/>
        <pt x="494" y="157" on="0"/>
        <pt x="506" y="137" on="0"/>
        <pt x="506" y="129" on="1"/>
        <pt x="506" y="127" on="0"/>
        <pt x="502" y="100" on="0"/>
        <pt x="500" y="90" on="1"/>
        <pt x="498" y="79" on="0"/>
        <pt x="495" y="59" on="0"/>
        <pt x="493" y="48" on="1"/>
        <pt x="490" y="33" on="0"/>
        <pt x="486" y="14" on="0"/>
        <pt x="477" y="4" on="0"/>
        <pt x="462" y="0" on="0"/>
        <pt x="448" y="0" on="1"/>
        <pt x="85" y="0" on="1"/>
        <pt x="80" y="0" on="0"/>
        <pt x="66" y="1" on="0"/>
        <pt x="54" y="6" on="0"/>
        <pt x="45" y="18" on="0"/>
        <pt x="45" y="28" on="1"/>
        <pt x="45" y="35" on="0"/>
        <pt x="49" y="42" on="0"/>
        <pt x="56" y="52" on="1"/>
        <pt x="248" y="309" on="1"/>
        <pt x="141" y="562" on="1"/>
        <pt x="136" y="573" on="0"/>
        <pt x="136" y="578" on="1"/>
        <pt x="136" y="590" on="0"/>
        <pt x="145" y="604" on="0"/>
        <pt x="158" y="610" on="0"/>
        <pt x="172" y="611" on="0"/>
        <pt x="178" y="611" on="1"/>
        <pt x="541" y="611" on="1"/>
        <pt x="546" y="611" on="0"/>
        <pt x="560" y="610" on="0"/>
        <pt x="572" y="605" on="0"/>
        <pt x="581" y="593" on="0"/>
        <pt x="581" y="582" on="1"/>
        <pt x="581" y="580" on="0"/>
        <pt x="580" y="573" on="0"/>
        <pt x="578" y="561" on="1"/>
        <pt x="566" y="492" on="1"/>
        <pt x="563" y="475" on="0"/>
        <pt x="553" y="456" on="0"/>
        <pt x="530" y="456" on="1"/>
        <pt x="519" y="456" on="0"/>
        <pt x="496" y="467" on="0"/>
        <pt x="496" y="485" on="1"/>
        <pt x="496" y="487" on="0"/>
        <pt x="498" y="501" on="0"/>
        <pt x="501" y="521" on="0"/>
        <pt x="505" y="542" on="0"/>
        <pt x="506" y="550" on="1"/>
        <pt x="222" y="550" on="1"/>
        <pt x="318" y="325" on="1"/>
        <pt x="322" y="317" on="0"/>
        <pt x="323" y="307" on="0"/>
        <pt x="323" y="306" on="1"/>
        <pt x="323" y="299" on="0"/>
        <pt x="320" y="292" on="0"/>
        <pt x="312" y="282" on="1"/>
      </contour>
    </TTGlyph>
    <TTGlyph name="T" xMin="107" yMin="0" xMax="595" yMax="611">
      <contour>
        <pt x="308" y="61" on="1"/>
        <pt x="354" y="61" on="1"/>
        <pt x="359" y="61" on="0"/>
        <pt x="373" y="60" on="0"/>
        <pt x="386" y="55" on="0"/>
        <pt x="395" y="43" on="0"/>
        <pt x="395" y="32" on="1"/>
        <pt x="395" y="20" on="0"/>
        <pt x="386" y="7" on="0"/>
        <pt x="373" y="1" on="0"/>
        <pt x="359" y="0" on="0"/>
        <pt x="354" y="0" on="1"/>
        <pt x="181" y="0" on="1"/>
        <pt x="176" y="0" on="0"/>
        <pt x="162" y="1" on="0"/>
        <pt x="149" y="6" on="0"/>
        <pt x="140" y="18" on="0"/>
        <pt x="140" y="29" on="1"/>
        <pt x="140" y="41" on="0"/>
        <pt x="149" y="54" on="0"/>
        <pt x="162" y="60" on="0"/>
        <pt x="176" y="61" on="0"/>
        <pt x="182" y="61" on="1"/>
        <pt x="238" y="61" on="1"/>
        <pt x="319" y="550" on="1"/>
        <pt x="187" y="550" on="1"/>
        <pt x="185" y="539" on="0"/>
        <pt x="179" y="499" on="0"/>
        <pt x="177" y="490" on="1"/>
        <pt x="175" y="476" on="0"/>
        <pt x="164" y="456" on="0"/>
        <pt x="141" y="456" on="1"/>
        <pt x="130" y="456" on="0"/>
        <pt x="107" y="467" on="0"/>
        <pt x="107" y="485" on="1"/>
        <pt x="107" y="487" on="0"/>
        <pt x="108" y="494" on="0"/>
        <pt x="110" y="507" on="1"/>
        <pt x="121" y="575" on="1"/>
        <pt x="126" y="602" on="0"/>
        <pt x="146" y="611" on="0"/>
        <pt x="164" y="611" on="1"/>
        <pt x="555" y="611" on="1"/>
        <pt x="560" y="611" on="0"/>
        <pt x="574" y="610" on="0"/>
        <pt x="586" y="605" on="0"/>
        <pt x="595" y="593" on="0"/>
        <pt x="595" y="582" on="1"/>
        <pt x="595" y="580" on="0"/>
        <pt x="594" y="573" on="0"/>
        <pt x="592" y="561" on="1"/>
        <pt x="580" y="492" on="1"/>
        <pt x="577" y="475" on="0"/>
        <pt x="567" y="456" on="0"/>
        <pt x="544" y="456" on="1"/>
        <pt x="533" y="456" on="0"/>
        <pt x="510" y="467" on="0"/>
        <pt x="510" y="485" on="1"/>
        <pt x="510" y="487" on="0"/>
        <pt x="512" y="501" on="0"/>
        <pt x="515" y="521" on="0"/>
        <pt x="519" y="542" on="0"/>
        <pt x="520" y="550" on="1"/>
        <pt x="389" y="550" on="1"/>
      </contour>
    </TTGlyph>
    <TTGlyph name="Theta" xMin="84" yMin="-11" xMax="542" yMax="622">
      <contour>
        <pt x="542" y="500" on="1"/>
        <pt x="542" y="482" on="0"/>
        <pt x="536" y="423" on="0"/>
        <pt x="527" y="350" on="0"/>
        <pt x="514" y="270" on="0"/>
        <pt x="499" y="195" on="0"/>
        <pt x="483" y="128" on="0"/>
        <pt x="475" y="105" on="1"/>
        <pt x="462" y="67" on="0"/>
        <pt x="428" y="21" on="0"/>
        <pt x="378" y="-3" on="0"/>
        <pt x="309" y="-11" on="0"/>
        <pt x="260" y="-11" on="1"/>
        <pt x="208" y="-11" on="0"/>
        <pt x="140" y="-2" on="0"/>
        <pt x="100" y="24" on="0"/>
        <pt x="84" y="72" on="0"/>
        <pt x="84" y="111" on="1"/>
        <pt x="84" y="136" on="0"/>
        <pt x="96" y="241" on="0"/>
        <pt x="116" y="362" on="0"/>
        <pt x="142" y="481" on="0"/>
        <pt x="156" y="520" on="1"/>
        <pt x="169" y="555" on="0"/>
        <pt x="206" y="595" on="0"/>
        <pt x="257" y="616" on="0"/>
        <pt x="323" y="622" on="0"/>
        <pt x="365" y="622" on="1"/>
        <pt x="416" y="622" on="0"/>
        <pt x="484" y="614" on="0"/>
        <pt x="525" y="588" on="0"/>
        <pt x="542" y="540" on="0"/>
      </contour>
      <contour>
        <pt x="271" y="50" on="1"/>
        <pt x="311" y="50" on="0"/>
        <pt x="362" y="61" on="0"/>
        <pt x="395" y="90" on="0"/>
        <pt x="416" y="139" on="0"/>
        <pt x="425" y="177" on="1"/>
        <pt x="430" y="198" on="0"/>
        <pt x="446" y="278" on="0"/>
        <pt x="460" y="366" on="0"/>
        <pt x="470" y="448" on="0"/>
        <pt x="470" y="473" on="1"/>
        <pt x="470" y="499" on="0"/>
        <pt x="461" y="532" on="0"/>
        <pt x="435" y="553" on="0"/>
        <pt x="390" y="561" on="0"/>
        <pt x="355" y="561" on="1"/>
        <pt x="317" y="561" on="0"/>
        <pt x="268" y="551" on="0"/>
        <pt x="235" y="526" on="0"/>
        <pt x="214" y="484" on="0"/>
        <pt x="205" y="452" on="1"/>
        <pt x="199" y="430" on="0"/>
        <pt x="182" y="346" on="0"/>
        <pt x="167" y="252" on="0"/>
        <pt x="156" y="165" on="0"/>
        <pt x="156" y="139" on="1"/>
        <pt x="156" y="114" on="0"/>
        <pt x="165" y="79" on="0"/>
        <pt x="190" y="59" on="0"/>
        <pt x="235" y="50" on="0"/>
      </contour>
      <contour>
        <pt x="347" y="339" on="1"/>
        <pt x="348" y="351" on="0"/>
        <pt x="357" y="363" on="0"/>
        <pt x="368" y="369" on="0"/>
        <pt x="380" y="370" on="0"/>
        <pt x="383" y="370" on="1"/>
        <pt x="387" y="370" on="0"/>
        <pt x="398" y="369" on="0"/>
        <pt x="409" y="363" on="0"/>
        <pt x="417" y="351" on="0"/>
        <pt x="417" y="341" on="1"/>
        <pt x="417" y="339" on="0"/>
        <pt x="414" y="322" on="0"/>
        <pt x="411" y="301" on="0"/>
        <pt x="408" y="282" on="0"/>
        <pt x="407" y="279" on="1"/>
        <pt x="404" y="261" on="0"/>
        <pt x="393" y="241" on="0"/>
        <pt x="370" y="241" on="1"/>
        <pt x="357" y="241" on="0"/>
        <pt x="338" y="252" on="0"/>
        <pt x="336" y="272" on="1"/>
        <pt x="279" y="272" on="1"/>
        <pt x="278" y="260" on="0"/>
        <pt x="269" y="248" on="0"/>
        <pt x="258" y="242" on="0"/>
        <pt x="246" y="241" on="0"/>
        <pt x="243" y="241" on="1"/>
        <pt x="233" y="241" on="0"/>
        <pt x="209" y="251" on="0"/>
        <pt x="209" y="270" on="1"/>
        <pt x="209" y="273" on="0"/>
        <pt x="212" y="290" on="0"/>
        <pt x="215" y="310" on="0"/>
        <pt x="218" y="328" on="0"/>
        <pt x="219" y="332" on="1"/>
        <pt x="222" y="350" on="0"/>
        <pt x="233" y="370" on="0"/>
        <pt x="256" y="370" on="1"/>
        <pt x="265" y="370" on="0"/>
        <pt x="288" y="362" on="0"/>
        <pt x="290" y="339" on="1"/>
      </contour>
    </TTGlyph>
    <TTGlyph name="U" xMin="101" yMin="-11" xMax="617" yMax="611">
      <contour>
        <pt x="482" y="194" on="1"/>
        <pt x="476" y="158" on="0"/>
        <pt x="438" y="84" on="0"/>
        <pt x="380" y="26" on="0"/>
        <pt x="307" y="-11" on="0"/>
        <pt x="265" y="-11" on="1"/>
        <pt x="233" y="-11" on="0"/>
        <pt x="175" y="14" on="0"/>
        <pt x="132" y="61" on="0"/>
        <pt x="106" y="127" on="0"/>
        <pt x="106" y="168" on="1"/>
        <pt x="106" y="179" on="0"/>
        <pt x="107" y="192" on="0"/>
        <pt x="109" y="206" on="1"/>
        <pt x="166" y="550" on="1"/>
        <pt x="141" y="550" on="1"/>
        <pt x="136" y="550" on="0"/>
        <pt x="122" y="551" on="0"/>
        <pt x="110" y="556" on="0"/>
        <pt x="101" y="568" on="0"/>
        <pt x="101" y="579" on="1"/>
        <pt x="101" y="591" on="0"/>
        <pt x="109" y="604" on="0"/>
        <pt x="122" y="610" on="0"/>
        <pt x="136" y="611" on="0"/>
        <pt x="142" y="611" on="1"/>
        <pt x="272" y="611" on="1"/>
        <pt x="277" y="611" on="0"/>
        <pt x="291" y="610" on="0"/>
        <pt x="303" y="605" on="0"/>
        <pt x="312" y="593" on="0"/>
        <pt x="312" y="582" on="1"/>
        <pt x="312" y="570" on="0"/>
        <pt x="303" y="557" on="0"/>
        <pt x="290" y="551" on="0"/>
        <pt x="276" y="550" on="0"/>
        <pt x="271" y="550" on="1"/>
        <pt x="236" y="550" on="1"/>
        <pt x="177" y="197" on="1"/>
        <pt x="175" y="188" on="0"/>
        <pt x="175" y="175" on="0"/>
        <pt x="175" y="167" on="1"/>
        <pt x="175" y="111" on="0"/>
        <pt x="228" y="50" on="0"/>
        <pt x="266" y="50" on="1"/>
        <pt x="290" y="50" on="0"/>
        <pt x="339" y="75" on="0"/>
        <pt x="379" y="118" on="0"/>
        <pt x="409" y="175" on="0"/>
        <pt x="414" y="206" on="1"/>
        <pt x="471" y="550" on="1"/>
        <pt x="446" y="550" on="1"/>
        <pt x="441" y="550" on="0"/>
        <pt x="427" y="551" on="0"/>
        <pt x="415" y="556" on="0"/>
        <pt x="406" y="568" on="0"/>
        <pt x="406" y="579" on="1"/>
        <pt x="406" y="591" on="0"/>
        <pt x="414" y="604" on="0"/>
        <pt x="427" y="610" on="0"/>
        <pt x="441" y="611" on="0"/>
        <pt x="447" y="611" on="1"/>
        <pt x="577" y="611" on="1"/>
        <pt x="582" y="611" on="0"/>
        <pt x="596" y="610" on="0"/>
        <pt x="608" y="605" on="0"/>
        <pt x="617" y="593" on="0"/>
        <pt x="617" y="582" on="1"/>
        <pt x="617" y="570" on="0"/>
        <pt x="608" y="557" on="0"/>
        <pt x="595" y="551" on="0"/>
        <pt x="581" y="550" on="0"/>
        <pt x="576" y="550" on="1"/>
        <pt x="541" y="550" on="1"/>
      </contour>
    </TTGlyph>
    <TTGlyph name="Upsilon" xMin="119" yMin="0" xMax="570" yMax="622">
      <contour>
        <pt x="277" y="300" on="1"/>
        <pt x="285" y="348" on="0"/>
        <pt x="294" y="403" on="0"/>
        <pt x="298" y="437" on="0"/>
        <pt x="299" y="460" on="0"/>
        <pt x="299" y="475" on="1"/>
        <pt x="299" y="486" on="0"/>
        <pt x="297" y="519" on="0"/>
        <pt x="287" y="549" on="0"/>
        <pt x="267" y="570" on="0"/>
        <pt x="249" y="570" on="1"/>
        <pt x="234" y="570" on="0"/>
        <pt x="214" y="554" on="0"/>
        <pt x="200" y="531" on="0"/>
        <pt x="192" y="506" on="0"/>
        <pt x="190" y="496" on="1"/>
        <pt x="188" y="486" on="0"/>
        <pt x="175" y="461" on="0"/>
        <pt x="150" y="461" on="1"/>
        <pt x="143" y="461" on="0"/>
        <pt x="119" y="467" on="0"/>
        <pt x="119" y="485" on="1"/>
        <pt x="119" y="498" on="0"/>
        <pt x="137" y="544" on="0"/>
        <pt x="171" y="589" on="0"/>
        <pt x="223" y="622" on="0"/>
        <pt x="257" y="622" on="1"/>
        <pt x="303" y="622" on="0"/>
        <pt x="342" y="554" on="0"/>
        <pt x="342" y="497" on="1"/>
        <pt x="342" y="481" on="1"/>
        <pt x="343" y="481" on="1"/>
        <pt x="351" y="507" on="0"/>
        <pt x="373" y="557" on="0"/>
        <pt x="404" y="597" on="0"/>
        <pt x="446" y="622" on="0"/>
        <pt x="474" y="622" on="1"/>
        <pt x="498" y="622" on="0"/>
        <pt x="534" y="603" on="0"/>
        <pt x="558" y="573" on="0"/>
        <pt x="570" y="534" on="0"/>
        <pt x="570" y="514" on="1"/>
        <pt x="570" y="485" on="0"/>
        <pt x="550" y="461" on="0"/>
        <pt x="529" y="461" on="1"/>
        <pt x="522" y="461" on="0"/>
        <pt x="498" y="467" on="0"/>
        <pt x="498" y="485" on="1"/>
        <pt x="498" y="489" on="0"/>
        <pt x="501" y="505" on="0"/>
        <pt x="501" y="517" on="1"/>
        <pt x="501" y="536" on="0"/>
        <pt x="488" y="570" on="0"/>
        <pt x="465" y="570" on="1"/>
        <pt x="443" y="570" on="0"/>
        <pt x="411" y="538" on="0"/>
        <pt x="387" y="489" on="0"/>
        <pt x="370" y="427" on="0"/>
        <pt x="364" y="397" on="1"/>
        <pt x="358" y="368" on="0"/>
        <pt x="343" y="282" on="0"/>
        <pt x="328" y="187" on="0"/>
        <pt x="313" y="96" on="0"/>
        <pt x="308" y="61" on="1"/>
        <pt x="338" y="61" on="1"/>
        <pt x="343" y="61" on="0"/>
        <pt x="357" y="60" on="0"/>
        <pt x="369" y="55" on="0"/>
        <pt x="378" y="43" on="0"/>
        <pt x="378" y="32" on="1"/>
        <pt x="378" y="20" on="0"/>
        <pt x="370" y="7" on="0"/>
        <pt x="357" y="1" on="0"/>
        <pt x="343" y="0" on="0"/>
        <pt x="337" y="0" on="1"/>
        <pt x="197" y="0" on="1"/>
        <pt x="192" y="0" on="0"/>
        <pt x="178" y="1" on="0"/>
        <pt x="166" y="6" on="0"/>
        <pt x="157" y="18" on="0"/>
        <pt x="157" y="29" on="1"/>
        <pt x="157" y="41" on="0"/>
        <pt x="166" y="54" on="0"/>
        <pt x="178" y="60" on="0"/>
        <pt x="192" y="61" on="0"/>
        <pt x="198" y="61" on="1"/>
        <pt x="238" y="61" on="1"/>
      </contour>
    </TTGlyph>
    <TTGlyph name="V" xMin="114" yMin="-8" xMax="603" yMax="611">
      <contour>
        <pt x="320" y="24" on="1"/>
        <pt x="310" y="0" on="0"/>
        <pt x="278" y="-8" on="0"/>
        <pt x="261" y="-8" on="1"/>
        <pt x="239" y="-8" on="0"/>
        <pt x="214" y="1" on="0"/>
        <pt x="212" y="29" on="1"/>
        <pt x="166" y="550" on="1"/>
        <pt x="146" y="550" on="0"/>
        <pt x="114" y="557" on="0"/>
        <pt x="114" y="578" on="1"/>
        <pt x="114" y="590" on="0"/>
        <pt x="123" y="604" on="0"/>
        <pt x="136" y="610" on="0"/>
        <pt x="150" y="611" on="0"/>
        <pt x="156" y="611" on="1"/>
        <pt x="259" y="611" on="1"/>
        <pt x="264" y="611" on="0"/>
        <pt x="278" y="610" on="0"/>
        <pt x="290" y="605" on="0"/>
        <pt x="299" y="593" on="0"/>
        <pt x="299" y="582" on="1"/>
        <pt x="299" y="570" on="0"/>
        <pt x="290" y="557" on="0"/>
        <pt x="278" y="551" on="0"/>
        <pt x="264" y="550" on="0"/>
        <pt x="258" y="550" on="1"/>
        <pt x="238" y="550" on="1"/>
        <pt x="266" y="208" on="1"/>
        <pt x="269" y="176" on="0"/>
        <pt x="271" y="132" on="0"/>
        <pt x="273" y="102" on="0"/>
        <pt x="273" y="81" on="0"/>
        <pt x="273" y="72" on="1"/>
        <pt x="274" y="72" on="1"/>
        <pt x="277" y="80" on="0"/>
        <pt x="295" y="126" on="0"/>
        <pt x="316" y="179" on="0"/>
        <pt x="335" y="227" on="0"/>
        <pt x="339" y="237" on="1"/>
        <pt x="470" y="550" on="1"/>
        <pt x="450" y="550" on="0"/>
        <pt x="418" y="557" on="0"/>
        <pt x="418" y="578" on="1"/>
        <pt x="418" y="590" on="0"/>
        <pt x="427" y="604" on="0"/>
        <pt x="440" y="610" on="0"/>
        <pt x="454" y="611" on="0"/>
        <pt x="460" y="611" on="1"/>
        <pt x="563" y="611" on="1"/>
        <pt x="568" y="611" on="0"/>
        <pt x="582" y="610" on="0"/>
        <pt x="594" y="605" on="0"/>
        <pt x="603" y="593" on="0"/>
        <pt x="603" y="582" on="1"/>
        <pt x="603" y="570" on="0"/>
        <pt x="594" y="557" on="0"/>
        <pt x="581" y="551" on="0"/>
        <pt x="567" y="550" on="0"/>
        <pt x="562" y="550" on="1"/>
        <pt x="541" y="550" on="1"/>
      </contour>
    </TTGlyph>
    <TTGlyph name="W" xMin="108" yMin="-8" xMax="610" yMax="611">
      <contour>
        <pt x="407" y="28" on="1"/>
        <pt x="403" y="16" on="0"/>
        <pt x="388" y="-8" on="0"/>
        <pt x="362" y="-8" on="1"/>
        <pt x="349" y="-8" on="0"/>
        <pt x="333" y="-2" on="0"/>
        <pt x="326" y="12" on="0"/>
        <pt x="323" y="37" on="0"/>
        <pt x="322" y="56" on="1"/>
        <pt x="320" y="84" on="0"/>
        <pt x="317" y="138" on="0"/>
        <pt x="315" y="166" on="1"/>
        <pt x="315" y="180" on="0"/>
        <pt x="313" y="212" on="0"/>
        <pt x="312" y="242" on="0"/>
        <pt x="311" y="267" on="0"/>
        <pt x="311" y="273" on="1"/>
        <pt x="311" y="291" on="1"/>
        <pt x="310" y="291" on="1"/>
        <pt x="307" y="282" on="0"/>
        <pt x="290" y="235" on="0"/>
        <pt x="267" y="174" on="0"/>
        <pt x="241" y="109" on="0"/>
        <pt x="220" y="53" on="0"/>
        <pt x="204" y="15" on="0"/>
        <pt x="203" y="13" on="1"/>
        <pt x="193" y="-3" on="0"/>
        <pt x="168" y="-8" on="0"/>
        <pt x="161" y="-8" on="1"/>
        <pt x="135" y="-8" on="0"/>
        <pt x="126" y="15" on="0"/>
        <pt x="126" y="29" on="1"/>
        <pt x="126" y="62" on="0"/>
        <pt x="129" y="130" on="0"/>
        <pt x="130" y="164" on="1"/>
        <pt x="131" y="198" on="0"/>
        <pt x="132" y="265" on="0"/>
        <pt x="134" y="299" on="1"/>
        <pt x="136" y="328" on="0"/>
        <pt x="136" y="389" on="0"/>
        <pt x="137" y="418" on="1"/>
        <pt x="138" y="447" on="0"/>
        <pt x="140" y="503" on="0"/>
        <pt x="140" y="532" on="1"/>
        <pt x="140" y="550" on="1"/>
        <pt x="129" y="551" on="0"/>
        <pt x="108" y="562" on="0"/>
        <pt x="108" y="579" on="1"/>
        <pt x="108" y="591" on="0"/>
        <pt x="117" y="604" on="0"/>
        <pt x="129" y="610" on="0"/>
        <pt x="143" y="611" on="0"/>
        <pt x="149" y="611" on="1"/>
        <pt x="228" y="611" on="1"/>
        <pt x="233" y="611" on="0"/>
        <pt x="247" y="610" on="0"/>
        <pt x="260" y="605" on="0"/>
        <pt x="269" y="594" on="0"/>
        <pt x="269" y="583" on="1"/>
        <pt x="269" y="571" on="0"/>
        <pt x="260" y="557" on="0"/>
        <pt x="247" y="551" on="0"/>
        <pt x="233" y="550" on="0"/>
        <pt x="227" y="550" on="1"/>
        <pt x="197" y="550" on="1"/>
        <pt x="196" y="541" on="0"/>
        <pt x="196" y="527" on="0"/>
        <pt x="196" y="519" on="1"/>
        <pt x="195" y="459" on="0"/>
        <pt x="191" y="341" on="0"/>
        <pt x="189" y="281" on="1"/>
        <pt x="188" y="247" on="0"/>
        <pt x="185" y="178" on="0"/>
        <pt x="182" y="121" on="0"/>
        <pt x="179" y="82" on="0"/>
        <pt x="179" y="79" on="1"/>
        <pt x="180" y="79" on="1"/>
        <pt x="183" y="92" on="0"/>
        <pt x="200" y="140" on="0"/>
        <pt x="221" y="198" on="0"/>
        <pt x="245" y="260" on="0"/>
        <pt x="265" y="311" on="0"/>
        <pt x="280" y="346" on="0"/>
        <pt x="282" y="349" on="1"/>
        <pt x="292" y="363" on="0"/>
        <pt x="316" y="367" on="0"/>
        <pt x="323" y="367" on="1"/>
        <pt x="337" y="367" on="0"/>
        <pt x="352" y="362" on="0"/>
        <pt x="359" y="346" on="0"/>
        <pt x="362" y="319" on="0"/>
        <pt x="363" y="296" on="1"/>
        <pt x="367" y="238" on="0"/>
        <pt x="371" y="149" on="0"/>
        <pt x="371" y="120" on="1"/>
        <pt x="371" y="116" on="0"/>
        <pt x="371" y="103" on="0"/>
        <pt x="370" y="90" on="0"/>
        <pt x="370" y="79" on="0"/>
        <pt x="370" y="77" on="1"/>
        <pt x="371" y="77" on="1"/>
        <pt x="411" y="220" on="1"/>
        <pt x="510" y="550" on="1"/>
        <pt x="489" y="550" on="1"/>
        <pt x="484" y="550" on="0"/>
        <pt x="470" y="551" on="0"/>
        <pt x="458" y="556" on="0"/>
        <pt x="449" y="568" on="0"/>
        <pt x="449" y="579" on="1"/>
        <pt x="449" y="591" on="0"/>
        <pt x="458" y="604" on="0"/>
        <pt x="471" y="610" on="0"/>
        <pt x="485" y="611" on="0"/>
        <pt x="490" y="611" on="1"/>
        <pt x="569" y="611" on="1"/>
        <pt x="574" y="611" on="0"/>
        <pt x="588" y="610" on="0"/>
        <pt x="601" y="605" on="0"/>
        <pt x="610" y="594" on="0"/>
        <pt x="610" y="583" on="1"/>
        <pt x="610" y="571" on="0"/>
        <pt x="601" y="557" on="0"/>
        <pt x="588" y="551" on="0"/>
        <pt x="573" y="550" on="0"/>
        <pt x="567" y="550" on="1"/>
      </contour>
      <contour>
        <pt x="178" y="71" on="1"/>
        <pt x="179" y="72" on="1"/>
        <pt x="178" y="72" on="1"/>
      </contour>
    </TTGlyph>
    <TTGlyph name="X" xMin="32" yMin="0" xMax="564" yMax="611">
      <contour>
        <pt x="345" y="326" on="1"/>
        <pt x="442" y="61" on="1"/>
        <pt x="461" y="61" on="1"/>
        <pt x="466" y="61" on="0"/>
        <pt x="480" y="60" on="0"/>
        <pt x="492" y="55" on="0"/>
        <pt x="501" y="43" on="0"/>
        <pt x="501" y="32" on="1"/>
        <pt x="501" y="20" on="0"/>
        <pt x="492" y="7" on="0"/>
        <pt x="480" y="1" on="0"/>
        <pt x="466" y="0" on="0"/>
        <pt x="460" y="0" on="1"/>
        <pt x="356" y="0" on="1"/>
        <pt x="351" y="0" on="0"/>
        <pt x="337" y="1" on="0"/>
        <pt x="324" y="6" on="0"/>
        <pt x="315" y="18" on="0"/>
        <pt x="315" y="28" on="1"/>
        <pt x="315" y="40" on="0"/>
        <pt x="324" y="54" on="0"/>
        <pt x="338" y="60" on="0"/>
        <pt x="356" y="61" on="0"/>
        <pt x="366" y="61" on="1"/>
        <pt x="299" y="255" on="1"/>
        <pt x="175" y="61" on="1"/>
        <pt x="181" y="61" on="0"/>
        <pt x="196" y="60" on="0"/>
        <pt x="209" y="55" on="0"/>
        <pt x="217" y="43" on="0"/>
        <pt x="217" y="32" on="1"/>
        <pt x="217" y="20" on="0"/>
        <pt x="209" y="7" on="0"/>
        <pt x="196" y="1" on="0"/>
        <pt x="182" y="0" on="0"/>
        <pt x="176" y="0" on="1"/>
        <pt x="72" y="0" on="1"/>
        <pt x="67" y="0" on="0"/>
        <pt x="53" y="1" on="0"/>
        <pt x="41" y="6" on="0"/>
        <pt x="32" y="18" on="0"/>
        <pt x="32" y="29" on="1"/>
        <pt x="32" y="41" on="0"/>
        <pt x="40" y="54" on="0"/>
        <pt x="53" y="60" on="0"/>
        <pt x="67" y="61" on="0"/>
        <pt x="73" y="61" on="1"/>
        <pt x="100" y="61" on="1"/>
        <pt x="276" y="325" on="1"/>
        <pt x="194" y="550" on="1"/>
        <pt x="175" y="550" on="1"/>
        <pt x="170" y="550" on="0"/>
        <pt x="156" y="551" on="0"/>
        <pt x="144" y="556" on="0"/>
        <pt x="135" y="568" on="0"/>
        <pt x="135" y="579" on="1"/>
        <pt x="135" y="591" on="0"/>
        <pt x="143" y="604" on="0"/>
        <pt x="156" y="610" on="0"/>
        <pt x="170" y="611" on="0"/>
        <pt x="176" y="611" on="1"/>
        <pt x="280" y="611" on="1"/>
        <pt x="285" y="611" on="0"/>
        <pt x="299" y="610" on="0"/>
        <pt x="312" y="605" on="0"/>
        <pt x="321" y="594" on="0"/>
        <pt x="321" y="583" on="1"/>
        <pt x="321" y="571" on="0"/>
        <pt x="312" y="557" on="0"/>
        <pt x="298" y="551" on="0"/>
        <pt x="280" y="550" on="0"/>
        <pt x="271" y="550" on="1"/>
        <pt x="324" y="404" on="1"/>
        <pt x="419" y="550" on="1"/>
        <pt x="414" y="550" on="0"/>
        <pt x="400" y="551" on="0"/>
        <pt x="387" y="556" on="0"/>
        <pt x="378" y="568" on="0"/>
        <pt x="378" y="579" on="1"/>
        <pt x="378" y="591" on="0"/>
        <pt x="387" y="604" on="0"/>
        <pt x="400" y="610" on="0"/>
        <pt x="414" y="611" on="0"/>
        <pt x="420" y="611" on="1"/>
        <pt x="523" y="611" on="1"/>
        <pt x="528" y="611" on="0"/>
        <pt x="542" y="610" on="0"/>
        <pt x="555" y="605" on="0"/>
        <pt x="564" y="593" on="0"/>
        <pt x="564" y="582" on="1"/>
        <pt x="564" y="570" on="0"/>
        <pt x="555" y="557" on="0"/>
        <pt x="542" y="551" on="0"/>
        <pt x="528" y="550" on="0"/>
        <pt x="523" y="550" on="1"/>
        <pt x="496" y="550" on="1"/>
      </contour>
    </TTGlyph>
    <TTGlyph name="Xi" xMin="38" yMin="0" xMax="584" yMax="611">
      <contour>
        <pt x="544" y="611" on="1"/>
        <pt x="549" y="611" on="0"/>
        <pt x="563" y="610" on="0"/>
        <pt x="575" y="605" on="0"/>
        <pt x="584" y="593" on="0"/>
        <pt x="584" y="582" on="1"/>
        <pt x="584" y="579" on="0"/>
        <pt x="582" y="564" on="0"/>
        <pt x="579" y="547" on="0"/>
        <pt x="576" y="533" on="0"/>
        <pt x="576" y="532" on="1"/>
        <pt x="571" y="515" on="0"/>
        <pt x="550" y="510" on="0"/>
        <pt x="542" y="510" on="1"/>
        <pt x="531" y="510" on="0"/>
        <pt x="508" y="521" on="0"/>
        <pt x="508" y="539" on="1"/>
        <pt x="509" y="552" on="1"/>
        <pt x="198" y="552" on="1"/>
        <pt x="198" y="536" on="0"/>
        <pt x="190" y="519" on="0"/>
        <pt x="178" y="511" on="0"/>
        <pt x="165" y="510" on="0"/>
        <pt x="161" y="510" on="1"/>
        <pt x="150" y="510" on="0"/>
        <pt x="127" y="521" on="0"/>
        <pt x="127" y="539" on="1"/>
        <pt x="127" y="542" on="0"/>
        <pt x="129" y="557" on="0"/>
        <pt x="132" y="574" on="0"/>
        <pt x="135" y="589" on="0"/>
        <pt x="135" y="591" on="1"/>
        <pt x="140" y="606" on="0"/>
        <pt x="163" y="611" on="0"/>
        <pt x="175" y="611" on="1"/>
      </contour>
      <contour>
        <pt x="431" y="59" on="1"/>
        <pt x="432" y="77" on="0"/>
        <pt x="441" y="96" on="0"/>
        <pt x="452" y="105" on="0"/>
        <pt x="464" y="106" on="0"/>
        <pt x="469" y="106" on="1"/>
        <pt x="472" y="106" on="0"/>
        <pt x="483" y="105" on="0"/>
        <pt x="495" y="100" on="0"/>
        <pt x="504" y="88" on="0"/>
        <pt x="504" y="77" on="1"/>
        <pt x="504" y="75" on="0"/>
        <pt x="502" y="60" on="0"/>
        <pt x="499" y="43" on="0"/>
        <pt x="496" y="27" on="0"/>
        <pt x="496" y="24" on="1"/>
        <pt x="491" y="6" on="0"/>
        <pt x="468" y="0" on="0"/>
        <pt x="455" y="0" on="1"/>
        <pt x="78" y="0" on="1"/>
        <pt x="73" y="0" on="0"/>
        <pt x="59" y="1" on="0"/>
        <pt x="47" y="6" on="0"/>
        <pt x="38" y="18" on="0"/>
        <pt x="38" y="29" on="1"/>
        <pt x="38" y="32" on="0"/>
        <pt x="40" y="46" on="0"/>
        <pt x="43" y="63" on="0"/>
        <pt x="45" y="78" on="0"/>
        <pt x="46" y="81" on="1"/>
        <pt x="51" y="100" on="0"/>
        <pt x="72" y="106" on="0"/>
        <pt x="81" y="106" on="1"/>
        <pt x="85" y="106" on="0"/>
        <pt x="97" y="105" on="0"/>
        <pt x="107" y="99" on="0"/>
        <pt x="115" y="87" on="0"/>
        <pt x="115" y="77" on="1"/>
        <pt x="115" y="73" on="0"/>
        <pt x="113" y="62" on="0"/>
        <pt x="112" y="59" on="1"/>
      </contour>
      <contour>
        <pt x="403" y="347" on="1"/>
        <pt x="403" y="360" on="0"/>
        <pt x="413" y="374" on="0"/>
        <pt x="425" y="381" on="0"/>
        <pt x="437" y="382" on="0"/>
        <pt x="440" y="382" on="1"/>
        <pt x="455" y="382" on="0"/>
        <pt x="474" y="369" on="0"/>
        <pt x="474" y="354" on="1"/>
        <pt x="474" y="351" on="0"/>
        <pt x="471" y="334" on="0"/>
        <pt x="468" y="313" on="0"/>
        <pt x="465" y="294" on="0"/>
        <pt x="464" y="290" on="1"/>
        <pt x="461" y="272" on="0"/>
        <pt x="450" y="253" on="0"/>
        <pt x="427" y="253" on="1"/>
        <pt x="409" y="253" on="0"/>
        <pt x="393" y="268" on="0"/>
        <pt x="393" y="288" on="1"/>
        <pt x="226" y="288" on="1"/>
        <pt x="226" y="275" on="0"/>
        <pt x="217" y="261" on="0"/>
        <pt x="206" y="254" on="0"/>
        <pt x="194" y="253" on="0"/>
        <pt x="190" y="253" on="1"/>
        <pt x="187" y="253" on="0"/>
        <pt x="176" y="254" on="0"/>
        <pt x="164" y="259" on="0"/>
        <pt x="156" y="271" on="0"/>
        <pt x="156" y="281" on="1"/>
        <pt x="156" y="284" on="0"/>
        <pt x="159" y="301" on="0"/>
        <pt x="162" y="322" on="0"/>
        <pt x="165" y="341" on="0"/>
        <pt x="166" y="345" on="1"/>
        <pt x="169" y="363" on="0"/>
        <pt x="180" y="382" on="0"/>
        <pt x="203" y="382" on="1"/>
        <pt x="228" y="382" on="0"/>
        <pt x="236" y="359" on="0"/>
        <pt x="236" y="347" on="1"/>
      </contour>
    </TTGlyph>
    <TTGlyph name="Y" xMin="115" yMin="0" xMax="603" yMax="611">
      <contour>
        <pt x="338" y="244" on="1"/>
        <pt x="307" y="61" on="1"/>
        <pt x="327" y="61" on="1"/>
        <pt x="332" y="61" on="0"/>
        <pt x="346" y="60" on="0"/>
        <pt x="359" y="55" on="0"/>
        <pt x="368" y="44" on="0"/>
        <pt x="368" y="33" on="1"/>
        <pt x="368" y="21" on="0"/>
        <pt x="359" y="7" on="0"/>
        <pt x="347" y="1" on="0"/>
        <pt x="333" y="0" on="0"/>
        <pt x="327" y="0" on="1"/>
        <pt x="208" y="0" on="1"/>
        <pt x="203" y="0" on="0"/>
        <pt x="189" y="1" on="0"/>
        <pt x="176" y="6" on="0"/>
        <pt x="167" y="18" on="0"/>
        <pt x="167" y="28" on="1"/>
        <pt x="167" y="40" on="0"/>
        <pt x="176" y="54" on="0"/>
        <pt x="188" y="60" on="0"/>
        <pt x="203" y="61" on="0"/>
        <pt x="209" y="61" on="1"/>
        <pt x="238" y="61" on="1"/>
        <pt x="269" y="244" on="1"/>
        <pt x="172" y="550" on="1"/>
        <pt x="155" y="550" on="1"/>
        <pt x="150" y="550" on="0"/>
        <pt x="136" y="551" on="0"/>
        <pt x="124" y="556" on="0"/>
        <pt x="115" y="568" on="0"/>
        <pt x="115" y="579" on="1"/>
        <pt x="115" y="591" on="0"/>
        <pt x="124" y="604" on="0"/>
        <pt x="137" y="610" on="0"/>
        <pt x="151" y="611" on="0"/>
        <pt x="156" y="611" on="1"/>
        <pt x="260" y="611" on="1"/>
        <pt x="265" y="611" on="0"/>
        <pt x="279" y="610" on="0"/>
        <pt x="292" y="605" on="0"/>
        <pt x="301" y="594" on="0"/>
        <pt x="301" y="583" on="1"/>
        <pt x="301" y="558" on="0"/>
        <pt x="270" y="550" on="0"/>
        <pt x="249" y="550" on="1"/>
        <pt x="284" y="437" on="1"/>
        <pt x="294" y="403" on="0"/>
        <pt x="305" y="362" on="0"/>
        <pt x="311" y="338" on="0"/>
        <pt x="313" y="324" on="0"/>
        <pt x="314" y="316" on="1"/>
        <pt x="315" y="316" on="1"/>
        <pt x="321" y="330" on="0"/>
        <pt x="358" y="392" on="0"/>
        <pt x="387" y="439" on="1"/>
        <pt x="458" y="550" on="1"/>
        <pt x="452" y="550" on="0"/>
        <pt x="438" y="551" on="0"/>
        <pt x="426" y="556" on="0"/>
        <pt x="417" y="568" on="0"/>
        <pt x="417" y="579" on="1"/>
        <pt x="417" y="591" on="0"/>
        <pt x="426" y="604" on="0"/>
        <pt x="438" y="610" on="0"/>
        <pt x="452" y="611" on="0"/>
        <pt x="458" y="611" on="1"/>
        <pt x="562" y="611" on="1"/>
        <pt x="567" y="611" on="0"/>
        <pt x="581" y="610" on="0"/>
        <pt x="594" y="605" on="0"/>
        <pt x="603" y="594" on="0"/>
        <pt x="603" y="583" on="1"/>
        <pt x="603" y="571" on="0"/>
        <pt x="594" y="557" on="0"/>
        <pt x="581" y="551" on="0"/>
        <pt x="567" y="550" on="0"/>
        <pt x="561" y="550" on="1"/>
        <pt x="535" y="550" on="1"/>
      </contour>
    </TTGlyph>
    <TTGlyph name="Z" xMin="52" yMin="0" xMax="573" yMax="611">
      <contour>
        <pt x="148" y="61" on="1"/>
        <pt x="422" y="61" on="1"/>
        <pt x="424" y="77" on="0"/>
        <pt x="429" y="108" on="0"/>
        <pt x="434" y="133" on="1"/>
        <pt x="437" y="154" on="0"/>
        <pt x="448" y="174" on="0"/>
        <pt x="471" y="174" on="1"/>
        <pt x="482" y="174" on="0"/>
        <pt x="505" y="163" on="0"/>
        <pt x="505" y="145" on="1"/>
        <pt x="505" y="142" on="0"/>
        <pt x="501" y="117" on="0"/>
        <pt x="496" y="87" on="0"/>
        <pt x="492" y="59" on="0"/>
        <pt x="491" y="54" on="1"/>
        <pt x="488" y="36" on="0"/>
        <pt x="483" y="14" on="0"/>
        <pt x="474" y="3" on="0"/>
        <pt x="459" y="0" on="0"/>
        <pt x="445" y="0" on="1"/>
        <pt x="89" y="0" on="1"/>
        <pt x="78" y="0" on="0"/>
        <pt x="52" y="6" on="0"/>
        <pt x="52" y="24" on="1"/>
        <pt x="52" y="31" on="0"/>
        <pt x="58" y="52" on="0"/>
        <pt x="67" y="63" on="1"/>
        <pt x="478" y="550" on="1"/>
        <pt x="221" y="550" on="1"/>
        <pt x="219" y="539" on="0"/>
        <pt x="213" y="499" on="0"/>
        <pt x="211" y="490" on="1"/>
        <pt x="209" y="476" on="0"/>
        <pt x="198" y="456" on="0"/>
        <pt x="175" y="456" on="1"/>
        <pt x="164" y="456" on="0"/>
        <pt x="141" y="467" on="0"/>
        <pt x="141" y="485" on="1"/>
        <pt x="141" y="487" on="0"/>
        <pt x="142" y="494" on="0"/>
        <pt x="144" y="507" on="1"/>
        <pt x="155" y="575" on="1"/>
        <pt x="160" y="602" on="0"/>
        <pt x="180" y="611" on="0"/>
        <pt x="198" y="611" on="1"/>
        <pt x="537" y="611" on="1"/>
        <pt x="549" y="611" on="0"/>
        <pt x="573" y="605" on="0"/>
        <pt x="573" y="587" on="1"/>
        <pt x="573" y="571" on="0"/>
        <pt x="563" y="554" on="0"/>
        <pt x="558" y="548" on="1"/>
      </contour>
    </TTGlyph>
    <TTGlyph name="a" xMin="75" yMin="-6" xMax="530" yMax="440">
      <contour>
        <pt x="436" y="66" on="1"/>
        <pt x="453" y="62" on="0"/>
        <pt x="480" y="61" on="0"/>
        <pt x="488" y="61" on="1"/>
        <pt x="493" y="61" on="0"/>
        <pt x="508" y="60" on="0"/>
        <pt x="521" y="55" on="0"/>
        <pt x="530" y="44" on="0"/>
        <pt x="530" y="33" on="1"/>
        <pt x="530" y="8" on="0"/>
        <pt x="499" y="0" on="0"/>
        <pt x="479" y="0" on="1"/>
        <pt x="438" y="0" on="0"/>
        <pt x="388" y="12" on="0"/>
        <pt x="374" y="32" on="1"/>
        <pt x="344" y="12" on="0"/>
        <pt x="261" y="-6" on="0"/>
        <pt x="223" y="-6" on="1"/>
        <pt x="188" y="-6" on="0"/>
        <pt x="133" y="14" on="0"/>
        <pt x="95" y="47" on="0"/>
        <pt x="75" y="90" on="0"/>
        <pt x="75" y="114" on="1"/>
        <pt x="75" y="152" on="0"/>
        <pt x="114" y="204" on="0"/>
        <pt x="174" y="240" on="0"/>
        <pt x="249" y="261" on="0"/>
        <pt x="322" y="272" on="0"/>
        <pt x="384" y="276" on="0"/>
        <pt x="401" y="277" on="1"/>
        <pt x="402" y="280" on="0"/>
        <pt x="404" y="302" on="0"/>
        <pt x="404" y="305" on="1"/>
        <pt x="404" y="311" on="0"/>
        <pt x="399" y="335" on="0"/>
        <pt x="378" y="360" on="0"/>
        <pt x="334" y="379" on="0"/>
        <pt x="295" y="379" on="1"/>
        <pt x="289" y="379" on="0"/>
        <pt x="248" y="378" on="0"/>
        <pt x="231" y="374" on="1"/>
        <pt x="231" y="356" on="0"/>
        <pt x="219" y="334" on="0"/>
        <pt x="202" y="324" on="0"/>
        <pt x="187" y="321" on="0"/>
        <pt x="184" y="321" on="1"/>
        <pt x="168" y="321" on="0"/>
        <pt x="142" y="342" on="0"/>
        <pt x="142" y="362" on="1"/>
        <pt x="142" y="391" on="0"/>
        <pt x="178" y="423" on="0"/>
        <pt x="228" y="438" on="0"/>
        <pt x="279" y="440" on="0"/>
        <pt x="295" y="440" on="1"/>
        <pt x="357" y="440" on="0"/>
        <pt x="428" y="405" on="0"/>
        <pt x="464" y="359" on="0"/>
        <pt x="474" y="315" on="0"/>
        <pt x="474" y="305" on="1"/>
      </contour>
      <contour>
        <pt x="391" y="218" on="1"/>
        <pt x="344" y="217" on="0"/>
        <pt x="255" y="203" on="0"/>
        <pt x="186" y="177" on="0"/>
        <pt x="144" y="139" on="0"/>
        <pt x="144" y="115" on="1"/>
        <pt x="144" y="88" on="0"/>
        <pt x="193" y="55" on="0"/>
        <pt x="232" y="55" on="1"/>
        <pt x="258" y="55" on="0"/>
        <pt x="314" y="66" on="0"/>
        <pt x="334" y="76" on="1"/>
        <pt x="348" y="84" on="0"/>
        <pt x="363" y="98" on="0"/>
        <pt x="372" y="114" on="0"/>
        <pt x="377" y="133" on="0"/>
        <pt x="379" y="146" on="1"/>
      </contour>
    </TTGlyph>
    <TTGlyph name="acute" xMin="281" yMin="477" xMax="503" yMax="611">
      <contour>
        <pt x="330" y="482" on="1"/>
        <pt x="322" y="478" on="0"/>
        <pt x="314" y="477" on="0"/>
        <pt x="312" y="477" on="1"/>
        <pt x="302" y="477" on="0"/>
        <pt x="289" y="488" on="0"/>
        <pt x="283" y="503" on="0"/>
        <pt x="281" y="516" on="0"/>
        <pt x="281" y="517" on="1"/>
        <pt x="281" y="531" on="0"/>
        <pt x="296" y="541" on="0"/>
        <pt x="307" y="546" on="1"/>
        <pt x="450" y="606" on="1"/>
        <pt x="454" y="608" on="0"/>
        <pt x="465" y="611" on="0"/>
        <pt x="470" y="611" on="1"/>
        <pt x="482" y="611" on="0"/>
        <pt x="503" y="594" on="0"/>
        <pt x="503" y="577" on="1"/>
        <pt x="503" y="560" on="0"/>
        <pt x="484" y="547" on="0"/>
        <pt x="473" y="542" on="1"/>
      </contour>
    </TTGlyph>
    <TTGlyph name="ae" xMin="51" yMin="-6" xMax="548" yMax="440">
      <contour>
        <pt x="323" y="191" on="1"/>
        <pt x="323" y="179" on="1"/>
        <pt x="322" y="177" on="0"/>
        <pt x="322" y="172" on="1"/>
        <pt x="322" y="148" on="0"/>
        <pt x="333" y="105" on="0"/>
        <pt x="353" y="74" on="0"/>
        <pt x="381" y="55" on="0"/>
        <pt x="398" y="55" on="1"/>
        <pt x="411" y="55" on="0"/>
        <pt x="432" y="67" on="0"/>
        <pt x="449" y="84" on="0"/>
        <pt x="462" y="104" on="0"/>
        <pt x="465" y="113" on="1"/>
        <pt x="468" y="120" on="0"/>
        <pt x="480" y="137" on="0"/>
        <pt x="494" y="137" on="1"/>
        <pt x="505" y="137" on="0"/>
        <pt x="522" y="122" on="0"/>
        <pt x="522" y="109" on="1"/>
        <pt x="522" y="101" on="0"/>
        <pt x="505" y="63" on="0"/>
        <pt x="472" y="24" on="0"/>
        <pt x="424" y="-6" on="0"/>
        <pt x="393" y="-6" on="1"/>
        <pt x="359" y="-6" on="0"/>
        <pt x="306" y="32" on="0"/>
        <pt x="289" y="63" on="1"/>
        <pt x="262" y="26" on="0"/>
        <pt x="184" y="-6" on="0"/>
        <pt x="151" y="-6" on="1"/>
        <pt x="125" y="-6" on="0"/>
        <pt x="87" y="14" on="0"/>
        <pt x="63" y="45" on="0"/>
        <pt x="51" y="83" on="0"/>
        <pt x="51" y="101" on="1"/>
        <pt x="51" y="137" on="0"/>
        <pt x="86" y="192" on="0"/>
        <pt x="147" y="229" on="0"/>
        <pt x="229" y="248" on="0"/>
        <pt x="275" y="249" on="1"/>
        <pt x="278" y="269" on="0"/>
        <pt x="282" y="291" on="0"/>
        <pt x="284" y="303" on="0"/>
        <pt x="284" y="309" on="0"/>
        <pt x="284" y="312" on="1"/>
        <pt x="284" y="337" on="0"/>
        <pt x="268" y="364" on="0"/>
        <pt x="247" y="377" on="0"/>
        <pt x="226" y="379" on="0"/>
        <pt x="222" y="379" on="1"/>
        <pt x="218" y="379" on="0"/>
        <pt x="208" y="379" on="0"/>
        <pt x="199" y="378" on="1"/>
        <pt x="193" y="377" on="0"/>
        <pt x="190" y="374" on="0"/>
        <pt x="190" y="369" on="1"/>
        <pt x="189" y="343" on="0"/>
        <pt x="157" y="321" on="0"/>
        <pt x="143" y="321" on="1"/>
        <pt x="127" y="321" on="0"/>
        <pt x="101" y="342" on="0"/>
        <pt x="101" y="362" on="1"/>
        <pt x="101" y="375" on="0"/>
        <pt x="113" y="402" on="0"/>
        <pt x="141" y="425" on="0"/>
        <pt x="189" y="440" on="0"/>
        <pt x="225" y="440" on="1"/>
        <pt x="259" y="440" on="0"/>
        <pt x="315" y="407" on="0"/>
        <pt x="330" y="369" on="1"/>
        <pt x="358" y="403" on="0"/>
        <pt x="416" y="440" on="0"/>
        <pt x="448" y="440" on="1"/>
        <pt x="460" y="440" on="0"/>
        <pt x="494" y="431" on="0"/>
        <pt x="525" y="401" on="0"/>
        <pt x="548" y="344" on="0"/>
        <pt x="548" y="296" on="1"/>
        <pt x="548" y="257" on="0"/>
        <pt x="541" y="214" on="0"/>
        <pt x="529" y="194" on="0"/>
        <pt x="511" y="191" on="0"/>
        <pt x="500" y="191" on="1"/>
      </contour>
      <contour>
        <pt x="489" y="251" on="1"/>
        <pt x="492" y="271" on="0"/>
        <pt x="492" y="293" on="1"/>
        <pt x="492" y="303" on="0"/>
        <pt x="489" y="333" on="0"/>
        <pt x="480" y="360" on="0"/>
        <pt x="462" y="379" on="0"/>
        <pt x="447" y="379" on="1"/>
        <pt x="436" y="379" on="0"/>
        <pt x="406" y="365" on="0"/>
        <pt x="375" y="334" on="0"/>
        <pt x="346" y="286" on="0"/>
        <pt x="335" y="251" on="1"/>
      </contour>
      <contour>
        <pt x="264" y="188" on="1"/>
        <pt x="236" y="187" on="0"/>
        <pt x="180" y="177" on="0"/>
        <pt x="136" y="156" on="0"/>
        <pt x="108" y="125" on="0"/>
        <pt x="108" y="104" on="1"/>
        <pt x="108" y="80" on="0"/>
        <pt x="136" y="55" on="0"/>
        <pt x="157" y="55" on="1"/>
        <pt x="170" y="55" on="0"/>
        <pt x="199" y="63" on="0"/>
        <pt x="225" y="78" on="0"/>
        <pt x="245" y="101" on="0"/>
        <pt x="250" y="115" on="1"/>
        <pt x="252" y="120" on="0"/>
        <pt x="259" y="156" on="0"/>
      </contour>
    </TTGlyph>
    <TTGlyph name="ampersand" xMin="49" yMin="-11" xMax="557" yMax="622">
      <contour>
        <pt x="482" y="370" on="1"/>
        <pt x="437" y="284" on="0"/>
        <pt x="364" y="155" on="0"/>
        <pt x="326" y="103" on="1"/>
        <pt x="339" y="84" on="0"/>
        <pt x="374" y="50" on="0"/>
        <pt x="395" y="50" on="1"/>
        <pt x="416" y="50" on="0"/>
        <pt x="444" y="89" on="0"/>
        <pt x="449" y="109" on="1"/>
        <pt x="451" y="116" on="0"/>
        <pt x="460" y="138" on="0"/>
        <pt x="477" y="138" on="1"/>
        <pt x="483" y="138" on="0"/>
        <pt x="505" y="126" on="0"/>
        <pt x="505" y="109" on="1"/>
        <pt x="505" y="99" on="0"/>
        <pt x="492" y="59" on="0"/>
        <pt x="465" y="19" on="0"/>
        <pt x="424" y="-11" on="0"/>
        <pt x="395" y="-11" on="1"/>
        <pt x="388" y="-11" on="0"/>
        <pt x="364" y="-7" on="0"/>
        <pt x="336" y="7" on="0"/>
        <pt x="304" y="35" on="0"/>
        <pt x="288" y="59" on="1"/>
        <pt x="264" y="33" on="0"/>
        <pt x="195" y="-11" on="0"/>
        <pt x="153" y="-11" on="1"/>
        <pt x="111" y="-11" on="0"/>
        <pt x="49" y="52" on="0"/>
        <pt x="49" y="112" on="1"/>
        <pt x="49" y="145" on="0"/>
        <pt x="66" y="195" on="0"/>
        <pt x="100" y="241" on="0"/>
        <pt x="150" y="288" on="0"/>
        <pt x="184" y="318" on="1"/>
        <pt x="179" y="347" on="0"/>
        <pt x="177" y="391" on="0"/>
        <pt x="177" y="403" on="1"/>
        <pt x="177" y="479" on="0"/>
        <pt x="210" y="566" on="0"/>
        <pt x="254" y="610" on="0"/>
        <pt x="296" y="622" on="0"/>
        <pt x="306" y="622" on="1"/>
        <pt x="342" y="622" on="0"/>
        <pt x="383" y="570" on="0"/>
        <pt x="383" y="521" on="1"/>
        <pt x="383" y="493" on="0"/>
        <pt x="371" y="443" on="0"/>
        <pt x="340" y="390" on="0"/>
        <pt x="287" y="331" on="0"/>
        <pt x="246" y="294" on="1"/>
        <pt x="252" y="270" on="0"/>
        <pt x="280" y="194" on="0"/>
        <pt x="297" y="160" on="1"/>
        <pt x="313" y="183" on="0"/>
        <pt x="350" y="245" on="0"/>
        <pt x="384" y="306" on="0"/>
        <pt x="412" y="357" on="0"/>
        <pt x="418" y="370" on="1"/>
        <pt x="406" y="370" on="0"/>
        <pt x="392" y="378" on="0"/>
        <pt x="385" y="387" on="0"/>
        <pt x="384" y="397" on="0"/>
        <pt x="384" y="398" on="1"/>
        <pt x="384" y="410" on="0"/>
        <pt x="393" y="424" on="0"/>
        <pt x="405" y="430" on="0"/>
        <pt x="419" y="431" on="0"/>
        <pt x="425" y="431" on="1"/>
        <pt x="517" y="431" on="1"/>
        <pt x="522" y="431" on="0"/>
        <pt x="536" y="430" on="0"/>
        <pt x="548" y="425" on="0"/>
        <pt x="557" y="413" on="0"/>
        <pt x="557" y="402" on="1"/>
        <pt x="557" y="390" on="0"/>
        <pt x="548" y="377" on="0"/>
        <pt x="536" y="371" on="0"/>
        <pt x="522" y="370" on="0"/>
        <pt x="516" y="370" on="1"/>
      </contour>
      <contour>
        <pt x="233" y="404" on="1"/>
        <pt x="233" y="403" on="0"/>
        <pt x="233" y="391" on="0"/>
        <pt x="233" y="378" on="0"/>
        <pt x="234" y="368" on="0"/>
        <pt x="235" y="368" on="1"/>
        <pt x="237" y="368" on="0"/>
        <pt x="251" y="382" on="0"/>
        <pt x="269" y="401" on="0"/>
        <pt x="287" y="421" on="0"/>
        <pt x="292" y="428" on="1"/>
        <pt x="314" y="455" on="0"/>
        <pt x="326" y="492" on="0"/>
        <pt x="326" y="516" on="1"/>
        <pt x="326" y="536" on="0"/>
        <pt x="318" y="561" on="0"/>
        <pt x="305" y="561" on="1"/>
        <pt x="301" y="561" on="0"/>
        <pt x="277" y="554" on="0"/>
        <pt x="252" y="522" on="0"/>
        <pt x="233" y="460" on="0"/>
      </contour>
      <contour>
        <pt x="200" y="251" on="1"/>
        <pt x="180" y="233" on="0"/>
        <pt x="149" y="203" on="0"/>
        <pt x="128" y="172" on="0"/>
        <pt x="118" y="135" on="0"/>
        <pt x="118" y="110" on="1"/>
        <pt x="118" y="101" on="0"/>
        <pt x="121" y="80" on="0"/>
        <pt x="129" y="62" on="0"/>
        <pt x="144" y="50" on="0"/>
        <pt x="156" y="50" on="1"/>
        <pt x="169" y="50" on="0"/>
        <pt x="197" y="61" on="0"/>
        <pt x="224" y="78" on="0"/>
        <pt x="248" y="100" on="0"/>
        <pt x="257" y="111" on="1"/>
        <pt x="251" y="123" on="0"/>
        <pt x="235" y="158" on="0"/>
        <pt x="219" y="197" on="0"/>
        <pt x="205" y="235" on="0"/>
      </contour>
    </TTGlyph>
    <TTGlyph name="arrowdown" xMin="88" yMin="0" xMax="495" yMax="611">
      <contour>
        <pt x="319" y="130" on="1"/>
        <pt x="346" y="151" on="0"/>
        <pt x="396" y="180" on="0"/>
        <pt x="437" y="198" on="0"/>
        <pt x="463" y="205" on="0"/>
        <pt x="466" y="205" on="1"/>
        <pt x="480" y="205" on="0"/>
        <pt x="495" y="187" on="0"/>
        <pt x="495" y="177" on="1"/>
        <pt x="495" y="159" on="0"/>
        <pt x="477" y="146" on="0"/>
        <pt x="469" y="144" on="1"/>
        <pt x="424" y="128" on="0"/>
        <pt x="334" y="71" on="0"/>
        <pt x="295" y="20" on="1"/>
        <pt x="288" y="10" on="0"/>
        <pt x="278" y="0" on="0"/>
        <pt x="267" y="0" on="1"/>
        <pt x="253" y="0" on="0"/>
        <pt x="242" y="16" on="0"/>
        <pt x="238" y="25" on="1"/>
        <pt x="225" y="53" on="0"/>
        <pt x="194" y="93" on="0"/>
        <pt x="161" y="120" on="0"/>
        <pt x="126" y="138" on="0"/>
        <pt x="109" y="145" on="1"/>
        <pt x="101" y="148" on="0"/>
        <pt x="88" y="160" on="0"/>
        <pt x="88" y="173" on="1"/>
        <pt x="88" y="190" on="0"/>
        <pt x="106" y="205" on="0"/>
        <pt x="117" y="205" on="1"/>
        <pt x="124" y="205" on="0"/>
        <pt x="156" y="192" on="0"/>
        <pt x="195" y="170" on="0"/>
        <pt x="234" y="141" on="0"/>
        <pt x="247" y="124" on="1"/>
        <pt x="321" y="570" on="1"/>
        <pt x="322" y="575" on="0"/>
        <pt x="325" y="588" on="0"/>
        <pt x="334" y="602" on="0"/>
        <pt x="348" y="611" on="0"/>
        <pt x="359" y="611" on="1"/>
        <pt x="369" y="611" on="0"/>
        <pt x="393" y="595" on="0"/>
        <pt x="393" y="577" on="1"/>
        <pt x="393" y="574" on="0"/>
        <pt x="392" y="567" on="0"/>
        <pt x="390" y="555" on="1"/>
      </contour>
    </TTGlyph>
    <TTGlyph name="arrowup" xMin="131" yMin="0" xMax="538" yMax="611">
      <contour>
        <pt x="304" y="38" on="1"/>
        <pt x="304" y="35" on="0"/>
        <pt x="301" y="23" on="0"/>
        <pt x="293" y="10" on="0"/>
        <pt x="279" y="0" on="0"/>
        <pt x="267" y="0" on="1"/>
        <pt x="253" y="0" on="0"/>
        <pt x="233" y="18" on="0"/>
        <pt x="233" y="34" on="1"/>
        <pt x="233" y="37" on="0"/>
        <pt x="234" y="44" on="0"/>
        <pt x="236" y="57" on="1"/>
        <pt x="306" y="480" on="1"/>
        <pt x="281" y="461" on="0"/>
        <pt x="232" y="433" on="0"/>
        <pt x="192" y="415" on="0"/>
        <pt x="164" y="406" on="0"/>
        <pt x="159" y="406" on="1"/>
        <pt x="146" y="406" on="0"/>
        <pt x="131" y="424" on="0"/>
        <pt x="131" y="434" on="1"/>
        <pt x="131" y="452" on="0"/>
        <pt x="149" y="465" on="0"/>
        <pt x="156" y="467" on="1"/>
        <pt x="168" y="471" on="0"/>
        <pt x="207" y="487" on="0"/>
        <pt x="254" y="515" on="0"/>
        <pt x="306" y="559" on="0"/>
        <pt x="331" y="591" on="1"/>
        <pt x="338" y="601" on="0"/>
        <pt x="348" y="611" on="0"/>
        <pt x="359" y="611" on="1"/>
        <pt x="373" y="611" on="0"/>
        <pt x="385" y="594" on="0"/>
        <pt x="387" y="588" on="1"/>
        <pt x="424" y="503" on="0"/>
        <pt x="508" y="470" on="1"/>
        <pt x="522" y="464" on="0"/>
        <pt x="538" y="453" on="0"/>
        <pt x="538" y="438" on="1"/>
        <pt x="538" y="424" on="0"/>
        <pt x="523" y="406" on="0"/>
        <pt x="509" y="406" on="1"/>
        <pt x="506" y="406" on="0"/>
        <pt x="480" y="414" on="0"/>
        <pt x="443" y="433" on="0"/>
        <pt x="400" y="464" on="0"/>
        <pt x="379" y="487" on="1"/>
      </contour>
    </TTGlyph>
    <TTGlyph name="asciicircum" xMin="185" yMin="471" xMax="509" yMax="611">
      <contour>
        <pt x="489" y="538" on="1"/>
        <pt x="497" y="533" on="0"/>
        <pt x="509" y="522" on="0"/>
        <pt x="509" y="510" on="1"/>
        <pt x="509" y="501" on="0"/>
        <pt x="489" y="471" on="0"/>
        <pt x="473" y="471" on="1"/>
        <pt x="469" y="471" on="0"/>
        <pt x="460" y="474" on="0"/>
        <pt x="449" y="481" on="1"/>
        <pt x="356" y="541" on="1"/>
        <pt x="237" y="478" on="1"/>
        <pt x="230" y="474" on="0"/>
        <pt x="223" y="471" on="0"/>
        <pt x="218" y="471" on="1"/>
        <pt x="207" y="471" on="0"/>
        <pt x="194" y="483" on="0"/>
        <pt x="187" y="497" on="0"/>
        <pt x="185" y="510" on="0"/>
        <pt x="185" y="510" on="1"/>
        <pt x="185" y="524" on="0"/>
        <pt x="199" y="534" on="0"/>
        <pt x="208" y="539" on="1"/>
        <pt x="342" y="605" on="1"/>
        <pt x="350" y="610" on="0"/>
        <pt x="356" y="611" on="0"/>
        <pt x="359" y="611" on="1"/>
        <pt x="364" y="611" on="0"/>
        <pt x="370" y="609" on="0"/>
        <pt x="381" y="602" on="1"/>
      </contour>
    </TTGlyph>
    <TTGlyph name="asciitilde" xMin="174" yMin="491" xMax="534" yMax="611">
      <contour>
        <pt x="534" y="579" on="1"/>
        <pt x="534" y="565" on="0"/>
        <pt x="501" y="539" on="0"/>
        <pt x="478" y="524" on="1"/>
        <pt x="460" y="511" on="0"/>
        <pt x="416" y="491" on="0"/>
        <pt x="396" y="491" on="1"/>
        <pt x="374" y="491" on="0"/>
        <pt x="344" y="512" on="0"/>
        <pt x="330" y="529" on="1"/>
        <pt x="316" y="546" on="0"/>
        <pt x="308" y="546" on="1"/>
        <pt x="299" y="546" on="0"/>
        <pt x="275" y="535" on="0"/>
        <pt x="251" y="520" on="0"/>
        <pt x="230" y="504" on="0"/>
        <pt x="225" y="500" on="1"/>
        <pt x="222" y="498" on="0"/>
        <pt x="213" y="491" on="0"/>
        <pt x="205" y="491" on="1"/>
        <pt x="191" y="491" on="0"/>
        <pt x="174" y="512" on="0"/>
        <pt x="174" y="523" on="1"/>
        <pt x="174" y="537" on="0"/>
        <pt x="205" y="561" on="0"/>
        <pt x="229" y="578" on="1"/>
        <pt x="234" y="581" on="0"/>
        <pt x="251" y="592" on="0"/>
        <pt x="273" y="603" on="0"/>
        <pt x="299" y="611" on="0"/>
        <pt x="311" y="611" on="1"/>
        <pt x="337" y="611" on="0"/>
        <pt x="366" y="587" on="0"/>
        <pt x="378" y="573" on="1"/>
        <pt x="384" y="565" on="0"/>
        <pt x="394" y="556" on="0"/>
        <pt x="400" y="556" on="1"/>
        <pt x="409" y="556" on="0"/>
        <pt x="431" y="566" on="0"/>
        <pt x="454" y="581" on="0"/>
        <pt x="473" y="596" on="0"/>
        <pt x="479" y="600" on="1"/>
        <pt x="486" y="605" on="0"/>
        <pt x="495" y="611" on="0"/>
        <pt x="503" y="611" on="1"/>
        <pt x="517" y="611" on="0"/>
        <pt x="534" y="589" on="0"/>
      </contour>
    </TTGlyph>
    <TTGlyph name="asterisk" xMin="104" yMin="90" xMax="522" yMax="521">
      <contour>
        <pt x="374" y="306" on="1"/>
        <pt x="474" y="246" on="1"/>
        <pt x="481" y="242" on="0"/>
        <pt x="492" y="231" on="0"/>
        <pt x="492" y="219" on="1"/>
        <pt x="492" y="205" on="0"/>
        <pt x="470" y="181" on="0"/>
        <pt x="453" y="181" on="1"/>
        <pt x="449" y="181" on="0"/>
        <pt x="440" y="183" on="0"/>
        <pt x="430" y="190" on="1"/>
        <pt x="334" y="254" on="1"/>
        <pt x="325" y="188" on="1"/>
        <pt x="325" y="185" on="0"/>
        <pt x="322" y="166" on="0"/>
        <pt x="319" y="145" on="0"/>
        <pt x="316" y="127" on="0"/>
        <pt x="316" y="125" on="1"/>
        <pt x="312" y="104" on="0"/>
        <pt x="285" y="90" on="0"/>
        <pt x="277" y="90" on="1"/>
        <pt x="266" y="90" on="0"/>
        <pt x="249" y="104" on="0"/>
        <pt x="249" y="117" on="1"/>
        <pt x="249" y="121" on="0"/>
        <pt x="250" y="127" on="0"/>
        <pt x="252" y="138" on="1"/>
        <pt x="274" y="254" on="1"/>
        <pt x="151" y="186" on="1"/>
        <pt x="149" y="185" on="0"/>
        <pt x="140" y="181" on="0"/>
        <pt x="132" y="181" on="1"/>
        <pt x="115" y="181" on="0"/>
        <pt x="104" y="202" on="0"/>
        <pt x="104" y="209" on="1"/>
        <pt x="104" y="225" on="0"/>
        <pt x="124" y="242" on="0"/>
        <pt x="133" y="247" on="1"/>
        <pt x="252" y="305" on="1"/>
        <pt x="153" y="364" on="1"/>
        <pt x="143" y="369" on="0"/>
        <pt x="134" y="381" on="0"/>
        <pt x="134" y="392" on="1"/>
        <pt x="134" y="406" on="0"/>
        <pt x="156" y="430" on="0"/>
        <pt x="173" y="430" on="1"/>
        <pt x="177" y="430" on="0"/>
        <pt x="186" y="428" on="0"/>
        <pt x="196" y="421" on="1"/>
        <pt x="291" y="357" on="1"/>
        <pt x="309" y="481" on="1"/>
        <pt x="313" y="507" on="0"/>
        <pt x="341" y="521" on="0"/>
        <pt x="349" y="521" on="1"/>
        <pt x="363" y="521" on="0"/>
        <pt x="377" y="504" on="0"/>
        <pt x="377" y="494" on="1"/>
        <pt x="377" y="490" on="0"/>
        <pt x="377" y="485" on="0"/>
        <pt x="375" y="479" on="1"/>
        <pt x="352" y="357" on="1"/>
        <pt x="471" y="422" on="1"/>
        <pt x="479" y="427" on="0"/>
        <pt x="487" y="430" on="0"/>
        <pt x="494" y="430" on="1"/>
        <pt x="505" y="430" on="0"/>
        <pt x="522" y="417" on="0"/>
        <pt x="522" y="402" on="1"/>
        <pt x="522" y="385" on="0"/>
        <pt x="501" y="369" on="0"/>
        <pt x="492" y="364" on="1"/>
      </contour>
    </TTGlyph>
    <TTGlyph name="at" xMin="90" yMin="-6" xMax="545" yMax="617">
      <contour>
        <pt x="484" y="479" on="1"/>
        <pt x="482" y="488" on="0"/>
        <pt x="474" y="515" on="0"/>
        <pt x="456" y="539" on="0"/>
        <pt x="425" y="556" on="0"/>
        <pt x="401" y="556" on="1"/>
        <pt x="355" y="556" on="0"/>
        <pt x="263" y="506" on="0"/>
        <pt x="191" y="422" on="0"/>
        <pt x="146" y="312" on="0"/>
        <pt x="146" y="251" on="1"/>
        <pt x="146" y="209" on="0"/>
        <pt x="170" y="137" on="0"/>
        <pt x="213" y="85" on="0"/>
        <pt x="274" y="55" on="0"/>
        <pt x="310" y="55" on="1"/>
        <pt x="350" y="55" on="0"/>
        <pt x="409" y="86" on="0"/>
        <pt x="423" y="97" on="1"/>
        <pt x="433" y="105" on="0"/>
        <pt x="443" y="108" on="0"/>
        <pt x="456" y="108" on="1"/>
        <pt x="459" y="108" on="0"/>
        <pt x="472" y="107" on="0"/>
        <pt x="484" y="102" on="0"/>
        <pt x="493" y="91" on="0"/>
        <pt x="493" y="80" on="1"/>
        <pt x="493" y="70" on="0"/>
        <pt x="475" y="50" on="0"/>
        <pt x="451" y="34" on="0"/>
        <pt x="427" y="22" on="0"/>
        <pt x="421" y="19" on="1"/>
        <pt x="380" y="0" on="0"/>
        <pt x="317" y="-6" on="0"/>
        <pt x="310" y="-6" on="1"/>
        <pt x="262" y="-6" on="0"/>
        <pt x="182" y="32" on="0"/>
        <pt x="123" y="100" on="0"/>
        <pt x="90" y="194" on="0"/>
        <pt x="90" y="249" on="1"/>
        <pt x="90" y="322" on="0"/>
        <pt x="143" y="455" on="0"/>
        <pt x="231" y="557" on="0"/>
        <pt x="343" y="617" on="0"/>
        <pt x="402" y="617" on="1"/>
        <pt x="443" y="617" on="0"/>
        <pt x="498" y="585" on="0"/>
        <pt x="531" y="533" on="0"/>
        <pt x="545" y="467" on="0"/>
        <pt x="545" y="432" on="1"/>
        <pt x="545" y="428" on="0"/>
        <pt x="543" y="383" on="0"/>
        <pt x="535" y="321" on="0"/>
        <pt x="521" y="254" on="0"/>
        <pt x="509" y="227" on="1"/>
        <pt x="499" y="205" on="0"/>
        <pt x="468" y="161" on="0"/>
        <pt x="429" y="127" on="0"/>
        <pt x="383" y="106" on="0"/>
        <pt x="358" y="106" on="1"/>
        <pt x="331" y="106" on="0"/>
        <pt x="287" y="130" on="0"/>
        <pt x="256" y="172" on="0"/>
        <pt x="238" y="230" on="0"/>
        <pt x="238" y="264" on="1"/>
        <pt x="238" y="309" on="0"/>
        <pt x="267" y="396" on="0"/>
        <pt x="316" y="464" on="0"/>
        <pt x="380" y="505" on="0"/>
        <pt x="415" y="505" on="1"/>
        <pt x="439" y="505" on="0"/>
        <pt x="475" y="487" on="0"/>
      </contour>
      <contour>
        <pt x="359" y="167" on="1"/>
        <pt x="379" y="167" on="0"/>
        <pt x="421" y="195" on="0"/>
        <pt x="455" y="243" on="0"/>
        <pt x="478" y="308" on="0"/>
        <pt x="478" y="345" on="1"/>
        <pt x="478" y="392" on="0"/>
        <pt x="440" y="444" on="0"/>
        <pt x="414" y="444" on="1"/>
        <pt x="394" y="444" on="0"/>
        <pt x="352" y="416" on="0"/>
        <pt x="317" y="368" on="0"/>
        <pt x="295" y="304" on="0"/>
        <pt x="295" y="267" on="1"/>
        <pt x="295" y="216" on="0"/>
        <pt x="335" y="167" on="0"/>
      </contour>
    </TTGlyph>
    <TTGlyph name="b" xMin="102" yMin="-6" xMax="527" yMax="611">
      <contour>
        <pt x="232" y="392" on="1"/>
        <pt x="252" y="406" on="0"/>
        <pt x="318" y="437" on="0"/>
        <pt x="361" y="437" on="1"/>
        <pt x="395" y="437" on="0"/>
        <pt x="456" y="411" on="0"/>
        <pt x="501" y="362" on="0"/>
        <pt x="527" y="294" on="0"/>
        <pt x="527" y="252" on="1"/>
        <pt x="527" y="199" on="0"/>
        <pt x="486" y="105" on="0"/>
        <pt x="418" y="35" on="0"/>
        <pt x="331" y="-6" on="0"/>
        <pt x="286" y="-6" on="1"/>
        <pt x="242" y="-6" on="0"/>
        <pt x="191" y="29" on="0"/>
        <pt x="174" y="48" on="1"/>
        <pt x="173" y="30" on="0"/>
        <pt x="165" y="11" on="0"/>
        <pt x="154" y="2" on="0"/>
        <pt x="142" y="0" on="0"/>
        <pt x="136" y="0" on="1"/>
        <pt x="125" y="0" on="0"/>
        <pt x="102" y="11" on="0"/>
        <pt x="102" y="29" on="1"/>
        <pt x="102" y="32" on="0"/>
        <pt x="103" y="39" on="0"/>
        <pt x="105" y="51" on="1"/>
        <pt x="188" y="550" on="1"/>
        <pt x="149" y="550" on="1"/>
        <pt x="144" y="550" on="0"/>
        <pt x="130" y="551" on="0"/>
        <pt x="117" y="556" on="0"/>
        <pt x="108" y="568" on="0"/>
        <pt x="108" y="578" on="1"/>
        <pt x="108" y="590" on="0"/>
        <pt x="117" y="604" on="0"/>
        <pt x="130" y="610" on="0"/>
        <pt x="144" y="611" on="0"/>
        <pt x="150" y="611" on="1"/>
        <pt x="223" y="611" on="1"/>
        <pt x="228" y="611" on="0"/>
        <pt x="242" y="610" on="0"/>
        <pt x="254" y="605" on="0"/>
        <pt x="263" y="593" on="0"/>
        <pt x="263" y="582" on="1"/>
        <pt x="263" y="580" on="0"/>
        <pt x="262" y="573" on="0"/>
        <pt x="260" y="561" on="1"/>
      </contour>
      <contour>
        <pt x="283" y="55" on="1"/>
        <pt x="315" y="55" on="0"/>
        <pt x="378" y="86" on="0"/>
        <pt x="427" y="140" on="0"/>
        <pt x="458" y="212" on="0"/>
        <pt x="458" y="252" on="1"/>
        <pt x="458" y="306" on="0"/>
        <pt x="402" y="376" on="0"/>
        <pt x="355" y="376" on="1"/>
        <pt x="313" y="376" on="0"/>
        <pt x="236" y="324" on="0"/>
        <pt x="216" y="284" on="1"/>
        <pt x="213" y="279" on="0"/>
        <pt x="206" y="241" on="0"/>
        <pt x="200" y="201" on="0"/>
        <pt x="195" y="168" on="0"/>
        <pt x="195" y="167" on="1"/>
        <pt x="195" y="147" on="0"/>
        <pt x="206" y="107" on="0"/>
        <pt x="227" y="75" on="0"/>
        <pt x="261" y="55" on="0"/>
      </contour>
    </TTGlyph>
    <TTGlyph name="backslash" xMin="168" yMin="-83" xMax="458" yMax="694">
      <contour>
        <pt x="454" y="-28" on="1"/>
        <pt x="456" y="-33" on="0"/>
        <pt x="458" y="-42" on="0"/>
        <pt x="458" y="-48" on="1"/>
        <pt x="458" y="-62" on="0"/>
        <pt x="438" y="-83" on="0"/>
        <pt x="423" y="-83" on="1"/>
        <pt x="404" y="-83" on="0"/>
        <pt x="391" y="-61" on="0"/>
        <pt x="387" y="-48" on="1"/>
        <pt x="173" y="639" on="1"/>
        <pt x="169" y="650" on="0"/>
        <pt x="168" y="657" on="0"/>
        <pt x="168" y="659" on="1"/>
        <pt x="168" y="673" on="0"/>
        <pt x="189" y="694" on="0"/>
        <pt x="203" y="694" on="1"/>
        <pt x="222" y="694" on="0"/>
        <pt x="237" y="669" on="0"/>
        <pt x="239" y="662" on="1"/>
      </contour>
    </TTGlyph>
    <TTGlyph name="bar" xMin="219" yMin="-83" xMax="407" yMax="694">
      <contour>
        <pt x="290" y="-46" on="1"/>
        <pt x="290" y="-49" on="0"/>
        <pt x="287" y="-61" on="0"/>
        <pt x="279" y="-74" on="0"/>
        <pt x="265" y="-83" on="0"/>
        <pt x="254" y="-83" on="1"/>
        <pt x="238" y="-83" on="0"/>
        <pt x="219" y="-62" on="0"/>
        <pt x="219" y="-48" on="1"/>
        <pt x="219" y="-47" on="0"/>
        <pt x="219" y="-40" on="0"/>
        <pt x="221" y="-32" on="1"/>
        <pt x="335" y="654" on="1"/>
        <pt x="336" y="658" on="0"/>
        <pt x="339" y="671" on="0"/>
        <pt x="347" y="684" on="0"/>
        <pt x="361" y="694" on="0"/>
        <pt x="372" y="694" on="1"/>
        <pt x="386" y="694" on="0"/>
        <pt x="407" y="673" on="0"/>
        <pt x="407" y="659" on="1"/>
        <pt x="407" y="657" on="0"/>
        <pt x="406" y="653" on="0"/>
        <pt x="405" y="646" on="1"/>
      </contour>
    </TTGlyph>
    <TTGlyph name="braceleft" xMin="108" yMin="-83" xMax="578" yMax="694">
      <contour>
        <pt x="363" y="394" on="1"/>
        <pt x="362" y="389" on="0"/>
        <pt x="357" y="368" on="0"/>
        <pt x="342" y="342" on="0"/>
        <pt x="314" y="315" on="0"/>
        <pt x="290" y="303" on="1"/>
        <pt x="310" y="290" on="0"/>
        <pt x="334" y="251" on="0"/>
        <pt x="334" y="226" on="1"/>
        <pt x="334" y="218" on="0"/>
        <pt x="324" y="158" on="0"/>
        <pt x="316" y="114" on="1"/>
        <pt x="315" y="109" on="0"/>
        <pt x="311" y="81" on="0"/>
        <pt x="306" y="51" on="0"/>
        <pt x="302" y="26" on="0"/>
        <pt x="302" y="23" on="1"/>
        <pt x="302" y="7" on="0"/>
        <pt x="332" y="-11" on="0"/>
        <pt x="373" y="-20" on="0"/>
        <pt x="414" y="-22" on="0"/>
        <pt x="425" y="-22" on="1"/>
        <pt x="427" y="-22" on="0"/>
        <pt x="438" y="-23" on="0"/>
        <pt x="450" y="-29" on="0"/>
        <pt x="459" y="-40" on="0"/>
        <pt x="459" y="-50" on="1"/>
        <pt x="459" y="-62" on="0"/>
        <pt x="450" y="-76" on="0"/>
        <pt x="437" y="-82" on="0"/>
        <pt x="422" y="-83" on="0"/>
        <pt x="416" y="-83" on="1"/>
        <pt x="392" y="-83" on="0"/>
        <pt x="329" y="-76" on="0"/>
        <pt x="272" y="-54" on="0"/>
        <pt x="233" y="-13" on="0"/>
        <pt x="233" y="22" on="1"/>
        <pt x="233" y="27" on="0"/>
        <pt x="236" y="51" on="0"/>
        <pt x="241" y="81" on="0"/>
        <pt x="246" y="113" on="0"/>
        <pt x="248" y="126" on="1"/>
        <pt x="249" y="131" on="0"/>
        <pt x="255" y="162" on="0"/>
        <pt x="261" y="196" on="0"/>
        <pt x="265" y="224" on="0"/>
        <pt x="265" y="226" on="1"/>
        <pt x="265" y="244" on="0"/>
        <pt x="232" y="263" on="0"/>
        <pt x="190" y="273" on="0"/>
        <pt x="152" y="275" on="0"/>
        <pt x="147" y="275" on="1"/>
        <pt x="141" y="275" on="0"/>
        <pt x="128" y="276" on="0"/>
        <pt x="116" y="282" on="0"/>
        <pt x="108" y="294" on="0"/>
        <pt x="108" y="304" on="1"/>
        <pt x="108" y="316" on="0"/>
        <pt x="116" y="329" on="0"/>
        <pt x="127" y="335" on="0"/>
        <pt x="139" y="336" on="0"/>
        <pt x="142" y="336" on="1"/>
        <pt x="195" y="337" on="0"/>
        <pt x="256" y="355" on="0"/>
        <pt x="286" y="378" on="0"/>
        <pt x="295" y="402" on="0"/>
        <pt x="296" y="410" on="1"/>
        <pt x="323" y="576" on="1"/>
        <pt x="329" y="611" on="0"/>
        <pt x="369" y="656" on="0"/>
        <pt x="428" y="683" on="0"/>
        <pt x="500" y="694" on="0"/>
        <pt x="536" y="694" on="1"/>
        <pt x="542" y="694" on="0"/>
        <pt x="557" y="693" on="0"/>
        <pt x="569" y="688" on="0"/>
        <pt x="578" y="676" on="0"/>
        <pt x="578" y="665" on="1"/>
        <pt x="578" y="653" on="0"/>
        <pt x="570" y="640" on="0"/>
        <pt x="558" y="634" on="0"/>
        <pt x="545" y="633" on="0"/>
        <pt x="541" y="633" on="1"/>
        <pt x="489" y="632" on="0"/>
        <pt x="430" y="617" on="0"/>
        <pt x="401" y="595" on="0"/>
        <pt x="393" y="572" on="0"/>
        <pt x="391" y="563" on="1"/>
      </contour>
    </TTGlyph>
    <TTGlyph name="braceright" xMin="48" yMin="-83" xMax="518" yMax="694">
      <contour>
        <pt x="364" y="397" on="1"/>
        <pt x="364" y="395" on="0"/>
        <pt x="362" y="387" on="0"/>
        <pt x="362" y="385" on="1"/>
        <pt x="362" y="367" on="0"/>
        <pt x="395" y="348" on="0"/>
        <pt x="436" y="338" on="0"/>
        <pt x="474" y="336" on="0"/>
        <pt x="479" y="336" on="1"/>
        <pt x="485" y="336" on="0"/>
        <pt x="498" y="335" on="0"/>
        <pt x="510" y="329" on="0"/>
        <pt x="518" y="318" on="0"/>
        <pt x="518" y="307" on="1"/>
        <pt x="518" y="296" on="0"/>
        <pt x="511" y="283" on="0"/>
        <pt x="501" y="277" on="0"/>
        <pt x="493" y="275" on="0"/>
        <pt x="491" y="275" on="1"/>
        <pt x="436" y="274" on="0"/>
        <pt x="373" y="258" on="0"/>
        <pt x="341" y="235" on="0"/>
        <pt x="332" y="209" on="0"/>
        <pt x="330" y="198" on="1"/>
        <pt x="308" y="60" on="1"/>
        <pt x="305" y="40" on="0"/>
        <pt x="297" y="7" on="0"/>
        <pt x="281" y="-22" on="0"/>
        <pt x="253" y="-47" on="0"/>
        <pt x="229" y="-59" on="1"/>
        <pt x="211" y="-67" on="0"/>
        <pt x="168" y="-77" on="0"/>
        <pt x="129" y="-82" on="0"/>
        <pt x="97" y="-83" on="0"/>
        <pt x="90" y="-83" on="1"/>
        <pt x="84" y="-83" on="0"/>
        <pt x="69" y="-82" on="0"/>
        <pt x="57" y="-77" on="0"/>
        <pt x="48" y="-65" on="0"/>
        <pt x="48" y="-54" on="1"/>
        <pt x="48" y="-38" on="0"/>
        <pt x="67" y="-22" on="0"/>
        <pt x="75" y="-22" on="1"/>
        <pt x="131" y="-21" on="0"/>
        <pt x="194" y="-8" on="0"/>
        <pt x="225" y="14" on="0"/>
        <pt x="234" y="43" on="0"/>
        <pt x="237" y="58" on="1"/>
        <pt x="239" y="69" on="0"/>
        <pt x="243" y="91" on="0"/>
        <pt x="245" y="102" on="1"/>
        <pt x="246" y="108" on="0"/>
        <pt x="251" y="142" on="0"/>
        <pt x="257" y="180" on="0"/>
        <pt x="262" y="211" on="0"/>
        <pt x="263" y="214" on="1"/>
        <pt x="265" y="222" on="0"/>
        <pt x="271" y="246" on="0"/>
        <pt x="287" y="271" on="0"/>
        <pt x="315" y="297" on="0"/>
        <pt x="337" y="308" on="1"/>
        <pt x="317" y="322" on="0"/>
        <pt x="293" y="360" on="0"/>
        <pt x="293" y="385" on="1"/>
        <pt x="293" y="390" on="0"/>
        <pt x="294" y="397" on="0"/>
        <pt x="296" y="410" on="1"/>
        <pt x="322" y="567" on="1"/>
        <pt x="324" y="579" on="0"/>
        <pt x="325" y="586" on="0"/>
        <pt x="325" y="588" on="1"/>
        <pt x="325" y="604" on="0"/>
        <pt x="295" y="622" on="0"/>
        <pt x="254" y="631" on="0"/>
        <pt x="212" y="633" on="0"/>
        <pt x="201" y="633" on="1"/>
        <pt x="199" y="633" on="0"/>
        <pt x="188" y="634" on="0"/>
        <pt x="176" y="640" on="0"/>
        <pt x="167" y="652" on="0"/>
        <pt x="167" y="662" on="1"/>
        <pt x="167" y="674" on="0"/>
        <pt x="176" y="687" on="0"/>
        <pt x="189" y="693" on="0"/>
        <pt x="204" y="694" on="0"/>
        <pt x="210" y="694" on="1"/>
        <pt x="235" y="694" on="0"/>
        <pt x="299" y="687" on="0"/>
        <pt x="355" y="665" on="0"/>
        <pt x="394" y="624" on="0"/>
        <pt x="394" y="589" on="1"/>
        <pt x="394" y="582" on="0"/>
        <pt x="393" y="574" on="0"/>
        <pt x="391" y="561" on="1"/>
      </contour>
    </TTGlyph>
    <TTGlyph name="bracketleft" xMin="213" yMin="-83" xMax="594" yMax="694">
      <contour>
        <pt x="288" y="-22" on="1"/>
        <pt x="434" y="-22" on="1"/>
        <pt x="439" y="-22" on="0"/>
        <pt x="453" y="-23" on="0"/>
        <pt x="466" y="-28" on="0"/>
        <pt x="475" y="-40" on="0"/>
        <pt x="475" y="-50" on="1"/>
        <pt x="475" y="-62" on="0"/>
        <pt x="466" y="-76" on="0"/>
        <pt x="453" y="-82" on="0"/>
        <pt x="439" y="-83" on="0"/>
        <pt x="433" y="-83" on="1"/>
        <pt x="253" y="-83" on="1"/>
        <pt x="248" y="-83" on="0"/>
        <pt x="234" y="-82" on="0"/>
        <pt x="222" y="-77" on="0"/>
        <pt x="213" y="-65" on="0"/>
        <pt x="213" y="-54" on="1"/>
        <pt x="213" y="-51" on="0"/>
        <pt x="214" y="-45" on="0"/>
        <pt x="216" y="-33" on="1"/>
        <pt x="332" y="662" on="1"/>
        <pt x="336" y="685" on="0"/>
        <pt x="356" y="694" on="0"/>
        <pt x="374" y="694" on="1"/>
        <pt x="554" y="694" on="1"/>
        <pt x="559" y="694" on="0"/>
        <pt x="573" y="693" on="0"/>
        <pt x="585" y="688" on="0"/>
        <pt x="594" y="676" on="0"/>
        <pt x="594" y="665" on="1"/>
        <pt x="594" y="653" on="0"/>
        <pt x="585" y="640" on="0"/>
        <pt x="572" y="634" on="0"/>
        <pt x="558" y="633" on="0"/>
        <pt x="553" y="633" on="1"/>
        <pt x="397" y="633" on="1"/>
      </contour>
    </TTGlyph>
    <TTGlyph name="bracketright" xMin="32" yMin="-83" xMax="413" yMax="694">
      <contour>
        <pt x="294" y="-51" on="1"/>
        <pt x="290" y="-75" on="0"/>
        <pt x="269" y="-83" on="0"/>
        <pt x="252" y="-83" on="1"/>
        <pt x="72" y="-83" on="1"/>
        <pt x="67" y="-83" on="0"/>
        <pt x="53" y="-82" on="0"/>
        <pt x="41" y="-77" on="0"/>
        <pt x="32" y="-65" on="0"/>
        <pt x="32" y="-54" on="1"/>
        <pt x="32" y="-42" on="0"/>
        <pt x="41" y="-29" on="0"/>
        <pt x="53" y="-23" on="0"/>
        <pt x="67" y="-22" on="0"/>
        <pt x="73" y="-22" on="1"/>
        <pt x="229" y="-22" on="1"/>
        <pt x="338" y="633" on="1"/>
        <pt x="192" y="633" on="1"/>
        <pt x="187" y="633" on="0"/>
        <pt x="173" y="634" on="0"/>
        <pt x="160" y="639" on="0"/>
        <pt x="151" y="651" on="0"/>
        <pt x="151" y="662" on="1"/>
        <pt x="151" y="674" on="0"/>
        <pt x="160" y="687" on="0"/>
        <pt x="173" y="693" on="0"/>
        <pt x="187" y="694" on="0"/>
        <pt x="193" y="694" on="1"/>
        <pt x="373" y="694" on="1"/>
        <pt x="378" y="694" on="0"/>
        <pt x="392" y="693" on="0"/>
        <pt x="404" y="688" on="0"/>
        <pt x="413" y="676" on="0"/>
        <pt x="413" y="665" on="1"/>
        <pt x="413" y="663" on="0"/>
        <pt x="412" y="657" on="0"/>
        <pt x="411" y="652" on="1"/>
      </contour>
    </TTGlyph>
    <TTGlyph name="breve" xMin="182" yMin="498" xMax="535" yMax="611">
      <contour>
        <pt x="244" y="574" on="1"/>
        <pt x="261" y="565" on="0"/>
        <pt x="320" y="562" on="0"/>
        <pt x="351" y="562" on="1"/>
        <pt x="394" y="562" on="0"/>
        <pt x="442" y="567" on="0"/>
        <pt x="466" y="574" on="0"/>
        <pt x="473" y="584" on="0"/>
        <pt x="475" y="590" on="1"/>
        <pt x="477" y="596" on="0"/>
        <pt x="489" y="611" on="0"/>
        <pt x="505" y="611" on="1"/>
        <pt x="519" y="611" on="0"/>
        <pt x="535" y="594" on="0"/>
        <pt x="535" y="583" on="1"/>
        <pt x="535" y="580" on="0"/>
        <pt x="532" y="563" on="0"/>
        <pt x="521" y="542" on="0"/>
        <pt x="498" y="521" on="0"/>
        <pt x="478" y="513" on="1"/>
        <pt x="451" y="502" on="0"/>
        <pt x="384" y="498" on="0"/>
        <pt x="350" y="498" on="1"/>
        <pt x="324" y="498" on="0"/>
        <pt x="265" y="500" on="0"/>
        <pt x="215" y="515" on="0"/>
        <pt x="182" y="546" on="0"/>
        <pt x="182" y="574" on="1"/>
        <pt x="182" y="588" on="0"/>
        <pt x="195" y="611" on="0"/>
        <pt x="214" y="611" on="1"/>
        <pt x="225" y="611" on="0"/>
        <pt x="237" y="603" on="0"/>
        <pt x="243" y="591" on="0"/>
        <pt x="244" y="578" on="0"/>
      </contour>
    </TTGlyph>
    <TTGlyph name="c" xMin="106" yMin="-6" xMax="515" yMax="440">
      <contour>
        <pt x="484" y="109" on="1"/>
        <pt x="484" y="101" on="0"/>
        <pt x="463" y="63" on="0"/>
        <pt x="418" y="24" on="0"/>
        <pt x="347" y="-6" on="0"/>
        <pt x="297" y="-6" on="1"/>
        <pt x="252" y="-6" on="0"/>
        <pt x="181" y="25" on="0"/>
        <pt x="132" y="78" on="0"/>
        <pt x="106" y="146" on="0"/>
        <pt x="106" y="183" on="1"/>
        <pt x="106" y="222" on="0"/>
        <pt x="139" y="313" on="0"/>
        <pt x="205" y="389" on="0"/>
        <pt x="306" y="440" on="0"/>
        <pt x="374" y="440" on="1"/>
        <pt x="392" y="440" on="0"/>
        <pt x="441" y="438" on="0"/>
        <pt x="484" y="425" on="0"/>
        <pt x="515" y="398" on="0"/>
        <pt x="515" y="372" on="1"/>
        <pt x="515" y="357" on="0"/>
        <pt x="505" y="337" on="0"/>
        <pt x="490" y="326" on="0"/>
        <pt x="474" y="321" on="0"/>
        <pt x="468" y="321" on="1"/>
        <pt x="453" y="321" on="0"/>
        <pt x="436" y="332" on="0"/>
        <pt x="428" y="349" on="0"/>
        <pt x="427" y="367" on="0"/>
        <pt x="427" y="373" on="1"/>
        <pt x="427" y="373" on="0"/>
        <pt x="424" y="376" on="1"/>
        <pt x="416" y="378" on="0"/>
        <pt x="381" y="379" on="0"/>
        <pt x="372" y="379" on="1"/>
        <pt x="320" y="379" on="0"/>
        <pt x="246" y="338" on="0"/>
        <pt x="198" y="278" on="0"/>
        <pt x="175" y="210" on="0"/>
        <pt x="175" y="184" on="1"/>
        <pt x="175" y="158" on="0"/>
        <pt x="193" y="111" on="0"/>
        <pt x="226" y="76" on="0"/>
        <pt x="274" y="55" on="0"/>
        <pt x="304" y="55" on="1"/>
        <pt x="338" y="55" on="0"/>
        <pt x="398" y="86" on="0"/>
        <pt x="415" y="115" on="1"/>
        <pt x="422" y="127" on="0"/>
        <pt x="433" y="137" on="0"/>
        <pt x="450" y="137" on="1"/>
        <pt x="469" y="137" on="0"/>
        <pt x="484" y="120" on="0"/>
      </contour>
    </TTGlyph>
    <TTGlyph name="caron" xMin="189" yMin="454" xMax="512" yMax="572">
      <contour>
        <pt x="362" y="459" on="1"/>
        <pt x="353" y="455" on="0"/>
        <pt x="347" y="454" on="0"/>
        <pt x="343" y="454" on="1"/>
        <pt x="339" y="454" on="0"/>
        <pt x="302" y="468" on="0"/>
        <pt x="257" y="485" on="0"/>
        <pt x="217" y="501" on="0"/>
        <pt x="210" y="504" on="1"/>
        <pt x="206" y="506" on="0"/>
        <pt x="189" y="518" on="0"/>
        <pt x="189" y="532" on="1"/>
        <pt x="189" y="534" on="0"/>
        <pt x="193" y="547" on="0"/>
        <pt x="201" y="561" on="0"/>
        <pt x="214" y="572" on="0"/>
        <pt x="224" y="572" on="1"/>
        <pt x="230" y="572" on="0"/>
        <pt x="240" y="568" on="0"/>
        <pt x="245" y="566" on="1"/>
        <pt x="345" y="522" on="1"/>
        <pt x="463" y="567" on="1"/>
        <pt x="474" y="572" on="0"/>
        <pt x="481" y="572" on="1"/>
        <pt x="492" y="572" on="0"/>
        <pt x="504" y="561" on="0"/>
        <pt x="510" y="547" on="0"/>
        <pt x="512" y="534" on="0"/>
        <pt x="512" y="532" on="1"/>
        <pt x="512" y="517" on="0"/>
        <pt x="494" y="506" on="0"/>
        <pt x="486" y="503" on="1"/>
      </contour>
    </TTGlyph>
    <TTGlyph name="cedilla" xMin="132" yMin="-208" xMax="411" yMax="45">
      <contour>
        <pt x="328" y="-10" on="1"/>
        <pt x="366" y="-18" on="0"/>
        <pt x="411" y="-64" on="0"/>
        <pt x="411" y="-97" on="1"/>
        <pt x="411" y="-139" on="0"/>
        <pt x="359" y="-184" on="0"/>
        <pt x="283" y="-205" on="0"/>
        <pt x="197" y="-208" on="0"/>
        <pt x="163" y="-208" on="1"/>
        <pt x="148" y="-208" on="0"/>
        <pt x="132" y="-190" on="0"/>
        <pt x="132" y="-179" on="1"/>
        <pt x="132" y="-154" on="0"/>
        <pt x="165" y="-146" on="0"/>
        <pt x="200" y="-146" on="1"/>
        <pt x="212" y="-146" on="0"/>
        <pt x="259" y="-144" on="0"/>
        <pt x="307" y="-135" on="0"/>
        <pt x="342" y="-115" on="0"/>
        <pt x="342" y="-97" on="1"/>
        <pt x="342" y="-81" on="0"/>
        <pt x="305" y="-67" on="0"/>
        <pt x="284" y="-66" on="1"/>
        <pt x="265" y="-65" on="0"/>
        <pt x="254" y="-45" on="0"/>
        <pt x="254" y="-37" on="1"/>
        <pt x="254" y="-35" on="0"/>
        <pt x="256" y="-20" on="0"/>
        <pt x="259" y="-3" on="0"/>
        <pt x="262" y="13" on="0"/>
        <pt x="262" y="16" on="1"/>
        <pt x="266" y="36" on="0"/>
        <pt x="284" y="45" on="0"/>
        <pt x="298" y="45" on="1"/>
        <pt x="308" y="45" on="0"/>
        <pt x="332" y="35" on="0"/>
        <pt x="332" y="16" on="1"/>
        <pt x="332" y="11" on="0"/>
        <pt x="330" y="-5" on="0"/>
      </contour>
    </TTGlyph>
    <TTGlyph name="colon" xMin="210" yMin="0" xMax="387" yMax="431">
      <contour>
        <pt x="387" y="374" on="1"/>
        <pt x="387" y="345" on="0"/>
        <pt x="345" y="306" on="0"/>
        <pt x="319" y="306" on="1"/>
        <pt x="292" y="306" on="0"/>
        <pt x="261" y="340" on="0"/>
        <pt x="261" y="363" on="1"/>
        <pt x="261" y="392" on="0"/>
        <pt x="303" y="431" on="0"/>
        <pt x="329" y="431" on="1"/>
        <pt x="355" y="431" on="0"/>
        <pt x="387" y="397" on="0"/>
      </contour>
      <contour>
        <pt x="336" y="68" on="1"/>
        <pt x="336" y="39" on="0"/>
        <pt x="294" y="0" on="0"/>
        <pt x="268" y="0" on="1"/>
        <pt x="241" y="0" on="0"/>
        <pt x="210" y="34" on="0"/>
        <pt x="210" y="57" on="1"/>
        <pt x="210" y="86" on="0"/>
        <pt x="252" y="125" on="0"/>
        <pt x="278" y="125" on="1"/>
        <pt x="304" y="125" on="0"/>
        <pt x="336" y="91" on="0"/>
      </contour>
    </TTGlyph>
    <TTGlyph name="comma" xMin="162" yMin="-139" xMax="352" yMax="125">
      <contour>
        <pt x="280" y="1" on="1"/>
        <pt x="277" y="0" on="0"/>
        <pt x="267" y="0" on="1"/>
        <pt x="244" y="0" on="0"/>
        <pt x="210" y="30" on="0"/>
        <pt x="210" y="57" on="1"/>
        <pt x="210" y="81" on="0"/>
        <pt x="247" y="125" on="0"/>
        <pt x="279" y="125" on="1"/>
        <pt x="313" y="125" on="0"/>
        <pt x="352" y="75" on="0"/>
        <pt x="352" y="41" on="1"/>
        <pt x="352" y="3" on="0"/>
        <pt x="316" y="-63" on="0"/>
        <pt x="265" y="-111" on="0"/>
        <pt x="211" y="-139" on="0"/>
        <pt x="194" y="-139" on="1"/>
        <pt x="178" y="-139" on="0"/>
        <pt x="162" y="-116" on="0"/>
        <pt x="162" y="-107" on="1"/>
        <pt x="162" y="-92" on="0"/>
        <pt x="182" y="-81" on="0"/>
        <pt x="187" y="-80" on="1"/>
        <pt x="193" y="-78" on="0"/>
        <pt x="216" y="-69" on="0"/>
        <pt x="243" y="-51" on="0"/>
        <pt x="270" y="-22" on="0"/>
      </contour>
    </TTGlyph>
    <TTGlyph name="d" xMin="69" yMin="-6" xMax="524" yMax="611">
      <contour>
        <pt x="438" y="61" on="1"/>
        <pt x="477" y="61" on="1"/>
        <pt x="482" y="61" on="0"/>
        <pt x="496" y="60" on="0"/>
        <pt x="508" y="55" on="0"/>
        <pt x="517" y="43" on="0"/>
        <pt x="517" y="32" on="1"/>
        <pt x="517" y="20" on="0"/>
        <pt x="509" y="7" on="0"/>
        <pt x="496" y="1" on="0"/>
        <pt x="482" y="0" on="0"/>
        <pt x="476" y="0" on="1"/>
        <pt x="403" y="0" on="1"/>
        <pt x="398" y="0" on="0"/>
        <pt x="384" y="1" on="0"/>
        <pt x="372" y="6" on="0"/>
        <pt x="363" y="18" on="0"/>
        <pt x="363" y="29" on="1"/>
        <pt x="363" y="36" on="0"/>
        <pt x="364" y="42" on="0"/>
        <pt x="365" y="46" on="1"/>
        <pt x="337" y="23" on="0"/>
        <pt x="272" y="-6" on="0"/>
        <pt x="236" y="-6" on="1"/>
        <pt x="202" y="-6" on="0"/>
        <pt x="141" y="20" on="0"/>
        <pt x="95" y="69" on="0"/>
        <pt x="69" y="137" on="0"/>
        <pt x="69" y="179" on="1"/>
        <pt x="69" y="233" on="0"/>
        <pt x="110" y="327" on="0"/>
        <pt x="178" y="397" on="0"/>
        <pt x="264" y="437" on="0"/>
        <pt x="309" y="437" on="1"/>
        <pt x="354" y="437" on="0"/>
        <pt x="410" y="403" on="0"/>
        <pt x="422" y="389" on="1"/>
        <pt x="449" y="550" on="1"/>
        <pt x="410" y="550" on="1"/>
        <pt x="405" y="550" on="0"/>
        <pt x="391" y="551" on="0"/>
        <pt x="378" y="556" on="0"/>
        <pt x="369" y="568" on="0"/>
        <pt x="369" y="578" on="1"/>
        <pt x="369" y="590" on="0"/>
        <pt x="378" y="604" on="0"/>
        <pt x="391" y="610" on="0"/>
        <pt x="405" y="611" on="0"/>
        <pt x="411" y="611" on="1"/>
        <pt x="484" y="611" on="1"/>
        <pt x="489" y="611" on="0"/>
        <pt x="503" y="610" on="0"/>
        <pt x="515" y="605" on="0"/>
        <pt x="524" y="593" on="0"/>
        <pt x="524" y="582" on="1"/>
        <pt x="524" y="579" on="0"/>
        <pt x="523" y="573" on="0"/>
        <pt x="521" y="561" on="1"/>
      </contour>
      <contour>
        <pt x="241" y="55" on="1"/>
        <pt x="266" y="55" on="0"/>
        <pt x="316" y="79" on="0"/>
        <pt x="357" y="120" on="0"/>
        <pt x="387" y="174" on="0"/>
        <pt x="392" y="205" on="1"/>
        <pt x="398" y="241" on="0"/>
        <pt x="405" y="284" on="0"/>
        <pt x="405" y="287" on="1"/>
        <pt x="405" y="295" on="0"/>
        <pt x="397" y="325" on="0"/>
        <pt x="376" y="354" on="0"/>
        <pt x="340" y="376" on="0"/>
        <pt x="313" y="376" on="1"/>
        <pt x="282" y="376" on="0"/>
        <pt x="219" y="345" on="0"/>
        <pt x="169" y="292" on="0"/>
        <pt x="138" y="220" on="0"/>
        <pt x="138" y="179" on="1"/>
        <pt x="138" y="122" on="0"/>
        <pt x="197" y="55" on="0"/>
      </contour>
    </TTGlyph>
    <TTGlyph name="dieresis" xMin="204" yMin="512" xMax="508" yMax="612">
      <contour>
        <pt x="304" y="565" on="1"/>
        <pt x="304" y="542" on="0"/>
        <pt x="271" y="512" on="0"/>
        <pt x="251" y="512" on="1"/>
        <pt x="232" y="512" on="0"/>
        <pt x="204" y="537" on="0"/>
        <pt x="204" y="559" on="1"/>
        <pt x="204" y="582" on="0"/>
        <pt x="237" y="612" on="0"/>
        <pt x="258" y="612" on="1"/>
        <pt x="265" y="612" on="0"/>
        <pt x="281" y="607" on="0"/>
        <pt x="295" y="596" on="0"/>
        <pt x="304" y="578" on="0"/>
      </contour>
      <contour>
        <pt x="508" y="565" on="1"/>
        <pt x="508" y="548" on="0"/>
        <pt x="478" y="512" on="0"/>
        <pt x="454" y="512" on="1"/>
        <pt x="434" y="512" on="0"/>
        <pt x="407" y="539" on="0"/>
        <pt x="407" y="559" on="1"/>
        <pt x="407" y="579" on="0"/>
        <pt x="438" y="612" on="0"/>
        <pt x="461" y="612" on="1"/>
        <pt x="481" y="612" on="0"/>
        <pt x="508" y="585" on="0"/>
      </contour>
    </TTGlyph>
    <TTGlyph name="dollar" xMin="84" yMin="-83" xMax="544" yMax="694">
      <contour>
        <pt x="351" y="345" on="1"/>
        <pt x="383" y="340" on="0"/>
        <pt x="436" y="313" on="0"/>
        <pt x="474" y="273" on="0"/>
        <pt x="496" y="222" on="0"/>
        <pt x="496" y="192" on="1"/>
        <pt x="496" y="155" on="0"/>
        <pt x="464" y="88" on="0"/>
        <pt x="408" y="35" on="0"/>
        <pt x="334" y="0" on="0"/>
        <pt x="293" y="-4" on="1"/>
        <pt x="291" y="-19" on="0"/>
        <pt x="287" y="-39" on="0"/>
        <pt x="284" y="-54" on="1"/>
        <pt x="283" y="-61" on="0"/>
        <pt x="273" y="-83" on="0"/>
        <pt x="253" y="-83" on="1"/>
        <pt x="239" y="-83" on="0"/>
        <pt x="223" y="-68" on="0"/>
        <pt x="223" y="-54" on="1"/>
        <pt x="223" y="-51" on="0"/>
        <pt x="227" y="-25" on="0"/>
        <pt x="231" y="-4" on="1"/>
        <pt x="200" y="-1" on="0"/>
        <pt x="146" y="21" on="0"/>
        <pt x="107" y="58" on="0"/>
        <pt x="84" y="110" on="0"/>
        <pt x="84" y="143" on="1"/>
        <pt x="84" y="149" on="0"/>
        <pt x="86" y="173" on="0"/>
        <pt x="95" y="197" on="0"/>
        <pt x="115" y="216" on="0"/>
        <pt x="133" y="216" on="1"/>
        <pt x="149" y="216" on="0"/>
        <pt x="176" y="194" on="0"/>
        <pt x="176" y="174" on="1"/>
        <pt x="176" y="166" on="0"/>
        <pt x="169" y="147" on="0"/>
        <pt x="158" y="137" on="1"/>
        <pt x="154" y="134" on="0"/>
        <pt x="154" y="129" on="1"/>
        <pt x="154" y="128" on="0"/>
        <pt x="157" y="108" on="0"/>
        <pt x="173" y="84" on="0"/>
        <pt x="208" y="61" on="0"/>
        <pt x="241" y="57" on="1"/>
        <pt x="280" y="290" on="1"/>
        <pt x="240" y="297" on="0"/>
        <pt x="183" y="327" on="0"/>
        <pt x="148" y="367" on="0"/>
        <pt x="132" y="413" on="0"/>
        <pt x="132" y="435" on="1"/>
        <pt x="132" y="465" on="0"/>
        <pt x="158" y="522" on="0"/>
        <pt x="207" y="571" on="0"/>
        <pt x="276" y="607" on="0"/>
        <pt x="319" y="614" on="1"/>
        <pt x="329" y="616" on="0"/>
        <pt x="333" y="617" on="0"/>
        <pt x="334" y="619" on="1"/>
        <pt x="335" y="621" on="0"/>
        <pt x="338" y="643" on="0"/>
        <pt x="340" y="651" on="1"/>
        <pt x="343" y="671" on="0"/>
        <pt x="354" y="694" on="0"/>
        <pt x="374" y="694" on="1"/>
        <pt x="389" y="694" on="0"/>
        <pt x="404" y="676" on="0"/>
        <pt x="404" y="665" on="1"/>
        <pt x="404" y="661" on="0"/>
        <pt x="396" y="615" on="1"/>
        <pt x="472" y="607" on="0"/>
        <pt x="544" y="530" on="0"/>
        <pt x="544" y="477" on="1"/>
        <pt x="544" y="470" on="0"/>
        <pt x="542" y="447" on="0"/>
        <pt x="532" y="425" on="0"/>
        <pt x="512" y="408" on="0"/>
        <pt x="494" y="408" on="1"/>
        <pt x="472" y="408" on="0"/>
        <pt x="452" y="435" on="0"/>
        <pt x="452" y="449" on="1"/>
        <pt x="452" y="460" on="0"/>
        <pt x="463" y="482" on="0"/>
        <pt x="474" y="489" on="1"/>
        <pt x="465" y="546" on="0"/>
        <pt x="386" y="555" on="1"/>
      </contour>
      <contour>
        <pt x="324" y="553" on="1"/>
        <pt x="301" y="549" on="0"/>
        <pt x="255" y="529" on="0"/>
        <pt x="219" y="499" on="0"/>
        <pt x="197" y="461" on="0"/>
        <pt x="197" y="440" on="1"/>
        <pt x="197" y="408" on="0"/>
        <pt x="249" y="366" on="0"/>
        <pt x="291" y="359" on="1"/>
      </contour>
      <contour>
        <pt x="303" y="59" on="1"/>
        <pt x="330" y="64" on="0"/>
        <pt x="376" y="89" on="0"/>
        <pt x="411" y="123" on="0"/>
        <pt x="431" y="164" on="0"/>
        <pt x="431" y="186" on="1"/>
        <pt x="431" y="209" on="0"/>
        <pt x="412" y="242" on="0"/>
        <pt x="383" y="263" on="0"/>
        <pt x="352" y="275" on="0"/>
        <pt x="340" y="277" on="1"/>
      </contour>
    </TTGlyph>
    <TTGlyph name="dotlessi" xMin="83" yMin="0" xMax="460" yMax="431">
      <contour>
        <pt x="320" y="61" on="1"/>
        <pt x="420" y="61" on="1"/>
        <pt x="425" y="61" on="0"/>
        <pt x="439" y="60" on="0"/>
        <pt x="451" y="55" on="0"/>
        <pt x="460" y="43" on="0"/>
        <pt x="460" y="32" on="1"/>
        <pt x="460" y="20" on="0"/>
        <pt x="451" y="7" on="0"/>
        <pt x="439" y="1" on="0"/>
        <pt x="425" y="0" on="0"/>
        <pt x="419" y="0" on="1"/>
        <pt x="123" y="0" on="1"/>
        <pt x="118" y="0" on="0"/>
        <pt x="104" y="1" on="0"/>
        <pt x="92" y="6" on="0"/>
        <pt x="83" y="18" on="0"/>
        <pt x="83" y="29" on="1"/>
        <pt x="83" y="41" on="0"/>
        <pt x="92" y="54" on="0"/>
        <pt x="104" y="60" on="0"/>
        <pt x="118" y="61" on="0"/>
        <pt x="124" y="61" on="1"/>
        <pt x="250" y="61" on="1"/>
        <pt x="301" y="370" on="1"/>
        <pt x="193" y="370" on="1"/>
        <pt x="188" y="370" on="0"/>
        <pt x="174" y="371" on="0"/>
        <pt x="162" y="376" on="0"/>
        <pt x="153" y="388" on="0"/>
        <pt x="153" y="399" on="1"/>
        <pt x="153" y="411" on="0"/>
        <pt x="161" y="424" on="0"/>
        <pt x="174" y="430" on="0"/>
        <pt x="188" y="431" on="0"/>
        <pt x="194" y="431" on="1"/>
        <pt x="336" y="431" on="1"/>
        <pt x="341" y="431" on="0"/>
        <pt x="355" y="430" on="0"/>
        <pt x="367" y="425" on="0"/>
        <pt x="376" y="413" on="0"/>
        <pt x="376" y="402" on="1"/>
        <pt x="376" y="399" on="0"/>
        <pt x="375" y="393" on="0"/>
        <pt x="373" y="381" on="1"/>
      </contour>
    </TTGlyph>
    <TTGlyph name="e" xMin="89" yMin="-6" xMax="505" yMax="440">
      <contour>
        <pt x="158" y="191" on="1"/>
        <pt x="158" y="154" on="0"/>
        <pt x="184" y="102" on="0"/>
        <pt x="225" y="70" on="0"/>
        <pt x="274" y="55" on="0"/>
        <pt x="297" y="55" on="1"/>
        <pt x="329" y="55" on="0"/>
        <pt x="393" y="84" on="0"/>
        <pt x="413" y="115" on="1"/>
        <pt x="421" y="128" on="0"/>
        <pt x="431" y="137" on="0"/>
        <pt x="448" y="137" on="1"/>
        <pt x="467" y="137" on="0"/>
        <pt x="482" y="120" on="0"/>
        <pt x="482" y="109" on="1"/>
        <pt x="482" y="99" on="0"/>
        <pt x="458" y="61" on="0"/>
        <pt x="410" y="23" on="0"/>
        <pt x="338" y="-6" on="0"/>
        <pt x="289" y="-6" on="1"/>
        <pt x="247" y="-6" on="0"/>
        <pt x="174" y="22" on="0"/>
        <pt x="120" y="73" on="0"/>
        <pt x="89" y="144" on="0"/>
        <pt x="89" y="186" on="1"/>
        <pt x="89" y="236" on="0"/>
        <pt x="130" y="327" on="0"/>
        <pt x="199" y="398" on="0"/>
        <pt x="290" y="440" on="0"/>
        <pt x="339" y="440" on="1"/>
        <pt x="366" y="440" on="0"/>
        <pt x="424" y="425" on="0"/>
        <pt x="473" y="387" on="0"/>
        <pt x="505" y="321" on="0"/>
        <pt x="505" y="270" on="1"/>
        <pt x="505" y="240" on="0"/>
        <pt x="499" y="208" on="0"/>
        <pt x="488" y="193" on="0"/>
        <pt x="471" y="191" on="0"/>
        <pt x="460" y="191" on="1"/>
      </contour>
      <contour>
        <pt x="435" y="251" on="1"/>
        <pt x="436" y="256" on="0"/>
        <pt x="436" y="263" on="0"/>
        <pt x="436" y="272" on="1"/>
        <pt x="436" y="281" on="0"/>
        <pt x="433" y="317" on="0"/>
        <pt x="415" y="352" on="0"/>
        <pt x="375" y="379" on="0"/>
        <pt x="338" y="379" on="1"/>
        <pt x="311" y="379" on="0"/>
        <pt x="258" y="359" on="0"/>
        <pt x="214" y="324" on="0"/>
        <pt x="180" y="277" on="0"/>
        <pt x="171" y="251" on="1"/>
      </contour>
    </TTGlyph>
    <TTGlyph name="eight" xMin="71" yMin="-11" xMax="545" yMax="622">
      <contour>
        <pt x="396" y="330" on="1"/>
        <pt x="456" y="310" on="0"/>
        <pt x="511" y="236" on="0"/>
        <pt x="511" y="195" on="1"/>
        <pt x="511" y="160" on="0"/>
        <pt x="473" y="87" on="0"/>
        <pt x="406" y="27" on="0"/>
        <pt x="314" y="-11" on="0"/>
        <pt x="260" y="-11" on="1"/>
        <pt x="219" y="-11" on="0"/>
        <pt x="149" y="13" on="0"/>
        <pt x="99" y="56" on="0"/>
        <pt x="71" y="115" on="0"/>
        <pt x="71" y="149" on="1"/>
        <pt x="71" y="184" on="0"/>
        <pt x="101" y="243" on="0"/>
        <pt x="149" y="289" on="0"/>
        <pt x="208" y="321" on="0"/>
        <pt x="238" y="329" on="1"/>
        <pt x="235" y="330" on="0"/>
        <pt x="202" y="343" on="0"/>
        <pt x="164" y="371" on="0"/>
        <pt x="133" y="415" on="0"/>
        <pt x="133" y="445" on="1"/>
        <pt x="133" y="475" on="0"/>
        <pt x="168" y="538" on="0"/>
        <pt x="230" y="589" on="0"/>
        <pt x="315" y="622" on="0"/>
        <pt x="365" y="622" on="1"/>
        <pt x="406" y="622" on="0"/>
        <pt x="473" y="599" on="0"/>
        <pt x="520" y="560" on="0"/>
        <pt x="545" y="509" on="0"/>
        <pt x="545" y="481" on="1"/>
        <pt x="545" y="453" on="0"/>
        <pt x="520" y="405" on="0"/>
        <pt x="478" y="366" on="0"/>
        <pt x="425" y="338" on="0"/>
      </contour>
      <contour>
        <pt x="322" y="360" on="1"/>
        <pt x="352" y="360" on="0"/>
        <pt x="408" y="379" on="0"/>
        <pt x="450" y="410" on="0"/>
        <pt x="475" y="451" on="0"/>
        <pt x="475" y="473" on="1"/>
        <pt x="475" y="490" on="0"/>
        <pt x="459" y="521" on="0"/>
        <pt x="429" y="546" on="0"/>
        <pt x="384" y="561" on="0"/>
        <pt x="355" y="561" on="1"/>
        <pt x="324" y="561" on="0"/>
        <pt x="269" y="542" on="0"/>
        <pt x="227" y="511" on="0"/>
        <pt x="203" y="471" on="0"/>
        <pt x="203" y="449" on="1"/>
        <pt x="203" y="428" on="0"/>
        <pt x="223" y="395" on="0"/>
        <pt x="256" y="372" on="0"/>
        <pt x="299" y="360" on="0"/>
      </contour>
      <contour>
        <pt x="271" y="50" on="1"/>
        <pt x="305" y="50" on="0"/>
        <pt x="367" y="74" on="0"/>
        <pt x="414" y="113" on="0"/>
        <pt x="442" y="165" on="0"/>
        <pt x="442" y="192" on="1"/>
        <pt x="442" y="210" on="0"/>
        <pt x="426" y="248" on="0"/>
        <pt x="394" y="279" on="0"/>
        <pt x="345" y="299" on="0"/>
        <pt x="311" y="299" on="1"/>
        <pt x="277" y="299" on="0"/>
        <pt x="215" y="275" on="0"/>
        <pt x="168" y="236" on="0"/>
        <pt x="141" y="185" on="0"/>
        <pt x="141" y="158" on="1"/>
        <pt x="141" y="134" on="0"/>
        <pt x="161" y="94" on="0"/>
        <pt x="196" y="66" on="0"/>
        <pt x="243" y="50" on="0"/>
      </contour>
    </TTGlyph>
    <TTGlyph name="equal" xMin="76" yMin="195" xMax="550" yMax="417">
      <contour>
        <pt x="146" y="347" on="1"/>
        <pt x="141" y="347" on="0"/>
        <pt x="126" y="348" on="0"/>
        <pt x="112" y="355" on="0"/>
        <pt x="102" y="369" on="0"/>
        <pt x="102" y="382" on="1"/>
        <pt x="102" y="395" on="0"/>
        <pt x="113" y="409" on="0"/>
        <pt x="130" y="416" on="0"/>
        <pt x="147" y="417" on="0"/>
        <pt x="153" y="417" on="1"/>
        <pt x="499" y="417" on="1"/>
        <pt x="504" y="417" on="0"/>
        <pt x="521" y="416" on="0"/>
        <pt x="538" y="409" on="0"/>
        <pt x="550" y="395" on="0"/>
        <pt x="550" y="382" on="1"/>
        <pt x="550" y="369" on="0"/>
        <pt x="539" y="355" on="0"/>
        <pt x="524" y="348" on="0"/>
        <pt x="509" y="347" on="0"/>
        <pt x="505" y="347" on="1"/>
      </contour>
      <contour>
        <pt x="127" y="195" on="1"/>
        <pt x="122" y="195" on="0"/>
        <pt x="105" y="196" on="0"/>
        <pt x="88" y="203" on="0"/>
        <pt x="76" y="217" on="0"/>
        <pt x="76" y="230" on="1"/>
        <pt x="76" y="243" on="0"/>
        <pt x="87" y="257" on="0"/>
        <pt x="102" y="264" on="0"/>
        <pt x="117" y="265" on="0"/>
        <pt x="121" y="265" on="1"/>
        <pt x="480" y="265" on="1"/>
        <pt x="485" y="265" on="0"/>
        <pt x="500" y="264" on="0"/>
        <pt x="514" y="257" on="0"/>
        <pt x="524" y="243" on="0"/>
        <pt x="524" y="230" on="1"/>
        <pt x="524" y="217" on="0"/>
        <pt x="513" y="203" on="0"/>
        <pt x="496" y="196" on="0"/>
        <pt x="479" y="195" on="0"/>
        <pt x="473" y="195" on="1"/>
      </contour>
    </TTGlyph>
    <TTGlyph name="exclam" xMin="220" yMin="0" xMax="408" yMax="622">
      <contour>
        <pt x="339" y="217" on="1"/>
        <pt x="334" y="192" on="0"/>
        <pt x="315" y="184" on="0"/>
        <pt x="297" y="184" on="1"/>
        <pt x="292" y="184" on="0"/>
        <pt x="278" y="185" on="0"/>
        <pt x="266" y="190" on="0"/>
        <pt x="257" y="202" on="0"/>
        <pt x="257" y="212" on="1"/>
        <pt x="306" y="569" on="1"/>
        <pt x="310" y="599" on="0"/>
        <pt x="346" y="622" on="0"/>
        <pt x="361" y="622" on="1"/>
        <pt x="382" y="622" on="0"/>
        <pt x="408" y="593" on="0"/>
        <pt x="408" y="576" on="1"/>
        <pt x="408" y="572" on="0"/>
        <pt x="407" y="566" on="0"/>
        <pt x="405" y="555" on="1"/>
      </contour>
      <contour>
        <pt x="321" y="53" on="1"/>
        <pt x="321" y="33" on="0"/>
        <pt x="290" y="0" on="0"/>
        <pt x="267" y="0" on="1"/>
        <pt x="247" y="0" on="0"/>
        <pt x="220" y="27" on="0"/>
        <pt x="220" y="47" on="1"/>
        <pt x="220" y="67" on="0"/>
        <pt x="251" y="100" on="0"/>
        <pt x="274" y="100" on="1"/>
        <pt x="294" y="100" on="0"/>
        <pt x="321" y="73" on="0"/>
      </contour>
    </TTGlyph>
    <TTGlyph name="exclamdown" xMin="181" yMin="-233" xMax="369" yMax="389">
      <contour>
        <pt x="369" y="342" on="1"/>
        <pt x="369" y="323" on="0"/>
        <pt x="338" y="289" on="0"/>
        <pt x="315" y="289" on="1"/>
        <pt x="294" y="289" on="0"/>
        <pt x="268" y="318" on="0"/>
        <pt x="268" y="336" on="1"/>
        <pt x="268" y="355" on="0"/>
        <pt x="299" y="389" on="0"/>
        <pt x="322" y="389" on="1"/>
        <pt x="343" y="389" on="0"/>
        <pt x="369" y="360" on="0"/>
      </contour>
      <contour>
        <pt x="250" y="173" on="1"/>
        <pt x="255" y="196" on="0"/>
        <pt x="273" y="205" on="0"/>
        <pt x="292" y="205" on="1"/>
        <pt x="297" y="205" on="0"/>
        <pt x="311" y="204" on="0"/>
        <pt x="323" y="199" on="0"/>
        <pt x="332" y="188" on="0"/>
        <pt x="332" y="177" on="1"/>
        <pt x="332" y="176" on="0"/>
        <pt x="330" y="166" on="0"/>
        <pt x="330" y="164" on="1"/>
        <pt x="283" y="-179" on="1"/>
        <pt x="281" y="-196" on="0"/>
        <pt x="268" y="-217" on="0"/>
        <pt x="251" y="-229" on="0"/>
        <pt x="234" y="-233" on="0"/>
        <pt x="228" y="-233" on="1"/>
        <pt x="207" y="-233" on="0"/>
        <pt x="181" y="-205" on="0"/>
        <pt x="181" y="-187" on="1"/>
        <pt x="181" y="-182" on="0"/>
        <pt x="182" y="-176" on="0"/>
        <pt x="184" y="-165" on="1"/>
      </contour>
    </TTGlyph>
    <TTGlyph name="f" xMin="47" yMin="0" xMax="530" yMax="617">
      <contour>
        <pt x="264" y="61" on="1"/>
        <pt x="360" y="61" on="1"/>
        <pt x="365" y="61" on="0"/>
        <pt x="379" y="60" on="0"/>
        <pt x="391" y="55" on="0"/>
        <pt x="400" y="43" on="0"/>
        <pt x="400" y="32" on="1"/>
        <pt x="400" y="20" on="0"/>
        <pt x="391" y="7" on="0"/>
        <pt x="379" y="1" on="0"/>
        <pt x="365" y="0" on="0"/>
        <pt x="359" y="0" on="1"/>
        <pt x="87" y="0" on="1"/>
        <pt x="82" y="0" on="0"/>
        <pt x="68" y="1" on="0"/>
        <pt x="56" y="6" on="0"/>
        <pt x="47" y="18" on="0"/>
        <pt x="47" y="29" on="1"/>
        <pt x="47" y="41" on="0"/>
        <pt x="56" y="54" on="0"/>
        <pt x="69" y="60" on="0"/>
        <pt x="83" y="61" on="0"/>
        <pt x="88" y="61" on="1"/>
        <pt x="194" y="61" on="1"/>
        <pt x="245" y="370" on="1"/>
        <pt x="150" y="370" on="1"/>
        <pt x="145" y="370" on="0"/>
        <pt x="131" y="371" on="0"/>
        <pt x="118" y="376" on="0"/>
        <pt x="109" y="388" on="0"/>
        <pt x="109" y="398" on="1"/>
        <pt x="109" y="410" on="0"/>
        <pt x="118" y="424" on="0"/>
        <pt x="131" y="430" on="0"/>
        <pt x="145" y="431" on="0"/>
        <pt x="151" y="431" on="1"/>
        <pt x="255" y="431" on="1"/>
        <pt x="261" y="466" on="0"/>
        <pt x="269" y="507" on="0"/>
        <pt x="279" y="534" on="0"/>
        <pt x="293" y="553" on="0"/>
        <pt x="305" y="565" on="1"/>
        <pt x="309" y="570" on="0"/>
        <pt x="330" y="587" on="0"/>
        <pt x="363" y="604" on="0"/>
        <pt x="409" y="617" on="0"/>
        <pt x="439" y="617" on="1"/>
        <pt x="445" y="617" on="0"/>
        <pt x="475" y="615" on="0"/>
        <pt x="506" y="605" on="0"/>
        <pt x="530" y="582" on="0"/>
        <pt x="530" y="561" on="1"/>
        <pt x="530" y="548" on="0"/>
        <pt x="520" y="529" on="0"/>
        <pt x="506" y="518" on="0"/>
        <pt x="491" y="513" on="0"/>
        <pt x="485" y="513" on="1"/>
        <pt x="484" y="513" on="0"/>
        <pt x="471" y="514" on="0"/>
        <pt x="457" y="522" on="0"/>
        <pt x="445" y="540" on="0"/>
        <pt x="444" y="556" on="1"/>
        <pt x="416" y="556" on="0"/>
        <pt x="376" y="543" on="0"/>
        <pt x="350" y="522" on="0"/>
        <pt x="336" y="495" on="0"/>
        <pt x="334" y="482" on="1"/>
        <pt x="331" y="467" on="0"/>
        <pt x="328" y="447" on="0"/>
        <pt x="325" y="431" on="1"/>
        <pt x="442" y="431" on="1"/>
        <pt x="447" y="431" on="0"/>
        <pt x="461" y="430" on="0"/>
        <pt x="473" y="425" on="0"/>
        <pt x="482" y="413" on="0"/>
        <pt x="482" y="402" on="1"/>
        <pt x="482" y="390" on="0"/>
        <pt x="473" y="377" on="0"/>
        <pt x="461" y="371" on="0"/>
        <pt x="447" y="370" on="0"/>
        <pt x="441" y="370" on="1"/>
        <pt x="315" y="370" on="1"/>
      </contour>
    </TTGlyph>
    <TTGlyph name="five" xMin="75" yMin="-11" xMax="534" yMax="611">
      <contour>
        <pt x="218" y="363" on="1"/>
        <pt x="254" y="380" on="0"/>
        <pt x="317" y="389" on="0"/>
        <pt x="337" y="389" on="1"/>
        <pt x="376" y="389" on="0"/>
        <pt x="439" y="362" on="0"/>
        <pt x="482" y="316" on="0"/>
        <pt x="506" y="253" on="0"/>
        <pt x="506" y="218" on="1"/>
        <pt x="506" y="170" on="0"/>
        <pt x="463" y="86" on="0"/>
        <pt x="392" y="25" on="0"/>
        <pt x="300" y="-11" on="0"/>
        <pt x="251" y="-11" on="1"/>
        <pt x="216" y="-11" on="0"/>
        <pt x="152" y="8" on="0"/>
        <pt x="104" y="43" on="0"/>
        <pt x="75" y="95" on="0"/>
        <pt x="75" y="128" on="1"/>
        <pt x="75" y="132" on="0"/>
        <pt x="77" y="152" on="0"/>
        <pt x="86" y="173" on="0"/>
        <pt x="105" y="190" on="0"/>
        <pt x="123" y="190" on="1"/>
        <pt x="145" y="190" on="0"/>
        <pt x="166" y="163" on="0"/>
        <pt x="166" y="149" on="1"/>
        <pt x="166" y="137" on="0"/>
        <pt x="154" y="115" on="0"/>
        <pt x="146" y="110" on="1"/>
        <pt x="157" y="77" on="0"/>
        <pt x="220" y="50" on="0"/>
        <pt x="252" y="50" on="1"/>
        <pt x="286" y="50" on="0"/>
        <pt x="352" y="76" on="0"/>
        <pt x="405" y="121" on="0"/>
        <pt x="437" y="183" on="0"/>
        <pt x="437" y="219" on="1"/>
        <pt x="437" y="240" on="0"/>
        <pt x="425" y="279" on="0"/>
        <pt x="400" y="309" on="0"/>
        <pt x="362" y="328" on="0"/>
        <pt x="336" y="328" on="1"/>
        <pt x="325" y="328" on="0"/>
        <pt x="292" y="325" on="0"/>
        <pt x="254" y="314" on="0"/>
        <pt x="215" y="293" on="0"/>
        <pt x="197" y="275" on="1"/>
        <pt x="190" y="268" on="0"/>
        <pt x="181" y="263" on="0"/>
        <pt x="169" y="263" on="1"/>
        <pt x="152" y="263" on="0"/>
        <pt x="137" y="281" on="0"/>
        <pt x="137" y="292" on="1"/>
        <pt x="137" y="295" on="0"/>
        <pt x="138" y="302" on="0"/>
        <pt x="140" y="315" on="1"/>
        <pt x="183" y="575" on="1"/>
        <pt x="188" y="601" on="0"/>
        <pt x="207" y="611" on="0"/>
        <pt x="226" y="611" on="1"/>
        <pt x="494" y="611" on="1"/>
        <pt x="499" y="611" on="0"/>
        <pt x="513" y="610" on="0"/>
        <pt x="525" y="605" on="0"/>
        <pt x="534" y="593" on="0"/>
        <pt x="534" y="582" on="1"/>
        <pt x="534" y="570" on="0"/>
        <pt x="525" y="557" on="0"/>
        <pt x="513" y="551" on="0"/>
        <pt x="499" y="550" on="0"/>
        <pt x="493" y="550" on="1"/>
        <pt x="249" y="550" on="1"/>
      </contour>
    </TTGlyph>
    <TTGlyph name="four" xMin="62" yMin="0" xMax="529" yMax="623">
      <contour>
        <pt x="388" y="61" on="1"/>
        <pt x="444" y="61" on="1"/>
        <pt x="449" y="61" on="0"/>
        <pt x="463" y="60" on="0"/>
        <pt x="476" y="55" on="0"/>
        <pt x="485" y="44" on="0"/>
        <pt x="485" y="33" on="1"/>
        <pt x="485" y="21" on="0"/>
        <pt x="476" y="7" on="0"/>
        <pt x="463" y="1" on="0"/>
        <pt x="449" y="0" on="0"/>
        <pt x="443" y="0" on="1"/>
        <pt x="264" y="0" on="1"/>
        <pt x="259" y="0" on="0"/>
        <pt x="245" y="1" on="0"/>
        <pt x="233" y="6" on="0"/>
        <pt x="224" y="18" on="0"/>
        <pt x="224" y="29" on="1"/>
        <pt x="224" y="41" on="0"/>
        <pt x="232" y="54" on="0"/>
        <pt x="245" y="60" on="0"/>
        <pt x="259" y="61" on="0"/>
        <pt x="265" y="61" on="1"/>
        <pt x="331" y="61" on="1"/>
        <pt x="349" y="169" on="1"/>
        <pt x="102" y="169" on="1"/>
        <pt x="97" y="169" on="0"/>
        <pt x="83" y="170" on="0"/>
        <pt x="71" y="175" on="0"/>
        <pt x="62" y="187" on="0"/>
        <pt x="62" y="198" on="1"/>
        <pt x="62" y="222" on="0"/>
        <pt x="77" y="241" on="1"/>
        <pt x="369" y="605" on="1"/>
        <pt x="380" y="619" on="0"/>
        <pt x="395" y="623" on="0"/>
        <pt x="412" y="623" on="1"/>
        <pt x="440" y="623" on="1"/>
        <pt x="453" y="623" on="0"/>
        <pt x="475" y="617" on="0"/>
        <pt x="477" y="599" on="1"/>
        <pt x="415" y="230" on="1"/>
        <pt x="488" y="230" on="1"/>
        <pt x="493" y="230" on="0"/>
        <pt x="507" y="229" on="0"/>
        <pt x="520" y="224" on="0"/>
        <pt x="529" y="213" on="0"/>
        <pt x="529" y="202" on="1"/>
        <pt x="529" y="190" on="0"/>
        <pt x="520" y="176" on="0"/>
        <pt x="507" y="170" on="0"/>
        <pt x="493" y="169" on="0"/>
        <pt x="487" y="169" on="1"/>
        <pt x="406" y="169" on="1"/>
      </contour>
      <contour>
        <pt x="137" y="230" on="1"/>
        <pt x="359" y="230" on="1"/>
        <pt x="417" y="577" on="1"/>
        <pt x="416" y="577" on="1"/>
      </contour>
    </TTGlyph>
</ttFont>
